<?xml version="1.0" encoding="UTF-8"?>
<svg xmlns="http://www.w3.org/2000/svg" width="169" height="89" viewBox="0 0 169 89" fill="none">
  <path fill-rule="evenodd" clip-rule="evenodd" d="M44.0578 33.7122H53.461L52.0394 38.7372H42.6362L38.9392 51.9297H33.1191L41.5204 22H57.3711L55.9508 27.0263H45.9202L44.0578 33.7122ZM67.7974 22L59.3961 51.9297H53.5747L61.9773 22H67.7974ZM88.6278 27.0263L90.0494 22H70.7955L69.3752 27.0263H76.0915L69.1105 51.9297H74.9319L81.9116 27.0263H88.6278ZM94.8119 48.004C94.9641 47.939 95.1494 47.9709 95.3678 48.1022L95.3665 48.1048C95.6061 48.2587 95.7358 48.4113 95.7583 48.5638C95.7795 48.7164 95.7477 48.8915 95.6603 49.0878C95.3983 49.503 95.066 49.9342 94.6636 50.3812C94.2599 50.8283 93.7861 51.1997 93.242 51.4942C92.698 51.7887 92.0878 51.9359 91.4127 51.9359C90.7814 51.9359 90.2744 51.8258 89.8932 51.6083C89.512 51.3907 89.2353 51.0684 89.0606 50.6425C88.8859 50.2167 88.8157 49.698 88.8488 49.0865C88.8713 48.654 88.9481 48.1897 89.0738 47.6923C88.736 47.9288 88.3964 48.1452 88.0603 48.3594C87.663 48.6127 87.2705 48.8629 86.8911 49.1395C85.9909 49.7949 84.9163 50.2646 84.0215 50.6558C83.8441 50.7333 83.6737 50.8078 83.5132 50.88C82.5443 51.3178 81.0512 51.6812 80.2226 51.6812C80.0055 51.6812 79.6958 51.27 79.75 51.0737C79.7922 50.9211 79.8152 50.8999 79.9004 50.8214C79.9248 50.7989 79.9544 50.7717 79.9909 50.7354C80.1551 50.5709 80.4635 50.421 80.715 50.348C81.8785 50.0098 83.5132 49.5269 86.2148 48.0756C87.4206 47.3023 88.641 46.4334 89.6324 45.4504C89.6792 45.4044 89.726 45.3572 89.7728 45.31L89.8429 45.2395L95.5637 27.5366C96.1951 25.6144 96.9033 24.2122 97.6882 23.3274C98.4731 22.4426 99.4208 22.0009 100.531 22.0009C101.14 22.0009 101.67 22.1481 102.116 22.4426C102.562 22.7371 102.906 23.1417 103.146 23.6538C103.385 24.1671 103.506 24.784 103.506 25.5043C103.506 26.3122 103.336 27.2514 102.999 28.3206C102.661 29.3911 102.182 30.5479 101.561 31.7922C100.94 33.0378 100.21 34.314 99.3719 35.6246C98.5327 36.9339 97.618 38.2499 96.6266 39.5711C95.6352 40.8924 94.6014 42.1579 93.5226 43.3704C92.9085 44.0615 92.289 44.7234 91.6669 45.3575L90.9243 47.6764C90.7496 48.2653 90.6516 48.7575 90.6305 49.1502C90.608 49.5428 90.69 49.8493 90.8753 50.0668C91.0593 50.2857 91.3161 50.3945 91.6431 50.3945C92.0124 50.3945 92.3671 50.2923 92.7046 50.0841C93.0422 49.8758 93.3691 49.6145 93.6855 49.2974C94.0005 48.9817 94.2573 48.6593 94.4532 48.3317C94.5392 48.1791 94.6597 48.0703 94.8119 48.004ZM98.211 25.4539C97.9053 26.076 97.5783 26.9118 97.2302 27.9598L97.2328 27.9584L92.7007 42.1247C93.6418 41.0184 94.5419 39.8775 95.4022 38.7009C96.2944 37.4791 97.123 36.2507 97.8854 35.017C98.6478 33.7833 99.3176 32.5828 99.8947 31.4141C100.472 30.2467 100.918 29.1537 101.234 28.1388C101.549 27.124 101.708 26.2458 101.708 25.503C101.708 25.1103 101.659 24.7774 101.561 24.5041C101.463 24.2321 101.306 24.0239 101.087 23.8819C100.869 23.7413 100.607 23.6697 100.302 23.6697C99.9106 23.6697 99.54 23.8116 99.1919 24.0955C98.8424 24.3781 98.5155 24.8317 98.211 25.4539ZM106.396 50.4287C106.799 49.9923 107.143 49.5439 107.426 49.0863C107.535 48.8899 107.573 48.7148 107.54 48.5623C107.507 48.4097 107.381 48.2572 107.164 48.1033C106.925 47.972 106.729 47.9401 106.576 48.0051C106.424 48.0715 106.304 48.1802 106.216 48.3328C105.998 48.6392 105.737 48.9549 105.432 49.2826C105.126 49.6103 104.805 49.8782 104.468 50.0852C104.13 50.2934 103.786 50.3956 103.438 50.3956C102.959 50.3956 102.648 50.1661 102.506 49.7084C102.365 49.2494 102.436 48.5623 102.719 47.6456L106.771 35.3312C106.837 35.0699 106.809 34.8722 106.689 34.7422C106.569 34.6109 106.324 34.5459 105.954 34.5459C105.671 34.5459 105.458 34.595 105.316 34.6931C105.175 34.7913 105.049 34.9717 104.94 35.2331L101.085 47.188C100.541 48.7825 100.485 49.9711 100.922 50.7577C101.357 51.5444 102.109 51.937 103.176 51.937C103.83 51.937 104.428 51.7951 104.974 51.5112C105.518 51.2273 105.991 50.8678 106.395 50.4301L106.396 50.4287ZM108.373 25.7988C108.787 25.7988 109.114 25.897 109.353 26.0933L109.352 26.096C109.592 26.2923 109.712 26.5974 109.712 27.0126C109.712 27.5154 109.555 27.9784 109.238 28.4042C108.922 28.83 108.448 29.0423 107.817 29.0423C107.446 29.0423 107.142 28.9441 106.902 28.7478C106.661 28.5501 106.542 28.2556 106.542 27.8629C106.542 27.339 106.7 26.8641 107.016 26.4382C107.332 26.0111 107.785 25.7988 108.373 25.7988ZM112.374 51.1603L117.262 36.6067H122.164C122.491 36.6067 122.73 36.3334 122.883 35.7882C123.014 35.2868 122.916 35.0347 122.589 35.0347H117.785L120.268 27.2731C120.704 25.92 121.243 24.9702 121.886 24.4236C122.528 23.8784 123.297 23.6051 124.19 23.6051C124.822 23.6051 125.378 23.7365 125.857 23.9978C126.336 24.2605 126.74 24.5549 127.065 24.8826C127.218 24.9914 127.387 25.0458 127.572 25.0458C127.758 25.0458 127.927 24.9688 128.079 24.8163C128.275 24.6637 128.401 24.5059 128.455 24.3414C128.509 24.1782 128.46 23.9978 128.308 23.8015C127.981 23.365 127.48 22.9551 126.805 22.5731C126.13 22.191 125.312 22 124.353 22C123.481 22 122.671 22.1592 121.919 22.4749C121.167 22.792 120.513 23.2987 119.959 23.9978C119.403 24.6969 118.93 25.6241 118.537 26.7822L115.89 35.0347H112.753C112.382 35.0347 112.132 35.2974 112.001 35.8214C111.913 36.084 111.913 36.2804 112.001 36.4104C112.088 36.5417 112.207 36.6067 112.36 36.6067H115.399L110.739 50.6682C110.304 51.9125 112.046 52.207 112.373 51.159L112.374 51.1603ZM135.988 48.2166C136.032 48.4023 135.955 48.5933 135.759 48.7897H135.763C135.263 49.3362 134.658 49.8602 133.95 50.3616C133.242 50.8644 132.469 51.2624 131.629 51.5569C130.79 51.8514 129.891 51.9986 128.933 51.9986C128.213 51.9986 127.527 51.8726 126.873 51.6219C126.22 51.3711 125.625 51.0103 125.092 50.5407C124.727 50.2184 124.397 49.8522 124.103 49.4437C123.825 49.6002 123.546 49.7527 123.263 49.9013C122.009 50.5566 120.762 51.0634 119.521 51.4242C118.279 51.7837 117.092 51.9641 115.959 51.9641C115.784 51.9641 115.659 51.8832 115.583 51.7187C115.506 51.5555 115.49 51.3751 115.534 51.1788C115.577 50.9825 115.679 50.8021 115.843 50.6389C116.006 50.4757 116.219 50.3935 116.48 50.3935C117.505 50.3935 118.566 50.2144 119.666 49.8536C120.765 49.4941 121.866 49.0139 122.966 48.4129C123.102 48.3386 123.237 48.2617 123.372 48.1848C123.157 47.7138 122.983 47.2111 122.851 46.6765C122.655 45.8805 122.557 45.0342 122.557 44.1388C122.557 43.2871 122.655 42.4142 122.851 41.5188C123.048 40.6234 123.342 39.7505 123.734 38.8989C124.126 38.0472 124.617 37.2884 125.204 36.6225C125.793 35.9566 126.479 35.422 127.264 35.0174C128.048 34.6128 128.919 34.4111 129.878 34.4111C130.683 34.4111 131.353 34.5637 131.887 34.8688C132.421 35.1752 132.818 35.5957 133.08 36.1303C133.341 36.665 133.472 37.2818 133.472 37.9809C133.472 39.1828 133.166 40.3674 132.557 41.5347C131.947 42.7021 131.146 43.7992 130.155 44.8259C129.163 45.8527 128.069 46.8025 126.871 47.6754C126.459 47.9712 126.042 48.2551 125.619 48.5283C125.654 48.5774 125.69 48.6265 125.727 48.6743C126.163 49.2314 126.68 49.6572 127.28 49.9517C127.878 50.2462 128.495 50.3935 129.191 50.3935C129.887 50.3935 130.541 50.2794 131.152 50.0499C131.762 49.8204 132.356 49.4994 132.933 49.0842C133.51 48.669 134.082 48.2113 134.649 47.7085C134.866 47.5122 135.056 47.4299 135.22 47.4631C135.383 47.4963 135.542 47.5891 135.694 47.7417C135.847 47.873 135.944 48.0309 135.988 48.2166ZM124.696 46.6778C124.757 46.8662 124.823 47.0466 124.895 47.2217V47.2204C125.301 46.9391 125.697 46.6433 126.085 46.3329C127.043 45.6126 127.942 44.8153 128.781 43.9424C129.62 43.0696 130.307 42.1516 130.84 41.1912C131.374 40.2307 131.641 39.2478 131.641 38.2436C131.641 37.5232 131.467 36.9714 131.118 36.5893C130.769 36.2073 130.236 36.0163 129.517 36.0163C128.667 36.0163 127.92 36.2895 127.279 36.8348C126.635 37.3813 126.09 38.0751 125.644 38.9148C125.198 39.7558 124.864 40.6353 124.647 41.552C124.429 42.4686 124.32 43.3097 124.32 44.0738C124.32 45.0355 124.446 45.9031 124.696 46.6778Z" fill="#231F20"></path>
  <path d="M61.6226 63.575H59.2347V61.4326H58.4868V66.4457H59.2347V64.2038H61.6226V66.4457H62.3717V61.4326H61.6226V63.575Z" fill="#231F20"></path>
  <path d="M53.2139 62.068H54.6884V66.4457H55.4376V62.068H56.9188V61.4326H53.2139V62.068Z" fill="#231F20"></path>
  <path d="M70.5957 64.0898L69.7195 64.9043L68.3799 63.3469C68.2012 63.14 68.0093 62.8614 68.0093 62.6041C68.0093 62.2618 68.3018 61.9899 68.6645 61.9899C68.9994 61.9899 69.2774 62.2114 69.4561 62.5682L70.0332 62.2684C69.8479 61.8041 69.3555 61.3398 68.6288 61.3398C67.9021 61.3398 67.2681 61.8546 67.2681 62.5616C67.2681 62.9622 67.4031 63.1904 67.5527 63.4186L67.6519 63.5539L67.2244 63.9187C66.597 64.4825 66.4765 65.3898 67.0814 66.0756C67.6943 66.7615 68.8485 66.5758 69.3475 66.1393L69.6043 65.9112L70.053 66.4471H71.022L70.1457 65.419L71.0431 64.5766L70.5944 64.0911L70.5957 64.0898ZM68.8988 65.6246C68.6142 65.882 67.9789 66.0173 67.6162 65.6034C67.2747 65.2107 67.3673 64.696 67.6877 64.4108L68.0583 64.0898L69.1635 65.3898L68.9001 65.6259L68.8988 65.6246Z" fill="#231F20"></path>
  <path d="M36.1226 63.575H33.7347V61.4326H32.9868V66.4457H33.7347V64.2038H36.1226V66.4457H36.8704V61.4326H36.1226V63.575Z" fill="#231F20"></path>
  <path d="M39.6146 64.2038H41.4889V63.575H39.6146V62.068H41.882V61.4326H38.8667V66.4457H41.9746V65.8182H39.6146V64.2038Z" fill="#231F20"></path>
  <path d="M50.2843 61.4326H49.5352V66.4457H52.4856V65.8182H50.2843V61.4326Z" fill="#231F20"></path>
  <path d="M45.5382 61.375L43.2363 66.4464H44.0557L44.5256 65.425H46.785L47.2549 66.4464H48.0743L45.7936 61.375H45.5368H45.5382ZM44.7969 64.8028L45.6599 62.8024L46.515 64.8028H44.7969Z" fill="#231F20"></path>
  <path d="M78.0781 64.5095H79.0258V65.4739C78.7691 65.71 78.1919 65.8811 77.722 65.8811C76.5956 65.8811 75.812 65.06 75.812 63.9165C75.812 62.838 76.6168 61.9957 77.636 61.9957C78.3203 61.9957 78.7691 62.3246 79.0682 62.6032C79.2178 62.4241 79.3819 62.2464 79.5315 62.0673C79.1542 61.7171 78.5904 61.3311 77.6148 61.3311C76.2184 61.3311 74.9927 62.4095 74.9927 63.9311C74.9927 65.3744 76.1045 66.5457 77.6943 66.5457C78.4064 66.5457 79.1119 66.4104 79.7605 65.7817V63.8887H78.0781V64.5095Z" fill="#231F20"></path>
  <path d="M111.718 62.068H113.194V66.4457H113.942V62.068H115.424V61.4326H111.718V62.068Z" fill="#231F20"></path>
  <path d="M120.328 64.8522L117.163 61.3594L116.993 61.4164V66.4441H117.726V63.0375L120.891 66.5091L121.062 66.4587V61.431H120.328V64.8522Z" fill="#231F20"></path>
  <path d="M123.805 64.2038H125.68V63.575H123.805V62.068H126.072V61.4326H123.058V66.4457H126.164V65.8182H123.805V64.2038Z" fill="#231F20"></path>
  <path d="M129.592 63.5889C129.001 63.3673 128.544 63.1246 128.544 62.6895C128.544 62.2968 128.908 62.0036 129.477 62.0036C129.854 62.0036 130.318 62.1827 130.618 62.3459L130.86 61.7171C130.568 61.5605 129.94 61.3311 129.414 61.3311C128.323 61.3311 127.788 62.0315 127.788 62.6881C127.788 63.4244 128.287 63.8303 129.1 64.1885C129.784 64.4883 130.304 64.6952 130.304 65.1887C130.304 65.6105 129.827 65.8891 129.279 65.8891C128.758 65.8891 128.289 65.6397 128.011 65.4314L127.711 66.0098C128.025 66.2672 128.596 66.5378 129.322 66.5457C130.249 66.5524 131.032 66.0523 131.054 65.1741C131.068 64.5174 130.676 64.0094 129.592 63.5889Z" fill="#231F20"></path>
  <path d="M134.474 63.5889C133.882 63.3673 133.426 63.1246 133.426 62.6895C133.426 62.2968 133.79 62.0036 134.359 62.0036C134.736 62.0036 135.199 62.1827 135.499 62.3459L135.741 61.7171C135.448 61.5605 134.821 61.3311 134.294 61.3311C133.203 61.3311 132.669 62.0315 132.669 62.6881C132.669 63.4244 133.168 63.8303 133.98 64.1885C134.665 64.4883 135.185 64.6952 135.185 65.1887C135.185 65.6105 134.707 65.8891 134.159 65.8891C133.639 65.8891 133.169 65.6397 132.891 65.4314L132.592 66.0098C132.906 66.2672 133.476 66.5378 134.203 66.5457C135.129 66.5524 135.913 66.0523 135.934 65.1741C135.949 64.5174 135.557 64.0094 134.473 63.5889H134.474Z" fill="#231F20"></path>
  <path d="M83.231 63.5326L81.9272 61.4326H81.043L82.8325 64.3112V66.4457H83.5884V64.3112L85.3912 61.4326H84.5427L83.231 63.5326Z" fill="#231F20"></path>
  <path d="M89.2963 64.238L87.1016 61.3594L86.8872 61.4164V66.4441H87.6285V63.2086L89.2539 65.3523H89.332L90.9574 63.1807V66.4441H91.6987V61.4164L91.4843 61.3594L89.2963 64.238Z" fill="#231F20"></path>
  <path d="M99.9224 64.0898L99.0461 64.9043L97.7066 63.3469C97.5279 63.14 97.336 62.8614 97.336 62.6041C97.336 62.2618 97.6285 61.9899 97.9912 61.9899C98.3261 61.9899 98.604 62.2114 98.7827 62.5682L99.3598 62.2684C99.1745 61.8041 98.6821 61.3398 97.9554 61.3398C97.2288 61.3398 96.5947 61.8546 96.5947 62.5616C96.5947 62.9622 96.7297 63.1904 96.8793 63.4186L96.9786 63.5539L96.551 63.9187C95.9236 64.4825 95.8032 65.3898 96.4081 66.0756C97.0209 66.7615 98.1752 66.5758 98.6742 66.1393L98.931 65.9112L99.3797 66.4471H100.349L99.4724 65.419L100.37 64.5766L99.9211 64.0911L99.9224 64.0898ZM98.2268 65.6246C97.9422 65.882 97.3069 66.0173 96.9442 65.6034C96.6027 65.2107 96.6953 64.696 97.0157 64.4108L97.3863 64.0898L98.4915 65.3898L98.2281 65.6259L98.2268 65.6246Z" fill="#231F20"></path>
  <path d="M104.627 66.4457H105.375V64.2038H107.143V63.575H105.375V62.068H107.606V61.4326H104.627V66.4457Z" fill="#231F20"></path>
  <path d="M110.079 61.4326H109.331V66.447H110.079V61.4326Z" fill="#231F20"></path>
</svg>
