<?xml version="1.0" encoding="UTF-8"?>
<svg xmlns="http://www.w3.org/2000/svg" width="168" height="89" viewBox="0 0 168 89" fill="none">
  <path d="M64.8352 53.919V45.7315H59.4353V53.919H54.353V33.2432H59.4353V41.2013H64.8352V33.2432H69.9174V53.919H64.8352Z" fill="#231F20"></path>
  <path d="M81.5639 54.0962C77.2656 54.0962 73.75 51.1924 73.75 46.6635V33.2432H78.8322V46.5447C78.8322 48.4619 79.8779 49.5654 81.5639 49.5654C83.25 49.5654 84.3516 48.4619 84.3516 46.5447V33.2432H89.4338V46.6609C89.4344 51.1917 85.8623 54.0962 81.5639 54.0962Z" fill="#231F20"></path>
  <path d="M102.214 37.774V53.919H97.132V37.774H92.0498V33.2432H107.297V37.774H102.214Z" fill="#231F20"></path>
  <path d="M119.415 53.9205L118.457 50.842H112.096L111.079 53.9205H105.765L113.287 33.2422H117.208L124.73 53.9205H119.415ZM115.377 41.0879L113.518 46.6066H117.12L115.377 41.0879Z" fill="#231F20"></path>
  <path d="M129.615 53.9203V38.3274L125.2 42.1613V37.079L129.615 33.2451H134.379V53.9203H129.615Z" fill="#231F20"></path>
  <path d="M149.024 45.7324L145.046 53.9218H139.818L143.913 45.8188C143.537 45.9333 143.144 45.9826 142.752 45.9642C140.224 45.9642 137.233 43.8151 137.233 39.7201C137.233 35.3366 140.399 33.0693 144.116 33.0693C147.833 33.0693 151 35.3341 151 39.7201C150.999 41.8406 149.982 43.7865 149.024 45.7324ZM144.116 37.3683C142.954 37.3683 141.996 38.1814 141.996 39.7188C141.996 41.2562 142.954 42.0693 144.116 42.0693C145.277 42.0693 146.236 41.2555 146.236 39.7188C146.236 38.1821 145.277 37.3683 144.116 37.3683Z" fill="#231F20"></path>
  <path d="M36.562 47.4459H31.4854V27H26.4032V34.9575H21.3254V27H16.2432V47.6784H21.3254V39.4883H26.4026V60.1667H31.4848V51.9767H36.5613V60.1667H41.6436V39.4883H36.5613L36.562 47.4459Z" fill="#231F20"></path>
  <path d="M41.644 27H36.5618V34.9575H41.644V27Z" fill="#231F20"></path>
  <path d="M21.3254 52.21H16.2432V60.1675H21.3254V52.21Z" fill="#231F20"></path>
</svg>
