<?xml version="1.0" encoding="UTF-8"?>
<svg xmlns="http://www.w3.org/2000/svg" width="169" height="89" viewBox="0 0 169 89" fill="none">
  <path d="M6.41963 30.8326C5.68027 30.5051 4.78897 30.3409 3.74573 30.3402H0.369226C0.270763 30.3337 0.172891 30.3598 0.0909139 30.4145C0.0602361 30.4396 0.0360379 30.4718 0.0203292 30.5081C0.00462047 30.5445 -0.00214535 30.5841 0.000593673 30.6235C0.000593673 30.7678 0.0951149 30.8692 0.286258 30.9246L0.774617 31.0145C0.881268 31.0338 0.979677 31.0844 1.05713 31.1599C1.12141 31.2307 1.15533 31.3237 1.15165 31.4191V39.7429C1.15527 39.838 1.12134 39.9307 1.05713 40.0012C0.979774 40.077 0.881368 40.1279 0.774617 40.1475L0.286258 40.2416C0.0951149 40.2918 0.000593673 40.3942 0.000593673 40.5437C-0.000977554 40.5822 0.0063506 40.6205 0.0220118 40.6556C0.0376729 40.6908 0.0612477 40.7219 0.0909139 40.7466C0.172185 40.8028 0.270606 40.829 0.369226 40.8208H3.99149C4.09148 40.8297 4.19144 40.8034 4.274 40.7466C4.30255 40.7212 4.32508 40.6899 4.33997 40.6548C4.35486 40.6197 4.36175 40.5818 4.36012 40.5437C4.365 40.4674 4.33932 40.3922 4.28871 40.3347C4.2212 40.2771 4.13597 40.2443 4.04715 40.2416L3.28678 40.1517C3.1791 40.1409 3.07905 40.0915 3.00532 40.0127C2.94176 39.9389 2.90806 39.8442 2.9108 39.7471V36.9589C3.04103 37.0028 3.17441 37.0436 3.31724 37.0781C3.79902 37.191 4.29264 37.2461 4.78757 37.2422C5.4952 37.2574 6.19818 37.1249 6.85128 36.8533C7.40071 36.6245 7.874 36.2458 8.21659 35.7608C8.54653 35.2698 8.716 34.6892 8.7018 34.0986C8.7153 33.4075 8.51151 32.7295 8.11892 32.1593C7.72543 31.5962 7.159 31.1539 6.41963 30.8326ZM6.62968 35.4326C6.42042 35.808 6.10337 36.1126 5.71913 36.3076C5.30069 36.5149 4.83791 36.6179 4.37062 36.6077C4.1071 36.6081 3.84399 36.5867 3.584 36.5439C3.3551 36.5064 3.12987 36.4494 2.9108 36.3735V30.9476H3.70057C4.30305 30.9318 4.90002 31.0654 5.43766 31.3365C5.91008 31.5824 6.30077 31.9594 6.56247 32.4217C6.83445 32.9222 6.97056 33.4847 6.95735 34.0536C6.97074 34.5339 6.85778 35.0092 6.62968 35.4326ZM16.0261 31.1599C16.1011 31.0872 16.1949 31.0369 16.2971 31.0145L16.7939 30.9246C16.984 30.8692 17.0795 30.7678 17.0795 30.6173C17.0823 30.5782 17.0759 30.539 17.061 30.5027C17.0461 30.4665 17.0229 30.4341 16.9934 30.4082C16.9098 30.3538 16.8104 30.3287 16.7109 30.3371H13.3869C13.2864 30.3292 13.1861 30.3541 13.1012 30.4082C13.0706 30.4334 13.0464 30.4655 13.0306 30.5018C13.0149 30.5382 13.0082 30.5778 13.0109 30.6173C13.0109 30.7678 13.1086 30.8692 13.3039 30.9246L13.7923 31.0145C13.8982 31.0351 13.9959 31.0856 14.0738 31.1599C14.1068 31.1943 14.1326 31.235 14.1496 31.2795C14.1665 31.3241 14.1743 31.3715 14.1725 31.4191V39.7429C14.1743 39.7904 14.1665 39.8377 14.1495 39.8821C14.1326 39.9264 14.1068 39.9669 14.0738 40.0012C13.9968 40.0753 13.9003 40.126 13.7954 40.1475L13.3071 40.2374C13.1117 40.2918 13.0141 40.3942 13.0141 40.5437C13.0125 40.5822 13.0198 40.6205 13.0355 40.6556C13.0511 40.6908 13.0747 40.7219 13.1044 40.7466C13.1884 40.8028 13.2891 40.8289 13.39 40.8208H16.714C16.814 40.8293 16.9138 40.8031 16.9966 40.7466C17.0251 40.7212 17.0476 40.6899 17.0625 40.6548C17.0774 40.6197 17.0843 40.5818 17.0827 40.5437C17.0827 40.3942 16.9871 40.2918 16.797 40.2374L16.3002 40.1475C16.198 40.1248 16.1041 40.0741 16.0293 40.0012C15.9966 39.9667 15.9711 39.9262 15.9543 39.8818C15.9376 39.8375 15.9298 39.7903 15.9316 39.7429V31.4191C15.9299 31.3716 15.9376 31.3243 15.9544 31.2798C15.9711 31.2353 15.9966 31.1945 16.0293 31.1599M30.7515 31.6544C30.2787 31.1578 29.7061 30.766 29.0711 30.5044C27.6816 29.9633 26.1387 29.9606 24.7473 30.497C24.117 30.753 23.548 31.1385 23.0774 31.6282C22.6044 32.1213 22.2358 32.704 21.9936 33.3417C21.7342 34.0401 21.6057 34.78 21.6144 35.5246C21.6053 36.2876 21.7352 37.046 21.9978 37.7629C22.2379 38.4167 22.6072 39.016 23.0837 39.5255C23.5543 40.0218 24.1247 40.4137 24.7578 40.6755C25.4398 40.9542 26.1714 41.0929 26.9087 41.0832C27.6524 41.093 28.3907 40.957 29.0816 40.6828C29.7159 40.429 30.2887 40.0437 30.762 39.5527C31.2325 39.0583 31.5986 38.4749 31.8385 37.8371C32.0969 37.1402 32.2254 36.4022 32.2176 35.6594C32.226 34.8968 32.0976 34.1389 31.8385 33.4211C31.6002 32.7649 31.2304 32.1638 30.7515 31.6544ZM30.03 38.6651C29.8044 39.1964 29.4309 39.6523 28.9535 39.9792C28.4736 40.2912 27.9102 40.4516 27.3372 40.4392C26.9094 40.4397 26.4873 40.3413 26.1042 40.1517C25.6974 39.9475 25.3334 39.6679 25.0319 39.3279C24.693 38.9465 24.4101 38.5192 24.1917 38.0587C23.9443 37.5431 23.7589 37.0003 23.6393 36.4414C23.5063 35.8265 23.4408 35.1991 23.444 34.5701C23.444 33.7763 23.5717 33.0953 23.8273 32.5273C24.0508 31.9972 24.4226 31.5421 24.8985 31.2163C25.3724 30.9077 25.9287 30.7485 26.4949 30.7595C26.9257 30.7586 27.3507 30.8589 27.7352 31.0522C28.1418 31.2591 28.5064 31.5391 28.8107 31.8781C29.1519 32.2536 29.437 32.6761 29.6571 33.1326C29.9054 33.6468 30.0922 34.1882 30.2138 34.7457C30.3495 35.3578 30.4164 35.983 30.4133 36.6097C30.4133 37.4085 30.2855 38.0922 30.03 38.6609M45.0998 30.4531C45.0756 30.3319 45.0169 30.2202 44.9307 30.1311C44.845 30.0619 44.7363 30.0272 44.6262 30.0339C44.5319 30.0325 44.4393 30.0583 44.3594 30.1081C44.2817 30.1583 44.1945 30.2127 44.0958 30.2618C43.97 30.32 43.832 30.3469 43.6935 30.3402H38.3247C38.1873 30.3462 38.0505 30.3193 37.9257 30.2618C37.8352 30.2151 37.7472 30.1638 37.662 30.1081C37.5806 30.0566 37.4854 30.0308 37.389 30.0339C37.2788 30.0274 37.1702 30.062 37.0844 30.1311C36.9986 30.2204 36.94 30.3321 36.9153 30.4531L36.4049 32.8106C36.3816 32.9084 36.3905 33.011 36.4301 33.1033C36.4512 33.142 36.4813 33.175 36.5178 33.1998C36.5544 33.2245 36.5963 33.2402 36.6402 33.2455C36.7261 33.2662 36.8167 33.2555 36.8954 33.2152C36.9783 33.1654 37.0414 33.0886 37.0739 32.9977C37.2514 32.5541 37.4584 32.1228 37.6935 31.7066C37.8198 31.4691 38.0067 31.269 38.2355 31.1264C38.4542 31.02 38.6958 30.9687 38.9391 30.9769H40.1269V39.7429C40.1306 39.838 40.0966 39.9307 40.0324 40.0012C39.9553 40.0767 39.8573 40.1277 39.751 40.1475L39.2626 40.2374C39.0715 40.2918 38.9769 40.3942 38.9769 40.5437C38.9751 40.5822 38.9823 40.6206 38.998 40.6558C39.0137 40.691 39.0374 40.7221 39.0673 40.7466C39.1484 40.8023 39.2463 40.8285 39.3445 40.8208H42.6685C42.9143 40.8208 43.0371 40.7284 43.0371 40.5437C43.0371 40.3942 42.9416 40.2918 42.7515 40.2374L42.2621 40.1475C42.1575 40.126 42.0613 40.0753 41.9848 40.0012C41.9521 39.9667 41.9266 39.9262 41.9099 39.8818C41.8931 39.8375 41.8854 39.7903 41.8871 39.7429V30.9769H43.075C43.3207 30.9683 43.5647 31.0196 43.786 31.1264C44.0146 31.2688 44.2013 31.469 44.3268 31.7066C44.562 32.1219 44.767 32.5533 44.9402 32.9977C44.977 33.0876 45.0413 33.1637 45.124 33.2152C45.2014 33.2558 45.2911 33.2666 45.376 33.2455C45.4196 33.2392 45.4611 33.2231 45.4975 33.1985C45.5338 33.1738 45.5641 33.1413 45.5861 33.1033C45.6276 33.0113 45.6354 32.9077 45.6081 32.8106L45.0998 30.4531ZM59.4261 40.2301C59.2641 40.1975 59.1104 40.1324 58.9745 40.0388C58.8552 39.9463 58.7535 39.8334 58.6741 39.7053L56.6787 36.615C56.9845 36.5186 57.2757 36.3811 57.5441 36.2062C57.924 35.9577 58.237 35.6203 58.4557 35.2235C58.6751 34.8177 58.7865 34.3628 58.7791 33.9021C58.7886 33.2429 58.5842 32.5984 58.1963 32.0642C57.8077 31.5282 57.2398 31.1065 56.4928 30.7992C55.7457 30.4918 54.8355 30.3381 53.7622 30.3381H50.3268C50.2264 30.3302 50.1261 30.3552 50.0412 30.4092C50.0103 30.4342 49.9859 30.4663 49.9702 30.5027C49.9545 30.5391 49.9478 30.5788 49.9508 30.6183C49.9508 30.7689 50.0485 30.8703 50.2439 30.9257L50.7333 31.0156C50.8376 31.037 50.9338 31.0874 51.0105 31.1609C51.0432 31.1956 51.0687 31.2363 51.0854 31.2808C51.1022 31.3253 51.1099 31.3727 51.1082 31.4202V39.7429C51.11 39.7903 51.1023 39.8375 51.0855 39.8818C51.0687 39.9262 51.0432 39.9667 51.0105 40.0012C50.9339 40.075 50.8377 40.1258 50.7333 40.1475L50.2439 40.2416C50.0485 40.296 49.9508 40.3984 49.9508 40.5479C49.949 40.5864 49.9563 40.6248 49.9719 40.66C49.9876 40.6952 50.0113 40.7262 50.0412 40.7507C50.125 40.8074 50.2259 40.8336 50.3268 40.825H53.7926C54.037 40.825 54.1595 40.7326 54.1602 40.5479C54.163 40.4818 54.1418 40.4168 54.1003 40.365C54.0384 40.305 53.9616 40.2624 53.8777 40.2416L53.2087 40.1517C53.1117 40.1296 53.0237 40.0785 52.9566 40.0053C52.8976 39.9324 52.867 39.8407 52.8705 39.7471V36.6693L52.9566 36.6997C53.2225 36.7882 53.4955 36.8539 53.7727 36.8962C54.0765 36.9419 54.3833 36.9646 54.6906 36.9642C54.7956 36.9642 54.9006 36.9579 55.0056 36.9495L56.7711 39.8025C56.835 39.8864 56.867 39.9901 56.8614 40.0952C56.8467 40.1649 56.7816 40.2172 56.6661 40.2521L56.3877 40.3127C56.3223 40.3292 56.2618 40.3611 56.2113 40.4057C56.1929 40.4237 56.1784 40.4452 56.1686 40.4689C56.1589 40.4926 56.1541 40.5181 56.1546 40.5437C56.1546 40.7288 56.2806 40.8208 56.5306 40.8208H59.4639C59.5671 40.8285 59.67 40.8024 59.7569 40.7466C59.7884 40.7231 59.8138 40.6924 59.8308 40.6571C59.8478 40.6218 59.856 40.5829 59.8546 40.5437C59.8556 40.509 59.8487 40.4744 59.8343 40.4427C59.8199 40.411 59.7985 40.383 59.7716 40.3608C59.667 40.2933 59.5493 40.2488 59.4261 40.2301ZM54.4102 36.3369C54.1482 36.3372 53.8866 36.3172 53.6277 36.2773C53.3873 36.2413 53.1508 36.1836 52.9209 36.1048L52.8684 36.0849V30.9173H53.7086C54.3046 30.9023 54.895 31.0348 55.4268 31.3031C55.8944 31.5435 56.2832 31.9121 56.5474 32.3653C56.8157 32.8362 56.9521 33.3702 56.9423 33.9115C56.9423 34.6955 56.7179 35.2956 56.2691 35.7117C55.8203 36.1278 55.1999 36.3369 54.4081 36.339M80.2386 40.1998C80.0818 40.1718 79.9315 40.1151 79.7954 40.0325C79.6571 39.9397 79.5403 39.8185 79.453 39.6771L75.9326 34.2481L78.2915 31.9648C78.5173 31.7558 78.7021 31.5874 78.8481 31.4599C78.9941 31.3324 79.1148 31.2341 79.2125 31.164C79.2933 31.1038 79.3803 31.0523 79.4719 31.0104C79.5503 30.9793 79.6311 30.9548 79.7135 30.9372C79.8362 30.9085 79.9541 30.862 80.0632 30.7992C80.091 30.779 80.1134 30.7523 80.1284 30.7215C80.1434 30.6907 80.1506 30.6567 80.1493 30.6225C80.152 30.5826 80.1448 30.5427 80.1283 30.5062C80.1118 30.4697 80.0866 30.4379 80.0548 30.4134C79.9658 30.3591 79.8617 30.3342 79.7576 30.3423H77.006C76.9053 30.3359 76.8051 30.3608 76.7193 30.4134C76.6868 30.4374 76.6609 30.4691 76.6441 30.5056C76.6272 30.5422 76.6198 30.5824 76.6226 30.6225C76.6207 30.6879 76.6449 30.7514 76.6899 30.7992C76.7539 30.8565 76.8316 30.8965 76.9157 30.9152L77.3893 31.0125C77.4999 31.0369 77.5993 31.0972 77.6718 31.1839C77.6979 31.2243 77.7132 31.2706 77.7163 31.3186C77.7194 31.3665 77.7103 31.4144 77.6897 31.4578C77.6261 31.5982 77.5342 31.7242 77.4198 31.8279L73.0529 36.1142V31.4191C73.0511 31.3716 73.0589 31.3243 73.0757 31.2798C73.0924 31.2353 73.1179 31.1945 73.1506 31.1599C73.2277 31.0863 73.3242 31.0359 73.4289 31.0145L73.9183 30.9246C74.1084 30.8692 74.2029 30.7678 74.2029 30.6173C74.2059 30.5782 74.1997 30.5389 74.1847 30.5026C74.1698 30.4663 74.1465 30.434 74.1168 30.4082C74.0324 30.354 73.932 30.3301 73.8322 30.3402H70.5113C70.4132 30.3329 70.3154 30.3579 70.233 30.4113C70.2023 30.4365 70.1781 30.4686 70.1624 30.505C70.1467 30.5413 70.1399 30.5809 70.1427 30.6204C70.1427 30.771 70.2383 30.8724 70.4284 30.9278L70.9178 31.0177C71.0239 31.0374 71.1219 31.088 71.1992 31.163C71.2635 31.2338 71.2974 31.3269 71.2937 31.4223V39.7429C71.2974 39.838 71.2634 39.9307 71.1992 40.0012C71.122 40.0765 71.024 40.1274 70.9178 40.1475L70.4284 40.2374C70.2383 40.2918 70.1427 40.3942 70.1427 40.5437C70.1411 40.5822 70.1484 40.6205 70.1641 40.6556C70.1798 40.6908 70.2033 40.7219 70.233 40.7466C70.3143 40.8026 70.4127 40.8289 70.5113 40.8208H73.7755C73.8752 40.8302 73.975 40.8039 74.0569 40.7466C74.0858 40.7214 74.1086 40.6901 74.1237 40.655C74.1387 40.6199 74.1457 40.5819 74.1441 40.5437C74.1465 40.4775 74.1249 40.4125 74.0832 40.3608C74.02 40.3016 73.942 40.2604 73.8574 40.2416L73.3995 40.1517C73.2996 40.1308 73.2086 40.0797 73.139 40.0053C73.08 39.9324 73.0494 39.8407 73.0529 39.7471V37.03L74.6503 35.4849L77.3809 39.676C77.4565 39.7701 77.5009 39.8851 77.508 40.0053C77.5006 40.0848 77.4387 40.1402 77.3231 40.1695L76.8421 40.2521C76.7631 40.265 76.6899 40.3014 76.6321 40.3566C76.5844 40.4068 76.5587 40.4737 76.5607 40.5427C76.5592 40.5815 76.567 40.6202 76.5834 40.6554C76.5998 40.6907 76.6244 40.7216 76.6552 40.7455C76.7429 40.8024 76.8471 40.8285 76.9514 40.8197H80.2806C80.3847 40.8269 80.4885 40.8009 80.5768 40.7455C80.6092 40.7244 80.6358 40.6955 80.6541 40.6616C80.6725 40.6276 80.682 40.5896 80.6818 40.5511C80.6826 40.5131 80.6753 40.4755 80.6605 40.4405C80.6456 40.4056 80.6236 40.3741 80.5957 40.3482C80.4894 40.2726 80.3674 40.2218 80.2386 40.1998ZM94.2939 30.4145C94.2138 30.359 94.1171 30.3325 94.0198 30.3392H91.3427C91.2465 30.3335 91.1512 30.36 91.0718 30.4145C91.0402 30.4376 91.0148 30.4681 90.9978 30.5033C90.9808 30.5384 90.9726 30.5772 90.9741 30.6162C90.9732 30.651 90.9793 30.6856 90.9921 30.7179C91.0049 30.7502 91.0242 30.7797 91.0487 30.8044C91.1314 30.8715 91.2295 30.9172 91.3343 30.9372L91.7481 31.0051C91.9128 31.0256 92.0662 31.099 92.185 31.2142C92.282 31.3371 92.3349 31.4887 92.3352 31.6449L92.5988 36.4132C92.6135 36.6132 92.6258 36.8279 92.6356 37.0572C92.6461 37.2861 92.6555 37.5705 92.666 37.9103C92.6979 38.3687 92.5918 38.8262 92.3615 39.2244C92.1319 39.5964 91.7953 39.8911 91.3952 40.0702C90.9167 40.2787 90.3978 40.3798 89.8756 40.366C89.013 40.366 88.3377 40.1514 87.8497 39.722C87.3616 39.2927 87.1295 38.6463 87.1534 37.7827C87.1534 37.5339 87.166 37.26 87.1754 36.9673C87.1849 36.6746 87.2006 36.34 87.2216 35.9793L87.4695 31.4724C87.4668 31.3524 87.51 31.2359 87.5902 31.1463C87.6899 31.0638 87.8113 31.0119 87.94 30.9968L88.3601 30.9215C88.4626 30.9101 88.5602 30.8715 88.6426 30.8096C88.6688 30.7844 88.6893 30.7539 88.7029 30.7202C88.7165 30.6866 88.7228 30.6504 88.7214 30.6141C88.7228 30.5755 88.7149 30.537 88.6985 30.5019C88.6821 30.4669 88.6575 30.4362 88.6268 30.4124C88.5467 30.3571 88.45 30.3306 88.3527 30.3371H84.7998C84.7012 30.3308 84.6033 30.3572 84.5215 30.4124C84.49 30.4356 84.4647 30.4662 84.4477 30.5013C84.4307 30.5364 84.4225 30.5752 84.4238 30.6141C84.4238 30.7737 84.5467 30.8783 84.7924 30.9278L85.2062 30.9957C85.3485 31.0114 85.4833 31.0673 85.5948 31.1567C85.6367 31.1983 85.6681 31.2491 85.6863 31.3051C85.7046 31.3611 85.7092 31.4206 85.6998 31.4787L85.4541 36.0076C85.4436 36.2613 85.431 36.5097 85.4163 36.753C85.4016 36.9945 85.389 37.2182 85.3785 37.4221C85.3679 37.6259 85.3616 37.7974 85.3564 37.9312C85.3293 38.5168 85.486 39.0963 85.8048 39.5893C86.1157 40.0618 86.5834 40.4274 87.208 40.6859C87.8325 40.9445 88.6041 41.0752 89.5227 41.078C90.3944 41.078 91.1211 40.9417 91.703 40.6692C92.241 40.4353 92.6948 40.0441 93.0042 39.5474C93.295 39.0526 93.4334 38.4837 93.4023 37.9113C93.3925 37.6521 93.3812 37.4025 93.3686 37.1628C93.356 36.923 93.3424 36.6791 93.3277 36.431L93.0567 31.6847C93.0389 31.5299 93.0761 31.3738 93.1617 31.2435C93.2447 31.1285 93.4033 31.0459 93.6396 30.9957L94.0271 30.9372C94.1313 30.921 94.2294 30.8782 94.3118 30.8128C94.3381 30.7876 94.3588 30.7572 94.3725 30.7235C94.3863 30.6898 94.3928 30.6536 94.3916 30.6173C94.393 30.5786 94.3851 30.5401 94.3687 30.5051C94.3523 30.47 94.3277 30.4393 94.2971 30.4155M108.28 40.2301C108.118 40.1977 107.964 40.1326 107.828 40.0388C107.709 39.9464 107.607 39.8334 107.527 39.7053L105.526 36.615C105.831 36.5185 106.122 36.3809 106.389 36.2062C106.771 35.9592 107.086 35.6224 107.306 35.2256C107.526 34.8198 107.637 34.3649 107.63 33.9041C107.64 33.2451 107.436 32.6006 107.048 32.0663C106.659 31.5303 106.092 31.1086 105.344 30.8013C104.597 30.4939 103.687 30.3402 102.614 30.3402H99.1786C99.0781 30.3323 98.9778 30.3573 98.8929 30.4113C98.862 30.4363 98.8377 30.4684 98.8219 30.5048C98.8062 30.5412 98.7996 30.5809 98.8026 30.6204C98.8026 30.771 98.9002 30.8724 99.0956 30.9278L99.585 31.0177C99.6897 31.0391 99.7861 31.0894 99.8633 31.163C99.9286 31.2333 99.9634 31.3265 99.9599 31.4223V39.7429C99.9633 39.8383 99.9286 39.9312 99.8633 40.0012C99.7862 40.0751 99.6898 40.1258 99.585 40.1475L99.0956 40.2374C98.9002 40.2918 98.8026 40.3942 98.8026 40.5437C98.8007 40.5822 98.808 40.6206 98.8236 40.6558C98.8393 40.691 98.863 40.7221 98.8929 40.7466C98.9767 40.8032 99.0776 40.8294 99.1786 40.8208H102.644C102.89 40.8208 103.013 40.7284 103.013 40.5437C103.015 40.4777 102.994 40.4129 102.953 40.3608C102.89 40.302 102.812 40.2609 102.727 40.2416L102.058 40.1517C101.961 40.1296 101.873 40.0785 101.806 40.0053C101.747 39.9324 101.717 39.8407 101.72 39.7471V36.6693L101.806 36.6997C102.072 36.7881 102.345 36.8538 102.622 36.8962C102.926 36.9419 103.233 36.9646 103.54 36.9642C103.645 36.9642 103.75 36.9579 103.855 36.9495L105.623 39.8025C105.687 39.8864 105.719 39.99 105.714 40.0952C105.698 40.1653 105.633 40.2176 105.518 40.2521L105.241 40.3127C105.175 40.329 105.114 40.3609 105.063 40.4057C105.045 40.4237 105.03 40.4452 105.02 40.4689C105.011 40.4926 105.006 40.5181 105.006 40.5437C105.006 40.7284 105.132 40.8208 105.383 40.8208H108.316C108.419 40.8285 108.522 40.8024 108.609 40.7466C108.64 40.7231 108.665 40.6924 108.682 40.6571C108.699 40.6218 108.708 40.5829 108.706 40.5437C108.707 40.5091 108.7 40.4747 108.686 40.443C108.672 40.4114 108.651 40.3833 108.624 40.3608C108.52 40.2935 108.402 40.249 108.279 40.2301M103.262 36.3369C103 36.3372 102.738 36.3172 102.479 36.2773C102.238 36.2414 102 36.1837 101.768 36.1048L101.716 36.0849V30.9173H102.556C103.152 30.9021 103.743 31.0347 104.274 31.3031C104.742 31.5438 105.131 31.9123 105.396 32.3653C105.664 32.8364 105.8 33.3703 105.79 33.9115C105.79 34.6955 105.565 35.2956 105.117 35.7117C104.668 36.1278 104.047 36.3369 103.256 36.339M119.006 30.8326C118.267 30.5085 117.376 30.3462 116.333 30.3455H112.956C112.858 30.338 112.76 30.363 112.678 30.4166C112.647 30.4416 112.623 30.4736 112.607 30.5101C112.592 30.5465 112.585 30.5861 112.588 30.6256C112.588 30.7762 112.682 30.8776 112.874 30.933L113.362 31.0229C113.468 31.0424 113.566 31.093 113.643 31.1682C113.708 31.2391 113.742 31.3321 113.738 31.4275V39.7429C113.742 39.838 113.708 39.9307 113.643 40.0012C113.566 40.0767 113.468 40.1277 113.362 40.1475L112.874 40.2374C112.682 40.2918 112.588 40.3942 112.588 40.5437C112.586 40.5822 112.593 40.6206 112.609 40.6558C112.625 40.691 112.648 40.7221 112.678 40.7466C112.759 40.8029 112.857 40.8292 112.956 40.8208H116.577C116.676 40.8302 116.776 40.8039 116.858 40.7466C116.887 40.7214 116.91 40.69 116.924 40.6549C116.939 40.6198 116.946 40.5818 116.944 40.5437C116.949 40.4674 116.924 40.3922 116.873 40.3347C116.808 40.2765 116.724 40.2422 116.637 40.2374L115.877 40.1475C115.77 40.1368 115.67 40.0873 115.596 40.0085C115.532 39.9347 115.499 39.8401 115.501 39.7429V36.9589C115.632 37.0028 115.765 37.0436 115.907 37.0781C116.388 37.1909 116.882 37.246 117.377 37.2422C118.085 37.2576 118.788 37.1251 119.441 36.8533C119.99 36.6241 120.463 36.2455 120.806 35.7608C121.136 35.2698 121.305 34.6892 121.291 34.0986C121.302 33.4066 121.096 32.7285 120.7 32.1593C120.311 31.5962 119.746 31.1539 119.006 30.8326ZM119.216 35.4326C119.007 35.808 118.69 36.1126 118.305 36.3076C117.887 36.5149 117.423 36.6179 116.956 36.6077C116.693 36.6081 116.43 36.5867 116.17 36.5439C115.941 36.5072 115.716 36.4509 115.497 36.3756V30.9476H116.286C116.889 30.9317 117.486 31.0653 118.024 31.3365C118.496 31.5822 118.887 31.9592 119.148 32.4217C119.42 32.922 119.556 33.4847 119.543 34.0536C119.556 34.5336 119.444 35.0089 119.217 35.4326M128.613 31.1599C128.688 31.0874 128.782 31.0371 128.883 31.0145L129.38 30.9246C129.57 30.8692 129.666 30.7678 129.666 30.6173C129.669 30.5781 129.663 30.5387 129.647 30.5023C129.632 30.466 129.609 30.4337 129.579 30.4082C129.495 30.3538 129.396 30.3287 129.297 30.3371H125.973C125.873 30.3292 125.772 30.3541 125.688 30.4082C125.657 30.4334 125.633 30.4655 125.617 30.5018C125.601 30.5382 125.594 30.5778 125.597 30.6173C125.597 30.7678 125.695 30.8692 125.89 30.9246L126.38 31.0145C126.484 31.0359 126.581 31.0863 126.658 31.1599C126.691 31.1945 126.716 31.2353 126.733 31.2798C126.75 31.3243 126.757 31.3716 126.756 31.4191V39.7429C126.757 39.7903 126.75 39.8375 126.733 39.8818C126.716 39.9262 126.691 39.9667 126.658 40.0012C126.581 40.0751 126.484 40.1258 126.38 40.1475L125.89 40.2374C125.695 40.2918 125.597 40.3942 125.597 40.5437C125.596 40.5822 125.603 40.6205 125.619 40.6556C125.634 40.6908 125.658 40.7219 125.688 40.7466C125.772 40.8028 125.872 40.8289 125.973 40.8208H129.297C129.397 40.8294 129.496 40.8032 129.579 40.7466C129.608 40.7215 129.631 40.6903 129.646 40.6552C129.661 40.62 129.668 40.5819 129.666 40.5437C129.666 40.3942 129.57 40.2918 129.38 40.2374L128.883 40.1475C128.782 40.1246 128.688 40.0739 128.613 40.0012C128.58 39.9669 128.555 39.9264 128.538 39.8821C128.521 39.8377 128.513 39.7904 128.515 39.7429V31.4191C128.513 31.3715 128.521 31.3241 128.538 31.2795C128.555 31.235 128.58 31.1943 128.613 31.1599ZM143.631 40.2228C143.478 40.1954 143.336 40.1225 143.225 40.0137C143.113 39.8795 143.03 39.7226 142.984 39.5537L140.194 31.3658C140.151 31.267 140.142 31.1567 140.168 31.0522C140.195 30.9895 140.283 30.9476 140.428 30.9142C140.529 30.8973 140.624 30.856 140.706 30.794C140.733 30.7696 140.755 30.7395 140.769 30.7059C140.783 30.6723 140.79 30.636 140.789 30.5995C140.79 30.5624 140.782 30.5256 140.765 30.4922C140.749 30.4589 140.725 30.4301 140.694 30.4082C140.605 30.354 140.501 30.3291 140.397 30.3371H137.276C137.173 30.3301 137.071 30.3549 136.983 30.4082C136.951 30.4307 136.926 30.4606 136.909 30.4952C136.892 30.5299 136.884 30.5683 136.885 30.6068C136.885 30.641 136.893 30.6747 136.907 30.7057C136.921 30.7368 136.942 30.7644 136.968 30.7866C137.056 30.8539 137.158 30.901 137.266 30.9246C137.447 30.9696 137.554 31.0292 137.581 31.1076C137.609 31.186 137.6 31.3167 137.539 31.4934L134.893 39.3467C134.839 39.5458 134.759 39.7371 134.656 39.9154C134.573 40.0279 134.459 40.1137 134.328 40.1622L134.042 40.2594C133.96 40.2874 133.884 40.3323 133.821 40.3911C133.782 40.4357 133.762 40.4932 133.764 40.5521C133.763 40.5897 133.771 40.6269 133.788 40.6607C133.804 40.6945 133.828 40.7239 133.858 40.7466C133.944 40.8024 134.046 40.8285 134.148 40.8208H136.479C136.582 40.8294 136.686 40.8032 136.773 40.7466C136.802 40.7219 136.826 40.6907 136.841 40.6555C136.857 40.6204 136.864 40.5821 136.862 40.5437C136.864 40.5117 136.859 40.4796 136.847 40.4498C136.835 40.4201 136.816 40.3936 136.792 40.3723C136.725 40.3232 136.649 40.2877 136.569 40.2677L136.065 40.1778C135.942 40.1382 135.828 40.0742 135.731 39.9897C135.695 39.9528 135.667 39.9088 135.649 39.8606C135.631 39.8123 135.623 39.7609 135.626 39.7095C135.633 39.5573 135.663 39.4071 135.716 39.2641L136.376 37.2956H140.383L141.161 39.6081C141.21 39.7364 141.239 39.8714 141.248 40.0085C141.248 40.0911 141.179 40.1475 141.048 40.1778L140.515 40.2594C140.433 40.2799 140.357 40.3185 140.292 40.3723C140.269 40.3942 140.25 40.4208 140.238 40.4504C140.226 40.4799 140.22 40.5118 140.221 40.5437C140.219 40.5826 140.227 40.6212 140.243 40.6565C140.26 40.6917 140.284 40.7226 140.315 40.7466C140.401 40.8026 140.503 40.8287 140.605 40.8208H143.598C143.701 40.828 143.804 40.8019 143.891 40.7466C143.923 40.7231 143.948 40.6924 143.965 40.6571C143.982 40.6218 143.99 40.5829 143.989 40.5437C143.99 40.51 143.984 40.4764 143.972 40.445C143.96 40.4135 143.941 40.3849 143.918 40.3608C143.834 40.2953 143.738 40.2483 143.635 40.2228M136.591 36.6516L138.376 31.3198L140.162 36.6516H136.591ZM154.528 30.519C154.505 30.4076 154.455 30.3035 154.382 30.2158C154.355 30.1883 154.322 30.1665 154.286 30.1517C154.25 30.137 154.211 30.1296 154.172 30.1301C154.116 30.1249 154.061 30.1377 154.013 30.1668C153.966 30.1958 153.929 30.2394 153.908 30.2911C153.863 30.3956 153.822 30.5002 153.784 30.6047C153.771 30.6522 153.742 30.6938 153.702 30.7225C153.661 30.7512 153.612 30.7654 153.563 30.7626C153.403 30.748 153.249 30.6938 153.115 30.6047C152.883 30.4794 152.64 30.3744 152.39 30.2911C152.016 30.1764 151.626 30.1234 151.235 30.1343C150.638 30.121 150.047 30.2467 149.508 30.5012C149.035 30.7277 148.634 31.0815 148.353 31.5226C148.07 31.9858 147.927 32.5198 147.94 33.0615C147.927 33.5551 148.03 34.0449 148.241 34.4917C148.472 34.935 148.811 35.3136 149.226 35.5925C149.784 35.9638 150.392 36.2535 151.032 36.4529C151.784 36.708 152.354 36.9565 152.743 37.1983C153.13 37.4409 153.396 37.6907 153.536 37.951C153.676 38.2109 153.748 38.5018 153.746 38.7968C153.752 39.017 153.712 39.2361 153.629 39.4404C153.547 39.6446 153.422 39.8295 153.264 39.9834C152.948 40.2855 152.508 40.4361 151.948 40.4361C151.552 40.4363 151.16 40.3614 150.792 40.2155C150.393 40.0534 150.031 39.8127 149.727 39.5077C149.358 39.1314 149.054 38.696 148.829 38.2197C148.79 38.1283 148.723 38.0513 148.637 37.9991C148.597 37.9804 148.553 37.9697 148.509 37.9677C148.464 37.9657 148.42 37.9725 148.378 37.9876C148.297 38.0154 148.228 38.0696 148.183 38.1413C148.142 38.213 148.131 38.2979 148.152 38.3776L148.709 40.7351C148.723 40.8279 148.764 40.9148 148.825 40.986C148.853 41.0131 148.886 41.0341 148.922 41.0478C148.958 41.0615 148.997 41.0675 149.035 41.0654C149.075 41.0666 149.114 41.0583 149.149 41.0411C149.184 41.024 149.215 40.9986 149.238 40.9671C149.292 40.8967 149.337 40.8202 149.374 40.7392C149.41 40.6584 149.455 40.5819 149.509 40.5113C149.532 40.48 149.563 40.4548 149.598 40.4379C149.634 40.421 149.673 40.4128 149.712 40.4141C149.861 40.4378 150.004 40.4923 150.132 40.5741C150.381 40.7037 150.64 40.8128 150.907 40.9002C151.275 41.0177 151.659 41.0735 152.045 41.0654C152.727 41.0654 153.305 40.9393 153.779 40.687C154.224 40.4623 154.598 40.1179 154.856 39.6929C155.115 39.2679 155.248 38.7793 155.242 38.2825C155.256 37.8231 155.158 37.3674 154.957 36.9537C154.724 36.5262 154.388 36.1633 153.979 35.8978C153.402 35.5214 152.78 35.2183 152.128 34.9956C151.554 34.7978 151.005 34.5369 150.489 34.2178C150.107 33.9627 149.844 33.6992 149.699 33.4274C149.555 33.1593 149.48 32.8597 149.481 32.5555C149.481 32.021 149.653 31.5906 149.996 31.2644C150.34 30.9382 150.798 30.7748 151.369 30.7741C151.771 30.7744 152.17 30.8532 152.542 31.0062C152.955 31.1826 153.327 31.4413 153.636 31.7662C154.033 32.1895 154.36 32.6734 154.603 33.1995C154.641 33.2878 154.707 33.3613 154.791 33.4086C154.832 33.4276 154.877 33.4382 154.922 33.44C154.967 33.4417 155.013 33.4345 155.055 33.4188C155.098 33.403 155.137 33.3791 155.17 33.3483C155.204 33.3175 155.231 33.2804 155.25 33.2392C155.29 33.1491 155.292 33.0469 155.257 32.9549L154.528 30.519ZM168.005 37.8528C167.985 37.8154 167.956 37.7837 167.921 37.7608C167.885 37.7379 167.844 37.7246 167.802 37.7221C167.719 37.7008 167.631 37.709 167.553 37.7451C167.475 37.7895 167.416 37.8615 167.388 37.9469L167.155 38.5741C167.045 38.8627 166.913 39.1423 166.76 39.4105C166.653 39.6013 166.51 39.7701 166.34 39.9081C166.186 40.0267 166.006 40.1085 165.815 40.1475C165.589 40.193 165.358 40.2144 165.127 40.2113H161.654L167.602 31.1609C167.66 31.0747 167.708 30.9834 167.748 30.888C167.779 30.8179 167.795 30.7427 167.798 30.6664C167.799 30.6224 167.79 30.5787 167.772 30.5386C167.753 30.4985 167.726 30.4628 167.693 30.4343C167.606 30.3684 167.497 30.3364 167.388 30.3444H161.861C161.731 30.3495 161.602 30.3199 161.488 30.2587C161.391 30.2012 161.301 30.1437 161.218 30.0862C161.14 30.0311 161.047 30.0011 160.951 30.0005C160.896 29.9978 160.841 30.0064 160.789 30.0256C160.737 30.0448 160.69 30.0743 160.65 30.1123C160.562 30.2135 160.502 30.3361 160.477 30.4678L160.026 32.5869C159.998 32.692 160.01 32.8037 160.06 32.9005C160.083 32.9389 160.116 32.9713 160.154 32.9953C160.193 33.0192 160.236 33.034 160.281 33.0385C160.367 33.0547 160.456 33.0418 160.533 33.0019C160.623 32.9482 160.693 32.8667 160.733 32.7698L160.951 32.1854C161.045 31.9202 161.183 31.6728 161.36 31.4536C161.501 31.2857 161.681 31.1547 161.885 31.072C162.096 30.9919 162.321 30.9525 162.548 30.956H165.742L159.77 40.0325C159.717 40.1128 159.672 40.1978 159.635 40.2866C159.606 40.3553 159.59 40.4292 159.589 40.504C159.587 40.5469 159.595 40.5897 159.613 40.6291C159.63 40.6686 159.655 40.7037 159.688 40.7319C159.777 40.7966 159.886 40.8271 159.996 40.8177H166.11C166.244 40.812 166.377 40.8352 166.501 40.8856C166.596 40.9306 166.682 40.9755 166.76 41.0205C166.837 41.0649 166.924 41.088 167.012 41.0874C167.068 41.0915 167.124 41.0836 167.177 41.0643C167.229 41.045 167.277 41.0147 167.317 40.9755C167.394 40.8799 167.447 40.7668 167.471 40.6462L168.028 38.1225C168.049 38.0314 168.041 37.9359 168.005 37.8496" fill="#231F20"></path>
  <path d="M28.6532 49.0844H25.7871V51.1617H28.5692V51.8956H25.7871V54.6127H28.6532V55.3466H25.0078V48.3505H28.6532V49.0844ZM32.2156 50.9933L33.5221 53.931L34.8286 50.9933H35.6719L33.5221 55.6299L31.3722 50.9933H32.2156ZM42.4585 54.2353C42.32 54.498 42.1378 54.7355 41.9198 54.9378C41.5203 55.292 41.0011 55.4828 40.4662 55.472C39.416 55.472 38.3059 54.8113 38.3059 53.1961C38.3059 51.8956 39.1072 50.8888 40.4242 50.8888C41.2781 50.8888 41.8147 51.307 42.0783 51.6854C42.342 52.0639 42.511 52.7455 42.489 53.3226H39.0862C39.0967 54.2238 39.7164 54.8008 40.4767 54.8008C40.804 54.8097 41.123 54.698 41.3726 54.4872C41.5655 54.3232 41.72 54.1191 41.8252 53.8892L42.4585 54.2353ZM41.7097 52.6932C41.5826 52.0116 41.067 51.56 40.4242 51.56C39.7815 51.56 39.2543 52.043 39.1387 52.6932H41.7097ZM45.7573 50.9933H46.5156V51.4659C46.5891 51.3498 46.9157 50.8888 47.506 50.8888C47.7411 50.8982 47.9712 50.9588 48.1802 51.0665L47.821 51.7492C47.6924 51.6559 47.538 51.6044 47.3789 51.6018C47.2627 51.596 47.1469 51.6177 47.0408 51.6651C46.9347 51.7126 46.8415 51.7844 46.7687 51.8746C46.6416 52.043 46.5156 52.3357 46.5156 53.0497V55.3497H45.7573V50.9933ZM52.6899 54.9378L50.6777 50.9933H51.541L53.0911 54.1088L54.5131 50.9933H55.3565L52.1428 57.7584H51.2994L52.6899 54.9378ZM61.6159 47.7002H62.3742V55.3466H61.6159V54.7381C61.4417 54.9685 61.2154 55.1548 60.9554 55.282C60.6954 55.4091 60.409 55.4735 60.1193 55.4699C59.0134 55.4699 57.9905 54.6942 57.9905 53.1626C57.9905 51.6624 59.0018 50.8867 60.1193 50.8867C60.4087 50.8793 60.6957 50.9412 60.9561 51.0671C61.2165 51.1929 61.4427 51.3792 61.6159 51.6101V47.7002ZM58.7708 53.1647C58.7708 54.0983 59.2959 54.8008 60.2033 54.8008C61.1307 54.8008 61.6579 54.0356 61.6579 53.1752C61.6579 52.0534 60.8776 51.56 60.2033 51.56C59.4555 51.56 58.7708 52.1057 58.7708 53.1647ZM69.2658 50.9933H70.0241V55.3466H69.2658V54.7381C69.0917 54.9684 68.8656 55.1546 68.6058 55.2818C68.346 55.4089 68.0598 55.4733 67.7703 55.4699C66.6633 55.4699 65.6404 54.6942 65.6404 53.1626C65.6404 51.6624 66.6528 50.8867 67.7703 50.8867C68.0595 50.8793 68.3463 50.9412 68.6066 51.0671C68.8668 51.193 69.0929 51.3792 69.2658 51.6101V50.9933ZM66.4207 53.1647C66.4207 54.0983 66.9458 54.8008 67.8532 54.8008C68.7816 54.8008 69.3078 54.0356 69.3078 53.1752C69.3078 52.0534 68.5275 51.56 67.8532 51.56C67.1055 51.56 66.4207 52.1057 66.4207 53.1647ZM74.9455 54.9378L72.9332 50.9933H73.7976L75.3456 54.1088L76.7687 50.9933H77.611L74.3973 57.7584H73.555L74.9455 54.9378ZM86.4004 48.3505C86.8741 48.3505 87.5809 48.3818 88.107 48.7383C88.5177 49.0112 88.8769 49.5464 88.8769 50.2908C88.8769 51.3613 88.17 52.1475 87.1062 52.2207L89.34 55.3466H88.3948L86.2555 52.2834H86.0559V55.3466H85.2756V48.3505H86.4004ZM86.0528 51.5913H86.5485C87.5168 51.5913 88.0965 51.1303 88.0965 50.3117C88.0965 49.9238 87.981 49.536 87.5378 49.284C87.2227 49.1063 86.8636 49.0844 86.5264 49.0844H86.0528V51.5913ZM96.1476 54.2353C96.0095 54.4979 95.8277 54.7355 95.6099 54.9378C95.2103 55.2918 94.6912 55.4826 94.1564 55.472C93.1062 55.472 91.9961 54.8113 91.9961 53.1961C91.9961 51.8956 92.7974 50.8888 94.1144 50.8888C94.9672 50.8888 95.5049 51.307 95.7674 51.6854C96.03 52.0639 96.2001 52.7455 96.1791 53.3226H92.7753C92.7858 54.2238 93.4055 54.8008 94.1669 54.8008C94.4941 54.8093 94.8129 54.6977 95.0627 54.4872C95.2554 54.3229 95.4098 54.1188 95.5154 53.8892L96.1476 54.2353ZM95.3999 52.6932C95.2728 52.0116 94.7561 51.56 94.1144 51.56C93.4727 51.56 92.9444 52.043 92.8278 52.6932H95.3999ZM101.243 52.0001C101.198 51.8742 101.115 51.7649 101.006 51.6864C100.897 51.608 100.767 51.5639 100.632 51.56C100.359 51.56 100.107 51.7178 100.107 52.0534C100.107 52.367 100.317 52.4622 100.814 52.6713C101.444 52.9337 101.741 53.1334 101.909 53.3435C102.072 53.5408 102.154 53.7913 102.141 54.046C102.141 54.9587 101.478 55.472 100.634 55.472C100.293 55.4784 99.9584 55.3732 99.6826 55.1725C99.4068 54.9718 99.2047 54.6866 99.1072 54.3607L99.7604 54.0878C99.8445 54.3189 100.098 54.8008 100.646 54.8008C100.739 54.8061 100.833 54.7919 100.921 54.7593C101.009 54.7266 101.089 54.6762 101.156 54.6111C101.223 54.546 101.276 54.4678 101.311 54.3813C101.347 54.2949 101.364 54.202 101.361 54.1088C101.361 53.7 101.066 53.563 100.656 53.3853C100.131 53.1543 99.792 52.987 99.5914 52.7455C99.4489 52.5635 99.378 52.336 99.3918 52.1057C99.3918 51.3404 99.9285 50.8888 100.666 50.8888C100.898 50.8888 101.52 50.9306 101.867 51.676L101.243 52.0001ZM105.642 48.8136C105.748 48.8134 105.852 48.8446 105.941 48.9033C106.029 48.962 106.098 49.0455 106.139 49.1433C106.18 49.2411 106.191 49.3487 106.17 49.4526C106.15 49.5565 106.099 49.652 106.023 49.727C105.948 49.8019 105.852 49.853 105.748 49.8738C105.644 49.8945 105.536 49.884 105.437 49.8435C105.339 49.803 105.255 49.7344 105.196 49.6463C105.137 49.5583 105.105 49.4548 105.105 49.3489C105.106 49.2072 105.162 49.0716 105.263 48.9713C105.363 48.8711 105.5 48.8144 105.642 48.8136ZM106.022 55.3486H105.264V50.9933H106.022V55.3486ZM109.562 47.7002H110.321V55.3466H109.562V47.7002ZM114.241 48.8136C114.347 48.8136 114.451 48.845 114.54 48.9038C114.628 48.9626 114.697 49.0462 114.738 49.144C114.779 49.2418 114.789 49.3495 114.768 49.4533C114.748 49.5571 114.697 49.6525 114.621 49.7273C114.546 49.8022 114.45 49.8532 114.346 49.8738C114.242 49.8945 114.134 49.8839 114.035 49.8434C113.937 49.8029 113.853 49.7343 113.794 49.6462C113.735 49.5582 113.703 49.4547 113.703 49.3489C113.704 49.2071 113.761 49.0712 113.861 48.971C113.962 48.8707 114.099 48.8141 114.241 48.8136ZM114.62 55.3486H113.862V50.9933H114.62V55.3486ZM122.038 54.2353C121.899 54.498 121.717 54.7355 121.499 54.9378C121.1 55.292 120.581 55.4828 120.046 55.472C118.996 55.472 117.885 54.8113 117.885 53.1961C117.885 51.8956 118.687 50.8888 120.004 50.8888C120.858 50.8888 121.394 51.307 121.658 51.6854C121.921 52.0639 122.091 52.7455 122.069 53.3226H118.666C118.676 54.2238 119.296 54.8008 120.056 54.8008C120.383 54.8097 120.703 54.698 120.952 54.4872C121.145 54.3232 121.3 54.1191 121.405 53.8892L122.038 54.2353ZM121.289 52.6932C121.162 52.0116 120.646 51.56 120.004 51.56C119.361 51.56 118.834 52.043 118.718 52.6932H121.289ZM125.338 50.9933H126.096V51.4972C126.242 51.3048 126.432 51.1494 126.649 51.0437C126.867 50.9379 127.107 50.8849 127.349 50.8888C127.866 50.8888 128.341 51.0979 128.603 51.4868C128.825 51.8119 128.857 52.1684 128.857 52.6514V55.3466H128.098V52.6713C128.098 52.4099 128.077 52.1057 127.898 51.8746C127.812 51.7695 127.702 51.6862 127.578 51.6317C127.453 51.5772 127.317 51.5529 127.181 51.561C127.036 51.5549 126.891 51.582 126.758 51.6402C126.624 51.6983 126.506 51.786 126.412 51.8966C126.117 52.2426 126.097 52.757 126.097 53.0717V55.3476H125.339L125.338 50.9933ZM135.821 52.2102C135.657 52.0078 135.448 51.8443 135.212 51.7319C134.976 51.6194 134.718 51.5607 134.456 51.56C133.645 51.56 132.908 52.1266 132.908 53.1856C132.908 54.2447 133.666 54.8008 134.446 54.8008C134.717 54.7964 134.984 54.7332 135.228 54.6154C135.471 54.4977 135.687 54.3283 135.858 54.1192V55.0214C135.455 55.316 134.967 55.474 134.467 55.472C133.108 55.472 132.128 54.5071 132.128 53.1961C132.128 51.8642 133.118 50.8888 134.467 50.8888C134.952 50.883 135.428 51.0292 135.826 51.307L135.821 52.2102ZM142.998 54.2353C142.86 54.4981 142.679 54.7357 142.461 54.9378C142.061 55.2921 141.542 55.4829 141.006 55.472C139.956 55.472 138.846 54.8113 138.846 53.1961C138.846 51.8956 139.647 50.8888 140.964 50.8888C141.818 50.8888 142.355 51.307 142.618 51.6854C142.882 52.0639 143.05 52.7455 143.029 53.3226H139.626C139.637 54.2238 140.256 54.8008 141.017 54.8008C141.344 54.8097 141.663 54.698 141.913 54.4872C142.106 54.3235 142.261 54.1193 142.365 53.8892L142.998 54.2353ZM142.25 52.6932C142.124 52.0116 141.607 51.56 140.964 51.56C140.322 51.56 139.795 52.043 139.679 52.6932H142.25Z" fill="#231F20"></path>
</svg>
