<?xml version="1.0" encoding="UTF-8"?>
<svg xmlns="http://www.w3.org/2000/svg" width="170" height="89" viewBox="0 0 170 89" fill="none">
  <path d="M3.29492 40.065L35.7736 30.291L11.4464 62.7817L22.9733 37.5632L3.29492 40.065Z" fill="#231F20"></path>
  <path d="M51.4033 38.6694C51.2442 37.3831 50.8343 36.1403 50.2675 35.0082C49.6984 33.8738 48.95 32.8617 48.1298 31.9513C47.3019 31.0431 46.3785 30.2537 45.4142 29.5466C43.4699 28.1484 41.3505 27.086 39.1664 26.2818C38.6223 26.0727 38.0681 25.8968 37.5173 25.7163C36.9607 25.5541 36.4065 25.3839 35.8453 25.2457C34.7277 24.9475 33.5954 24.7179 32.4584 24.5317C31.3239 24.3352 30.179 24.2164 29.0353 24.1182C28.4617 24.0839 27.8904 24.0371 27.3168 24.0256C27.0305 24.0176 26.7433 24.0028 26.457 24.0017H25.5974C25.3111 23.9959 25.0248 24.0062 24.7387 24.0142C24.4525 24.0234 24.1662 24.0279 23.8799 24.0416C23.3088 24.0793 22.7362 24.0999 22.1661 24.1604C21.0247 24.2518 19.8889 24.414 18.7588 24.6037C17.6298 24.8036 16.5122 25.0618 15.4049 25.3576C14.3009 25.6683 13.2083 26.0236 12.1361 26.4349C10.0008 27.2768 7.93032 28.3266 6.06197 29.7008C4.20385 31.0705 2.51608 32.7578 1.37236 34.8231C0.803333 35.8524 0.380825 36.973 0.166163 38.1371C-0.0519058 39.3 -0.0541775 40.5006 0.152534 41.6578C0.358108 42.8162 0.773802 43.9254 1.33715 44.9375C1.90163 45.9507 2.60808 46.8692 3.39857 47.6951C4.19362 48.5164 5.06362 49.2579 5.99497 49.9034C6.92517 50.551 7.9008 51.1233 8.90368 51.6352L9.03089 51.393C8.06208 50.8412 7.12733 50.2334 6.24596 49.5583C5.36347 48.8854 4.55139 48.1246 3.82222 47.2999C3.09419 46.475 2.45476 45.5737 1.96296 44.6017C1.47003 43.6307 1.12816 42.59 0.981649 41.5253C0.832864 40.4606 0.879429 39.3754 1.11681 38.3347C1.35078 37.2929 1.76988 36.2968 2.32414 35.3817C3.43605 33.5437 5.05568 32.0381 6.84566 30.8238C8.63678 29.5958 10.6289 28.667 12.6824 27.9359C13.7148 27.5806 14.7643 27.2768 15.8251 27.0163C16.8893 26.7707 17.9626 26.5605 19.045 26.4063C20.1274 26.2566 21.2131 26.1298 22.3058 26.0739C22.851 26.0316 23.3973 26.027 23.9435 26.0065C24.2162 26.0008 24.49 26.0042 24.7637 26.0031C25.0374 26.0031 25.3099 25.9996 25.5826 26.011L26.4014 26.035C26.6741 26.0442 26.9466 26.0659 27.2191 26.0807C27.7644 26.1059 28.3072 26.1664 28.8501 26.2132C29.9326 26.3366 31.0139 26.4783 32.0793 26.693C33.1456 26.9021 34.203 27.1511 35.2401 27.4618C35.7626 27.6046 36.2701 27.7897 36.7825 27.9599C37.2878 28.1495 37.7944 28.3312 38.2884 28.5448C40.2738 29.3684 42.1511 30.4251 43.797 31.7182C44.6228 32.3602 45.3847 33.0674 46.0537 33.835C46.7262 34.5981 47.3009 35.4286 47.7427 36.3036C48.1891 37.1775 48.4831 38.1051 48.6207 39.0498C48.7614 39.9946 48.7341 40.9633 48.5377 41.9068C48.147 43.8009 47.0725 45.5842 45.654 47.0976C44.9463 47.8596 44.1491 48.5575 43.296 49.1928C42.4396 49.8246 41.5333 50.4058 40.5906 50.9348C39.5129 51.5357 38.3839 52.0579 37.2264 52.526L37.2595 31.4041L13.2299 64.1188L33.9759 45.816L35.198 53.2721C34.9867 53.3429 34.7777 53.4205 34.5642 53.4879C33.5136 53.8227 32.4437 54.1015 31.3626 54.3585C30.8207 54.4772 30.2779 54.6007 29.7292 54.699C29.183 54.8165 28.631 54.8931 28.079 54.9959L28.0971 55.2688C30.5322 55.3101 32.9947 55.0964 35.4139 54.5937L37.2015 65.5009L37.2197 54.162C38.653 53.7724 40.0649 53.2768 41.4402 52.662C42.501 52.1892 43.5381 51.6432 44.5273 51.0012C45.5177 50.3625 46.4682 49.6395 47.3474 48.8136C48.2253 47.9865 49.0204 47.0451 49.6894 45.9942C50.3515 44.9409 50.882 43.7712 51.1908 42.5214C51.4884 41.2694 51.5622 39.9557 51.4033 38.6706V38.6694Z" fill="#231F20"></path>
  <path d="M62.0684 39.9843H58.2964L59.2665 36.3379H71.0943L70.1244 39.9843H66.3524L63.881 49.2292H59.5968L62.0684 39.9843Z" fill="#231F20"></path>
  <path d="M68.7305 44.7914C68.7305 41.7162 71.2396 38.9346 74.7183 38.9346C77.8678 38.9346 79.717 40.9976 79.717 43.6125C79.717 46.6877 77.2091 49.4682 73.7291 49.4682C70.5797 49.4682 68.7305 47.4063 68.7305 44.7902V44.7914ZM75.7985 43.7964C75.7985 42.9488 75.267 42.341 74.4618 42.341C73.4179 42.341 72.649 43.4091 72.649 44.6064C72.649 45.4539 73.1805 46.0605 73.9857 46.0605C75.0295 46.0605 75.7985 44.9924 75.7985 43.7953V43.7964Z" fill="#231F20"></path>
  <path d="M80.5937 46.7073C80.5937 46.2835 80.6663 45.8231 80.7947 45.308L81.5636 42.3984H80.3916L81.2512 39.1758H82.4234L83.1015 36.6523H87.2572L86.5804 39.1758H88.8872L88.0262 42.3984H85.7194L85.1516 44.5528C85.0595 44.8841 85.0233 45.1241 85.0233 45.3262C85.0233 45.7501 85.2798 45.9705 85.8659 45.9705C86.1953 45.9705 86.4883 45.9157 87.0744 45.7489L86.1771 49.1554C85.4628 49.3392 84.7665 49.4501 84.0715 49.4501C81.7273 49.4501 80.5926 48.5476 80.5926 46.7061L80.5937 46.7073Z" fill="#231F20"></path>
  <path d="M87.8071 46.7063C87.8071 44.5883 89.455 43.2072 92.2741 43.2072C93.0248 43.2072 93.7938 43.318 94.5443 43.5385L94.5808 43.4277C94.6171 43.2986 94.6534 43.0964 94.6534 42.9308C94.6534 42.3047 94.1594 41.9552 93.1155 41.9552C92.2001 41.9552 91.0656 42.1391 90.3875 42.3973L89.8377 39.562C90.9178 39.2307 92.5113 39.0273 93.9572 39.0273C97.2713 39.0273 98.8092 40.2976 98.8092 42.3059C98.8092 42.7297 98.7535 43.2083 98.6264 43.7053L97.1613 49.2297H93.0055L93.2802 48.2165C92.3831 48.9714 91.6323 49.4502 90.4783 49.4502C88.9404 49.4502 87.8047 48.4369 87.8047 46.7063H87.8071ZM94.1059 45.4543L94.2162 45.0304C93.9413 44.9562 93.7222 44.9195 93.4473 44.9195C92.4034 44.9195 91.8173 45.4166 91.8173 46.2824C91.8173 46.7977 92.1104 47.074 92.4955 47.074C93.1542 47.074 93.8687 46.3921 94.1071 45.4531L94.1059 45.4543Z" fill="#231F20"></path>
  <path d="M101.904 35.7871H106.06L102.472 49.2314H98.3154L101.904 35.7871Z" fill="#231F20"></path>
  <path d="M116.349 36.2471H120.597L122.538 49.2298H117.979L117.759 47.498H113.273L112.156 49.2298H107.487L116.349 36.2471ZM117.521 44.4423L117.174 41.3111L115.178 44.4423H117.523H117.521Z" fill="#231F20"></path>
  <path d="M123.195 45.197C123.195 41.7346 125.869 38.9541 129.33 38.9541C131.747 38.9541 133.302 40.3535 133.688 42.2327L130.392 43.5589C130.209 42.7673 129.787 42.3435 129.109 42.3435C127.919 42.3435 127.15 43.6332 127.15 44.8487C127.15 45.6038 127.626 46.0824 128.285 46.0824C128.871 46.0824 129.31 45.8059 129.804 45.2347L132.606 47.1129C131.617 48.5487 130.171 49.4889 127.883 49.4889C125.209 49.4889 123.195 47.9045 123.195 45.1982V45.197Z" fill="#231F20"></path>
  <path d="M134.106 46.7073C134.106 46.2835 134.179 45.8231 134.307 45.308L135.076 42.3984H133.903L134.764 39.1758H135.936L136.615 36.6523H140.77L140.092 39.1758H142.399L141.538 42.3984H139.231L138.663 44.5528C138.573 44.8841 138.535 45.1241 138.535 45.3262C138.535 45.7501 138.792 45.9705 139.378 45.9705C139.707 45.9705 140 45.9157 140.586 45.7489L139.689 49.1554C138.975 49.3392 138.278 49.4501 137.583 49.4501C135.24 49.4501 134.104 48.5476 134.104 46.7061L134.106 46.7073Z" fill="#231F20"></path>
  <path d="M143.425 39.1753H147.58L144.907 49.2302H140.751L143.425 39.1753ZM144.267 35.7871H148.57L147.855 38.4579H143.553L144.267 35.7871Z" fill="#231F20"></path>
  <path d="M148.35 39.1748H152.616L152.891 44.2205L155.857 39.1748H160.251L153.514 49.3041H149.706L148.351 39.1748H148.35Z" fill="#231F20"></path>
  <path d="M164.095 46.5209C164.772 46.5209 165.413 46.2444 166.108 45.7111L168.031 47.8289C166.897 48.8422 165.504 49.4682 163.747 49.4682C160.708 49.4682 158.839 47.6827 158.839 45.0484C158.839 41.9915 161.11 38.9346 164.918 38.9346C168.214 38.9346 169.312 41.1816 169.312 43.2995C169.312 43.9621 169.202 44.6075 169.019 45.1775H162.593C162.648 45.9874 163.161 46.5221 164.095 46.5221V46.5209ZM165.669 43.3349C165.723 43.1875 165.741 43.0402 165.741 42.8928C165.741 42.3399 165.34 41.8247 164.661 41.8247C164.039 41.8247 163.234 42.212 162.849 43.3349H165.669Z" fill="#231F20"></path>
  <path d="M82.4316 58.5659V53.7109H85.4186V53.9303H82.6587V55.9819H85.0029V56.1945H82.6587V58.5671H82.4316V58.5659Z" fill="#231F20" stroke="#231F20" stroke-width="0.5" stroke-miterlimit="10"></path>
  <path d="M88.2637 58.5659V53.7109H88.4907V58.5659H88.2637Z" fill="#231F20" stroke="#231F20" stroke-width="0.5" stroke-miterlimit="10"></path>
  <path d="M94.8625 53.9303H93.1349V58.5659H92.9078V53.9303H91.1802V53.7109H94.8625V53.9303Z" fill="#231F20" stroke="#231F20" stroke-width="0.5" stroke-miterlimit="10"></path>
  <path d="M97.779 54.1623V58.5659H97.5518V53.7109H97.721L101.111 58.1901V53.7109H101.339V58.5659H101.118L97.7802 54.1623H97.779Z" fill="#231F20" stroke="#231F20" stroke-width="0.5" stroke-miterlimit="10"></path>
  <path d="M107.58 58.3465V58.5659H104.534V53.7109H107.521V53.9303H104.761V55.9751H107.177V56.1945H104.761V58.3489H107.58V58.3465Z" fill="#231F20" stroke="#231F20" stroke-width="0.5" stroke-miterlimit="10"></path>
  <path d="M113.055 54.429C112.886 54.2337 112.7 54.0953 112.496 54.0155C112.293 53.9355 112.055 53.8954 111.782 53.8954C111.292 53.8954 110.938 53.9936 110.717 54.1891C110.496 54.3856 110.385 54.6471 110.385 54.9749C110.385 55.1396 110.412 55.2765 110.467 55.3886C110.521 55.5005 110.604 55.5953 110.717 55.6719C110.829 55.7495 110.974 55.8147 111.152 55.866C111.33 55.9185 111.541 55.9723 111.789 56.027C112.04 56.082 112.267 56.1413 112.47 56.2053C112.674 56.2692 112.847 56.3504 112.989 56.4475C113.131 56.5445 113.243 56.6681 113.321 56.813C113.399 56.9592 113.438 57.1387 113.438 57.3534C113.438 57.5681 113.4 57.7384 113.324 57.8938C113.248 58.049 113.139 58.1793 112.996 58.2832C112.853 58.3872 112.682 58.4672 112.481 58.5186C112.279 58.5711 112.055 58.5974 111.808 58.5974C111.44 58.5974 111.108 58.5368 110.814 58.4157C110.52 58.2946 110.248 58.1095 109.997 57.8583L110.133 57.6868C110.35 57.9188 110.596 58.0947 110.873 58.2136C111.15 58.3323 111.464 58.3918 111.815 58.3918C112.248 58.3918 112.59 58.3084 112.838 58.1428C113.087 57.976 113.212 57.7223 113.212 57.3809C113.212 57.2072 113.181 57.0609 113.121 56.9397C113.06 56.8188 112.969 56.7172 112.845 56.6326C112.721 56.5479 112.566 56.475 112.377 56.4132C112.189 56.3514 111.967 56.2933 111.712 56.2384C111.461 56.1836 111.238 56.1265 111.046 56.0671C110.853 56.0078 110.691 55.9324 110.559 55.842C110.427 55.7507 110.327 55.6386 110.26 55.5073C110.193 55.3748 110.159 55.2091 110.159 55.0082C110.159 54.7945 110.198 54.6038 110.276 54.437C110.354 54.2701 110.463 54.132 110.604 54.0199C110.745 53.908 110.915 53.8224 111.114 53.7631C111.313 53.7035 111.534 53.6738 111.776 53.6738C112.075 53.6738 112.337 53.7195 112.562 53.811C112.787 53.9024 112.993 54.0474 113.179 54.2485L113.056 54.4267L113.055 54.429Z" fill="#231F20" stroke="#231F20" stroke-width="0.5" stroke-miterlimit="10"></path>
  <path d="M118.921 54.429C118.751 54.2337 118.565 54.0953 118.362 54.0155C118.158 53.9355 117.92 53.8954 117.647 53.8954C117.158 53.8954 116.803 53.9936 116.582 54.1891C116.362 54.3856 116.25 54.6471 116.25 54.9749C116.25 55.1396 116.278 55.2765 116.332 55.3886C116.387 55.5005 116.469 55.5953 116.582 55.6719C116.694 55.7495 116.84 55.8147 117.017 55.866C117.195 55.9185 117.407 55.9723 117.654 56.027C117.905 56.082 118.132 56.1413 118.336 56.2053C118.539 56.2692 118.713 56.3504 118.855 56.4475C118.998 56.5457 119.108 56.6681 119.186 56.813C119.265 56.9592 119.303 57.1387 119.303 57.3534C119.303 57.5681 119.266 57.7384 119.19 57.8938C119.114 58.049 119.005 58.1793 118.862 58.2832C118.718 58.3884 118.547 58.4672 118.346 58.5186C118.145 58.5711 117.92 58.5974 117.673 58.5974C117.306 58.5974 116.974 58.5368 116.68 58.4157C116.386 58.2946 116.113 58.1095 115.862 57.8583L115.998 57.6868C116.215 57.9188 116.462 58.0947 116.739 58.2136C117.016 58.3323 117.329 58.3918 117.68 58.3918C118.113 58.3918 118.455 58.3084 118.704 58.1428C118.952 57.976 119.077 57.7223 119.077 57.3809C119.077 57.2072 119.047 57.0609 118.986 56.9397C118.925 56.8188 118.834 56.7172 118.71 56.6326C118.587 56.5479 118.431 56.475 118.243 56.4132C118.054 56.3514 117.832 56.2933 117.577 56.2384C117.326 56.1836 117.103 56.1265 116.911 56.0671C116.718 56.0078 116.556 55.9324 116.424 55.842C116.292 55.7507 116.192 55.6386 116.125 55.5073C116.058 55.3748 116.024 55.2091 116.024 55.0082C116.024 54.7945 116.063 54.6038 116.141 54.437C116.22 54.2701 116.329 54.132 116.469 54.0199C116.61 53.908 116.781 53.8224 116.979 53.7631C117.178 53.7035 117.4 53.6738 117.642 53.6738C117.94 53.6738 118.203 53.7195 118.428 53.811C118.652 53.9024 118.858 54.0474 119.044 54.2485L118.922 54.4267L118.921 54.429Z" fill="#231F20" stroke="#231F20" stroke-width="0.5" stroke-miterlimit="10"></path>
  <path d="M125.415 56.1053C125.415 55.814 125.464 55.5239 125.562 55.2371C125.659 54.9504 125.801 54.6911 125.988 54.4615C126.174 54.2318 126.402 54.0445 126.672 53.9005C126.943 53.7566 127.252 53.6846 127.598 53.6846C128.009 53.6846 128.359 53.784 128.646 53.9817C128.935 54.1804 129.147 54.4341 129.287 54.7437L129.092 54.8395C129.005 54.6659 128.904 54.5209 128.79 54.402C128.675 54.2833 128.55 54.1885 128.416 54.1153C128.282 54.0423 128.143 53.9897 128 53.9577C127.857 53.9258 127.715 53.9097 127.572 53.9097C127.264 53.9097 126.99 53.9749 126.751 54.105C126.51 54.2352 126.308 54.4044 126.143 54.6145C125.978 54.8247 125.855 55.0613 125.769 55.3261C125.685 55.59 125.642 55.8575 125.642 56.1258C125.642 56.4217 125.692 56.7073 125.792 56.9804C125.892 57.2535 126.03 57.4945 126.204 57.7012C126.381 57.9091 126.586 58.0735 126.825 58.1969C127.063 58.3204 127.317 58.3819 127.591 58.3819C127.739 58.3819 127.888 58.3625 128.04 58.3238C128.191 58.2849 128.339 58.2255 128.482 58.1455C128.625 58.0655 128.757 57.9639 128.878 57.8418C129 57.7182 129.103 57.5699 129.19 57.3972L129.391 57.4796C129.313 57.6623 129.207 57.8233 129.073 57.9651C128.939 58.1066 128.79 58.2255 128.625 58.3204C128.46 58.4162 128.286 58.4882 128.102 58.5361C127.918 58.5842 127.74 58.6081 127.566 58.6081C127.251 58.6081 126.961 58.5351 126.7 58.39C126.437 58.2438 126.211 58.0541 126.02 57.8189C125.83 57.5847 125.682 57.3174 125.575 57.0193C125.47 56.7211 125.416 56.4159 125.416 56.1065L125.415 56.1053Z" fill="#231F20" stroke="#231F20" stroke-width="0.5" stroke-miterlimit="10"></path>
  <path d="M132.196 58.5659V53.7109H132.424V58.3465H135.249V58.5659H132.196Z" fill="#231F20" stroke="#231F20" stroke-width="0.5" stroke-miterlimit="10"></path>
  <path d="M139.458 58.374C139.787 58.374 140.061 58.3088 140.279 58.1787C140.497 58.0484 140.67 57.8794 140.796 57.6692C140.921 57.4601 141.01 57.2215 141.061 56.9552C141.113 56.6879 141.14 56.4184 141.14 56.1453V53.7109H141.36V56.1453C141.36 56.4686 141.327 56.7794 141.262 57.0751C141.198 57.3711 141.091 57.6327 140.941 57.8577C140.792 58.0839 140.597 58.2633 140.356 58.3981C140.115 58.5328 139.818 58.6002 139.463 58.6002C139.109 58.6002 138.795 58.5294 138.551 58.3878C138.307 58.2461 138.111 58.061 137.964 57.8302C137.816 57.5994 137.712 57.338 137.649 57.0444C137.587 56.7507 137.555 56.4503 137.555 56.1453V53.7109H137.782V56.1453C137.782 56.4275 137.808 56.7028 137.861 56.969C137.913 57.2351 138.004 57.4727 138.133 57.6794C138.264 57.8874 138.435 58.0542 138.65 58.1821C138.865 58.31 139.134 58.374 139.459 58.374H139.458Z" fill="#231F20" stroke="#231F20" stroke-width="0.5" stroke-miterlimit="10"></path>
  <path d="M147.823 57.3071C147.823 57.4807 147.791 57.643 147.728 57.7959C147.666 57.9491 147.58 58.0817 147.472 58.1958C147.364 58.3101 147.237 58.4003 147.091 58.4666C146.946 58.5328 146.794 58.5659 146.633 58.5659H144.483V53.7109H146.574C146.735 53.7109 146.88 53.7474 147.009 53.8206C147.14 53.8938 147.25 53.9886 147.341 54.1039C147.432 54.2204 147.502 54.3518 147.552 54.5003C147.602 54.6489 147.627 54.7973 147.627 54.9481C147.627 55.1949 147.569 55.4199 147.452 55.6256C147.335 55.8311 147.173 55.9807 146.965 56.0768C147.095 56.1179 147.213 56.1784 147.318 56.2584C147.424 56.3384 147.516 56.4333 147.591 56.5417C147.667 56.6514 147.724 56.7701 147.764 56.9005C147.802 57.0306 147.821 57.1665 147.821 57.3071H147.823ZM144.712 53.9303V56.0094H146.498C146.632 56.0094 146.755 55.9797 146.865 55.9204C146.975 55.8608 147.071 55.782 147.151 55.685C147.232 55.5867 147.295 55.4758 147.34 55.3537C147.385 55.2314 147.408 55.1035 147.408 54.9709C147.408 54.8384 147.386 54.7037 147.343 54.5779C147.3 54.4524 147.24 54.3415 147.165 54.2467C147.089 54.1509 146.998 54.0743 146.892 54.0171C146.786 53.96 146.668 53.9315 146.538 53.9315H144.713L144.712 53.9303ZM147.602 57.2876C147.602 57.1505 147.578 57.0182 147.531 56.8878C147.483 56.7577 147.418 56.6446 147.335 56.5464C147.253 56.4481 147.156 56.3693 147.044 56.3098C146.931 56.2504 146.809 56.2207 146.68 56.2207H144.712V58.3477H146.634C146.769 58.3477 146.895 58.3181 147.012 58.2587C147.129 58.1992 147.232 58.1194 147.321 58.0199C147.409 57.9195 147.479 57.8064 147.528 57.6784C147.578 57.5503 147.603 57.4214 147.603 57.2888L147.602 57.2876Z" fill="#231F20" stroke="#231F20" stroke-width="0.5" stroke-miterlimit="10"></path>
  <path d="M59.4673 56.1426H77.0774" stroke="#231F20" stroke-width="0.5" stroke-miterlimit="10"></path>
  <path d="M77.0774 56.1064H59.4673V56.1806H77.0774V56.1064Z" fill="#231F20" stroke="#231F20" stroke-width="0.5" stroke-miterlimit="10"></path>
  <path d="M151.446 56.1426H169.056" stroke="#231F20" stroke-width="0.5" stroke-miterlimit="10"></path>
  <path d="M169.056 56.1064H151.446V56.1806H169.056V56.1064Z" fill="#231F20" stroke="#231F20" stroke-width="0.5" stroke-miterlimit="10"></path>
</svg>
