<?xml version="1.0" encoding="UTF-8"?>
<svg xmlns="http://www.w3.org/2000/svg" width="170" height="89" viewBox="0 0 170 89" fill="none">
  <path d="M2.97827 34H7.93251V41.4369C8.91222 40.0453 10.6824 39.0878 12.909 39.0878C16.5829 39.0878 19.0433 41.6373 19.0433 45.9793V55.4202H14.1225V46.6472C14.1225 44.4428 12.909 43.2294 11.0275 43.2294C9.14602 43.2294 7.93251 44.4428 7.93251 46.6472V55.4202H2.97827V34Z" fill="#231F20"></path>
  <path d="M27.9055 39.043C30.3102 39.043 32.0136 40.1452 32.882 41.5591V39.2768H37.8363V55.4309H32.882V53.1486C31.9803 54.5625 30.2769 55.6647 27.8721 55.6647C23.931 55.6647 20.7803 52.425 20.7803 47.326C20.7803 42.2271 23.931 39.043 27.9055 39.043ZM29.3528 43.3515C27.5047 43.3515 25.8236 44.7432 25.8236 47.3149C25.8236 49.8867 27.5047 51.334 29.3528 51.334C31.2009 51.334 32.882 49.9201 32.882 47.3371C32.882 44.7543 31.2343 43.3404 29.3528 43.3404V43.3515Z" fill="#231F20"></path>
  <path d="M51.8418 46.659C51.8418 44.4546 50.6282 43.2411 48.7467 43.2411C46.8653 43.2411 45.6518 44.4546 45.6518 46.659V55.4319H40.6975V39.2777H45.6518V41.4153C46.6315 40.0571 48.3683 39.0996 50.5392 39.0996C54.2688 39.0996 56.7626 41.6491 56.7626 45.9911V55.4319H51.8418V46.659Z" fill="#231F20"></path>
  <path d="M65.6245 39.0433C67.7621 39.0433 69.6213 40.023 70.601 41.5037V34H75.5553V55.4202H70.601V53.1044C69.6993 54.5852 67.9959 55.654 65.6245 55.654C61.6611 55.654 58.4993 52.4142 58.4993 47.3153C58.4993 42.2163 61.65 39.0322 65.6245 39.0322V39.0433ZM67.0718 43.3518C65.2237 43.3518 63.5426 44.7435 63.5426 47.3153C63.5426 49.887 65.2237 51.3343 67.0718 51.3343C68.9199 51.3343 70.601 49.9204 70.601 47.3375C70.601 44.7547 68.9533 43.3407 67.0718 43.3407V43.3518Z" fill="#231F20"></path>
  <path d="M100.671 46.659C100.671 44.5437 99.4576 43.3859 97.5762 43.3859C95.6947 43.3859 94.4811 44.5437 94.4811 46.659V55.4319H89.5603V46.659C89.5603 44.5437 88.3468 43.3859 86.4652 43.3859C84.5837 43.3859 83.3703 44.5437 83.3703 46.659V55.4319H78.416V39.2777H83.3703V41.304C84.3277 40.0014 85.9754 39.0996 88.0907 39.0996C90.5178 39.0996 92.4883 40.1684 93.5905 42.1056C94.6592 40.4022 96.6855 39.0996 99.0346 39.0996C103.031 39.0996 105.603 41.6491 105.603 45.9911V55.4319H100.682V46.659H100.671Z" fill="#231F20"></path>
  <path d="M114.477 39.043C116.882 39.043 118.585 40.1452 119.453 41.5591V39.2768H124.408V55.4309H119.453V53.1486C118.551 54.5625 116.848 55.6647 114.443 55.6647C110.503 55.6647 107.351 52.425 107.351 47.326C107.351 42.2271 110.503 39.043 114.477 39.043ZM115.924 43.3515C114.076 43.3515 112.394 44.7432 112.394 47.3149C112.394 49.8867 114.076 51.334 115.924 51.334C117.772 51.334 119.453 49.9201 119.453 47.3371C119.453 44.7543 117.806 43.3404 115.924 43.3404V43.3515Z" fill="#231F20"></path>
  <path d="M133.414 39.0433C135.552 39.0433 137.411 40.023 138.39 41.5037V34H143.345V55.4202H138.39V53.1044C137.488 54.5852 135.785 55.654 133.414 55.654C129.451 55.654 126.289 52.4142 126.289 47.3153C126.289 42.2163 129.44 39.0322 133.414 39.0322V39.0433ZM134.861 43.3518C133.013 43.3518 131.332 44.7435 131.332 47.3153C131.332 49.887 133.013 51.3343 134.861 51.3343C136.709 51.3343 138.39 49.9204 138.39 47.3375C138.39 44.7547 136.743 43.3407 134.861 43.3407V43.3518Z" fill="#231F20"></path>
  <path d="M152.952 55.6537C148.209 55.6537 144.792 52.4695 144.792 47.3483C144.792 42.2271 148.154 39.043 152.952 39.043C157.75 39.043 161.001 42.1714 161.001 47.0923C161.001 47.5598 160.968 48.0497 160.912 48.5395H149.712C149.89 50.6549 151.193 51.6345 152.785 51.6345C154.177 51.6345 154.957 50.9443 155.357 50.0759H160.623C159.843 53.2266 156.971 55.6647 152.952 55.6647V55.6537ZM149.735 45.7785H155.924C155.924 44.0084 154.533 42.9952 152.886 42.9952C151.238 42.9952 150.024 43.975 149.735 45.7785Z" fill="#231F20"></path>
  <path d="M164.462 55.8521C165.864 55.8521 167 54.7156 167 53.3138C167 51.9118 165.864 50.7754 164.462 50.7754C163.06 50.7754 161.923 51.9118 161.923 53.3138C161.923 54.7156 163.06 55.8521 164.462 55.8521Z" fill="#231F20"></path>
</svg>
