<?xml version="1.0" encoding="UTF-8"?>
<svg xmlns="http://www.w3.org/2000/svg" width="168" height="89" viewBox="0 0 168 89" fill="none">
  <path d="M46.87 34.874H51.584V54.164H46.87V46.2752H38.0178V54.164H33.2754V34.874H38.0178V42.3603H46.87V34.874ZM71.4467 45.9877V47.8585H59.0882V48.0295C59.0882 50.1595 60.4384 51.2252 62.8529 51.2252H63.3989C65.4108 51.2252 66.676 50.6494 67.0778 49.2386H71.3033C70.9008 52.2932 68.3713 54.4523 63.3989 54.4523H62.8529C58.1681 54.4523 54.7483 52.264 54.7483 47.6561V45.9877C54.7483 41.3812 58.1397 39.1063 62.8529 39.1063H63.3989C68.0845 39.1063 71.4467 41.3812 71.4467 45.9877ZM67.0778 44.951C66.906 43.252 65.4967 42.3312 63.3705 42.3312H62.8246C60.5534 42.3312 59.2891 43.252 59.1165 44.951H67.0778ZM91.8263 49.6725H90.8509L88.5783 39.3946H83.4334L81.0488 49.6725H80.1287L77.6283 39.3946H73.1734L76.7358 54.164H83.0876L85.2721 44.8644H86.0764L88.1459 54.164H94.6434L98.3775 39.3946H94.4111L91.8263 49.6725ZM115.829 44.4619V54.164H111.231V52.2969H110.54C109.39 53.7906 107.753 54.456 105.252 54.456C102.148 54.456 99.9063 53.0744 99.9063 49.9937C99.9063 46.9989 101.889 45.2431 106.488 45.2431H111.231V44.4619C111.231 42.9936 110.225 42.302 108.243 42.302H107.726C105.829 42.302 104.739 42.9645 104.739 44.4044H100.227C100.227 41.0645 102.785 39.1063 107.729 39.1063H108.275C113.476 39.1063 115.833 41.0937 115.833 44.4619M111.235 47.8876H107.127C105.202 47.8876 104.454 48.4343 104.454 49.5306C104.454 50.509 105.26 51.1139 107.185 51.1139C109.11 51.1139 111.238 50.4224 111.238 48.3208L111.235 47.8876ZM118.968 54.161H123.562V34.874H118.963L118.968 54.161ZM143.227 45.9847V47.8555H130.864V48.0295C130.864 50.1595 132.215 51.2252 134.629 51.2252H135.175C137.187 51.2252 138.452 50.6494 138.854 49.2386H143.079C142.677 52.2909 140.147 54.45 135.175 54.45H134.629C129.945 54.45 126.524 52.2618 126.524 47.6538V45.9877C126.524 41.3812 129.915 39.1063 134.629 39.1063H135.175C139.86 39.1063 143.223 41.3812 143.223 45.9877M138.854 44.951C138.682 43.252 137.273 42.3312 135.146 42.3312H134.6C132.33 42.3312 131.065 43.252 130.892 44.951H138.854ZM156.217 46.506L162.454 39.3946H157.6L154.295 43.1086H152.944L149.664 39.3946H144.232L150.757 46.6785L144.175 54.164H149.089L152.654 50.1049H154.005L157.683 54.164H163L156.217 46.506Z" fill="#231F20"></path>
  <path d="M21.567 44.1462V44.8931C21.567 47.4853 22.4079 49.2479 24.0763 49.991V56.469C19.198 55.28 16.8574 50.7647 16.8574 44.8931V44.1462C16.8574 38.2769 19.198 33.7652 24.0763 32.5703V39.0461C22.4079 39.7929 21.567 41.5517 21.567 44.144M5.03955 32.5703V39.0461C6.70872 39.7929 7.54891 41.5517 7.54891 44.144V44.8931C7.54891 47.4853 6.70872 49.2479 5.03955 49.991V56.469C9.91786 55.28 12.2584 50.7647 12.2584 44.8931V44.1462C12.2584 38.2746 9.91786 33.7593 5.03955 32.5703Z" fill="#231F20"></path>
</svg>
