<?xml version="1.0" encoding="UTF-8"?>
<svg xmlns="http://www.w3.org/2000/svg" width="103" height="77" viewBox="0 0 103 77" fill="none">
  <g clip-path="url(#clip0_306_2269)">
    <path d="M0.605715 67.2258C0.203482 67.6593 0 68.1928 0 68.8216V75.4331H0.894376V71.7034H3.26518V70.8031H0.894376V68.8882C0.894376 68.5167 1.01268 68.1928 1.24456 67.9022C1.48116 67.6164 1.77456 67.4735 2.1342 67.4735H3.30304V66.5732H2.13893C1.51902 66.5732 1.00322 66.7924 0.600983 67.2258H0.605715Z" fill="#1A1C1B"></path>
    <path d="M4.88827 68.9971H3.9939V75.4324H4.88827V68.9971Z" fill="#1A1C1B"></path>
    <path d="M4.88827 67.0967H3.9939V67.9684H4.88827V67.0967Z" fill="#1A1C1B"></path>
    <path d="M7.23543 74.1043C7.00355 73.8185 6.88998 73.4898 6.88998 73.123V69.8077H8.94374V68.9074H6.88998V66.5781H5.99561V73.1897C5.99561 73.8185 6.19909 74.352 6.60132 74.7854C7.00355 75.2189 7.51936 75.438 8.144 75.438H8.98632V74.5377H8.13927C7.77016 74.5377 7.4673 74.3948 7.23543 74.109V74.1043Z" fill="#1A1C1B"></path>
    <path d="M15.318 68.917H12.3557C11.731 68.917 11.2105 69.1266 10.7941 69.5505C10.3776 69.9697 10.1694 70.4984 10.1694 71.1272V75.4333H11.0638V71.1224C11.0638 70.7604 11.1916 70.4556 11.4424 70.1983C11.6932 69.9411 12.0008 69.8173 12.3557 69.8173H15.318C15.6777 69.8173 15.9805 69.9459 16.2361 70.1983C16.4869 70.4556 16.6146 70.7604 16.6146 71.1224V75.4333H17.509V71.2225C17.509 70.5937 17.3008 70.0507 16.8844 69.5982C16.4679 69.1456 15.9427 68.917 15.3227 68.917H15.318Z" fill="#1A1C1B"></path>
    <path d="M23.6655 68.8163H20.4855C19.8419 68.8163 19.3261 69.0211 18.9428 69.4308C18.5548 69.8404 18.3655 70.3691 18.3655 71.017V73.1795C18.3655 73.8178 18.5642 74.3513 18.957 74.78C19.3545 75.2087 19.8703 75.4231 20.5139 75.4231H25.1419V74.5228H20.5044C20.1353 74.5228 19.8372 74.3799 19.6053 74.0941C19.3734 73.8083 19.2599 73.4796 19.2599 73.1081V71.0551C19.2599 70.6835 19.3687 70.3691 19.5911 70.1072C19.8135 69.8452 20.1069 69.7118 20.476 69.7118L23.5945 69.6689C23.9825 69.6594 24.2949 69.7833 24.5362 70.0452C24.7775 70.3025 24.8958 70.6264 24.8958 71.017C24.8958 71.4409 24.7917 71.7886 24.5788 72.0554C24.3422 72.3412 24.0157 72.4841 23.5992 72.4841H21.4224L21.4366 73.3844H23.5992C24.2333 73.3844 24.7586 73.1748 25.1703 72.7556C25.582 72.3364 25.7902 71.8124 25.7902 71.1837C25.7902 70.4882 25.6104 69.9309 25.2508 69.507C24.8769 69.0449 24.3469 68.8115 23.6655 68.8115V68.8163Z" fill="#1A1C1B"></path>
    <path d="M31.2417 71.5936H28.0711C27.8156 71.5936 27.6216 71.4983 27.4938 71.3173C27.366 71.1315 27.2998 70.9029 27.2998 70.6361C27.2998 70.0264 27.5884 69.7216 28.1705 69.7216H32.6045V68.8213H27.9623C27.4749 68.8213 27.0821 69.0023 26.7792 69.3691C26.4764 69.7359 26.325 70.1693 26.325 70.6695C26.325 71.1696 26.4764 71.6031 26.7792 71.9651C27.0821 72.3271 27.4749 72.5081 27.9623 72.5081H31.1186C31.3836 72.5081 31.5824 72.5987 31.7101 72.7844C31.8379 72.9702 31.9042 73.1941 31.9042 73.4656C31.9042 74.1658 31.6155 74.5183 31.0382 74.5183H26.6041V75.4043H31.2464C31.7717 75.4043 32.1786 75.1995 32.472 74.7946C32.7465 74.423 32.8837 73.9657 32.8837 73.4227C32.8837 72.9226 32.7323 72.4939 32.4294 72.1318C32.1266 71.7698 31.7291 71.5936 31.2464 71.5936H31.2417Z" fill="#1A1C1B"></path>
    <path d="M38.4202 71.5936H35.2497C34.9941 71.5936 34.8001 71.4983 34.6724 71.3173C34.5446 71.1315 34.4783 70.9029 34.4783 70.6361C34.4783 70.0264 34.767 69.7216 35.3443 69.7216H39.7783V68.8213H35.1361C34.6487 68.8213 34.2559 69.0023 33.9531 69.3691C33.6502 69.7359 33.4988 70.1693 33.4988 70.6695C33.4988 71.1696 33.6502 71.6031 33.9531 71.9651C34.2559 72.3271 34.6487 72.5081 35.1361 72.5081H38.2924C38.5574 72.5081 38.7562 72.5987 38.884 72.7844C39.0117 72.9702 39.078 73.1941 39.078 73.4656C39.078 74.1658 38.7893 74.5183 38.212 74.5183H33.778V75.4043H38.4202C38.9455 75.4043 39.3524 75.1995 39.6458 74.7946C39.9203 74.423 40.0575 73.9657 40.0575 73.4227C40.0575 72.9226 39.9061 72.4939 39.6033 72.1318C39.3004 71.7698 38.9076 71.5936 38.4202 71.5936Z" fill="#1A1C1B"></path>
    <path d="M50.582 68.917H47.6197C46.9951 68.917 46.4745 69.1456 46.0581 69.5982C45.6417 70.0507 45.4287 70.5937 45.4287 71.2225V77.0052H46.3231V71.1272C46.3231 70.7652 46.4509 70.4603 46.7017 70.2031C46.9572 69.9507 47.2601 69.822 47.6197 69.822H50.5915C50.9606 69.822 51.254 69.9506 51.4764 70.2079C51.6988 70.4651 51.8077 70.7842 51.8077 71.1653V73.1183C51.8077 73.4898 51.6941 73.8138 51.4622 74.1043C51.2303 74.3901 50.9322 74.533 50.5631 74.533H47.5487L47.5345 75.419L49.0488 75.4333H50.5489C51.1925 75.4333 51.7083 75.2189 52.1058 74.795C52.4985 74.3711 52.6973 73.8328 52.6973 73.185V71.0224C52.6973 70.3936 52.4985 69.884 52.1058 69.4981C51.7083 69.1123 51.2019 68.917 50.5773 68.917H50.582Z" fill="#1A1C1B"></path>
    <path d="M54.9781 74.0993C54.7462 73.8135 54.6327 73.4848 54.6327 73.1132V66.5684H53.7383V73.1799C53.7383 73.8087 53.9418 74.3422 54.344 74.7757C54.7462 75.2091 55.262 75.4282 55.8819 75.4282H56.7195V74.528H55.8725C55.5034 74.528 55.2052 74.3851 54.9734 74.0993H54.9781Z" fill="#1A1C1B"></path>
    <path d="M62.1947 68.8163H58.0162V69.7166H62.2231C62.526 69.7166 62.791 69.8166 63.0134 70.0214C63.2358 70.2262 63.3778 70.4835 63.444 70.7979H59.1425C58.5226 70.7979 58.002 71.0074 57.5809 71.4314C57.155 71.8553 56.9468 72.3793 56.9468 73.0081C56.9468 73.7035 57.1361 74.2751 57.5099 74.7181C57.9121 75.1897 58.4563 75.4279 59.1378 75.4279H62.2089V74.5276H59.1378C58.7781 74.5276 58.4753 74.3942 58.2197 74.1227C57.9689 73.8559 57.8412 73.5368 57.8412 73.1748C57.8412 72.7461 57.9547 72.3936 58.1771 72.1173C58.3996 71.8363 58.7213 71.6981 59.133 71.6981H63.444V75.4279H64.3384V71.0598C64.3384 70.4311 64.1349 69.8976 63.7327 69.4641C63.3304 69.0306 62.8146 68.8115 62.1947 68.8115V68.8163Z" fill="#1A1C1B"></path>
    <path d="M66.6429 74.1043C66.411 73.8185 66.2975 73.4898 66.2975 73.123V69.8077H68.3512V68.9074H66.2975V66.5781H65.4031V73.1897C65.4031 73.8185 65.6066 74.352 66.0088 74.7854C66.411 75.2189 66.9268 75.438 67.5515 75.438H68.3938V74.5377H67.5467C67.1776 74.5377 66.8748 74.3948 66.6429 74.109V74.1043Z" fill="#1A1C1B"></path>
    <path d="M70.0406 67.0967H69.1462V67.9684H70.0406V67.0967Z" fill="#1A1C1B"></path>
    <path d="M70.0406 68.9971H69.1462V75.4324H70.0406V68.9971Z" fill="#1A1C1B"></path>
    <path d="M76.7366 68.917H73.7742C73.1496 68.917 72.6291 69.1266 72.2126 69.5505C71.7962 69.9697 71.5833 70.4984 71.5833 71.1272V75.4333H72.4776V71.1224C72.4776 70.7604 72.6054 70.4556 72.8562 70.1983C73.107 69.9411 73.4146 69.8173 73.7742 69.8173H76.7366C77.0962 69.8173 77.3991 69.9459 77.6546 70.1983C77.9054 70.4556 78.0332 70.7604 78.0332 71.1224V75.4333H78.9275V71.2225C78.9275 70.5937 78.7193 70.0507 78.3029 69.5982C77.8865 69.1456 77.3659 68.917 76.7413 68.917H76.7366Z" fill="#1A1C1B"></path>
    <path d="M80.702 68.9971H79.8076V75.4324H80.702V68.9971Z" fill="#1A1C1B"></path>
    <path d="M80.702 67.0967H79.8076V67.9684H80.702V67.0967Z" fill="#1A1C1B"></path>
    <path d="M88.6948 73.223C88.6948 73.585 88.567 73.8898 88.3162 74.1471C88.0654 74.4043 87.7578 74.5281 87.3982 74.5281H84.4359C84.0762 74.5281 83.7734 74.3995 83.5178 74.1471C83.267 73.8898 83.1392 73.585 83.1392 73.223V68.9121H82.2449V73.2182C82.2449 73.847 82.4531 74.3757 82.8695 74.7949C83.2859 75.2188 83.8065 75.4284 84.4311 75.4284H87.3934C88.0181 75.4284 88.5386 75.1998 88.9551 74.7472C89.3715 74.2947 89.5797 73.7517 89.5797 73.1229V68.9121H88.6853V73.223H88.6948Z" fill="#1A1C1B"></path>
    <path d="M97.9793 68.917H92.8969C92.2723 68.917 91.7518 69.1266 91.3353 69.5505C90.9189 69.9697 90.7107 70.4984 90.7107 71.1272V75.4333H91.6051V71.1224C91.6051 70.7604 91.7328 70.4556 91.9836 70.1983C92.2392 69.9411 92.542 69.8173 92.9017 69.8173H94.927V75.4333H95.8214V69.8173H97.984C98.3437 69.8173 98.6465 69.9459 98.902 70.1983C99.1528 70.4556 99.2806 70.7604 99.2806 71.1224V75.4333H100.175V71.2225C100.175 70.5937 99.9668 70.0507 99.5456 69.5982C99.1292 69.1456 98.6087 68.917 97.984 68.917H97.9793Z" fill="#1A1C1B"></path>
    <path d="M102.016 66.2971C102.016 66.0685 101.85 65.8779 101.576 65.8779H101.046V67.2403H101.311V66.6972H101.5L101.765 67.2403H102.073L101.77 66.6544C101.902 66.6067 102.016 66.4876 102.016 66.2971ZM101.561 66.4734H101.311V66.1113H101.561C101.675 66.1113 101.755 66.1875 101.755 66.2923C101.755 66.3971 101.68 66.4734 101.561 66.4734Z" fill="#1A1C1B"></path>
    <path d="M101.491 65.0967C100.658 65.0967 99.981 65.7778 99.981 66.6162C99.981 67.4546 100.658 68.1357 101.491 68.1357C102.323 68.1357 103 67.4546 103 66.6162C103 65.7778 102.323 65.0967 101.491 65.0967ZM101.491 67.7737C100.852 67.7737 100.336 67.2497 100.336 66.6114C100.336 65.9731 100.852 65.4492 101.491 65.4492C102.129 65.4492 102.645 65.9731 102.645 66.6114C102.645 67.2497 102.129 67.7737 101.491 67.7737Z" fill="#1A1C1B"></path>
    <path d="M28.6295 37.1162C32.3348 41.5224 38.3872 45.495 45.7599 47.8815C48.1402 48.6531 50.5063 49.2057 52.8014 49.5582L54.6185 60.4949C54.6185 60.4949 54.4481 55.179 54.2825 49.7582C64.8636 50.9967 73.7506 47.8577 75.8091 41.4366C77.0726 37.4925 75.5204 33.0388 71.9808 28.9852C82.2069 26.0414 95.7551 22.0973 95.7551 22.0973C95.7551 22.0973 80.5318 24.4409 69.1083 26.1509C65.493 23.0452 60.6898 20.3491 55.1343 18.5486C53.6342 18.0627 52.1389 17.6674 50.6624 17.3482L47.9462 0C47.9462 0 48.2869 9.7935 48.514 16.9433C37.1143 15.0713 27.2667 18.1961 25.0899 25.003C23.9542 28.5565 25.0993 32.5243 27.9244 36.2445C24.6829 37.2449 22.3074 37.9689 22.3074 37.9689C22.3074 37.9689 25.0142 37.6069 28.6295 37.1258V37.1162ZM46.9146 44.2804C41.2265 42.4369 36.3713 39.6551 32.9311 36.5446C37.4692 35.9445 42.3244 35.3014 44.998 34.9632C47.189 34.6869 49.1671 34.0772 50.5157 32.8864C50.3548 33.7485 50.3406 34.7393 50.5347 35.8921L52.153 45.6379C50.4353 45.2997 48.6796 44.852 46.9146 44.2804ZM73.8405 39.5599C72.1038 44.9853 63.9408 47.4099 54.1784 45.9904C54.0932 43.0943 54.0222 40.5506 53.9986 39.2598C53.9181 35.1251 56.1564 33.4627 62.3603 31.7384C64.0591 31.2668 67.012 30.4237 70.4807 29.4281C73.5045 32.7959 74.8484 36.4065 73.8405 39.5599ZM54.7131 19.9062C59.6535 21.5067 63.9598 23.8169 67.2628 26.432C62.914 27.0798 59.3317 27.599 57.7039 27.8038C55.5129 28.0801 53.5348 28.6898 52.1862 29.8807C52.3471 29.0185 52.3613 28.0277 52.1672 26.875L50.9085 18.8535C52.1625 19.144 53.4355 19.4917 54.7131 19.9062ZM27.7872 24.6314C29.5902 19.0011 38.3162 16.6051 48.5613 18.3819C48.6323 20.6492 48.6844 22.5213 48.7033 23.512C48.7033 23.512 49.1387 29.2757 45.282 30.7047C43.2519 31.4573 36.9723 33.4342 31.4925 35.1347C28.2273 31.6622 26.7414 27.9039 27.7872 24.6314Z" fill="#1A1C1B"></path>
  </g>
  <defs>
    <clipPath id="clip0_306_2269">
      <rect width="103" height="77" fill="white"></rect>
    </clipPath>
  </defs>
</svg>
