<?xml version="1.0" encoding="UTF-8"?>
<svg xmlns="http://www.w3.org/2000/svg" width="97" height="72" viewBox="0 0 97 72" fill="none">
  <path fill-rule="evenodd" clip-rule="evenodd" d="M9.06382 35.8498C9.01859 36.2003 9.27945 36.5158 9.63078 36.5262L9.62723 36.5333H9.63078C10.1037 36.5473 10.8272 36.5859 11.801 36.663C12.6307 36.7032 13.4008 36.7245 14.1358 36.7449C16.7963 36.8186 18.9979 36.8795 21.9085 37.7776C22.0591 37.8282 22.2606 37.8935 22.4973 37.9701C23.8996 38.4243 26.5385 39.2789 27.1812 39.8667C27.8004 40.4381 27.1256 40.5817 25.6126 40.1436C22.4128 39.2148 17.4321 38.1526 14.0757 38.4401L14.0827 38.6154C14.3062 38.6154 14.5297 38.6122 14.7531 38.6089C15.2667 38.6016 15.7799 38.5942 16.2913 38.6259C17.0426 38.6715 17.7903 38.7766 18.5312 38.9063C19.0345 38.9932 19.5312 39.1135 20.0281 39.2337C20.2524 39.288 20.4766 39.3423 20.7016 39.3936L20.6772 39.5407C20.578 39.5303 20.4788 39.519 20.3796 39.5078C20.1797 39.4851 19.9798 39.4625 19.7799 39.4461C19.5312 39.4263 19.2825 39.4061 19.0336 39.3859C16.5018 39.1799 13.9631 38.9734 11.4359 39.2638C9.63765 39.4706 7.86385 39.9508 6.11436 40.4311C5.38802 40.6302 4.69103 40.9412 3.99325 41.2525C3.67192 41.3958 3.35042 41.5393 3.02581 41.6719C2.97823 41.6922 2.93065 41.7133 2.88295 41.7344C2.72488 41.8043 2.56539 41.8749 2.39975 41.9207C1.62065 42.1381 1.13371 41.7034 1.29023 40.9042C1.485 39.9053 2.11454 39.2357 2.9945 38.7976C3.29998 38.6437 3.61103 38.5019 3.92189 38.3602C4.21273 38.2277 4.50341 38.0952 4.78921 37.9529C4.90746 37.8933 5.04311 37.7286 5.05006 37.6059C5.37957 32.556 6.29808 27.5983 7.21708 22.6381C7.32633 22.0484 7.43559 21.4586 7.54387 20.8687C8.22906 17.1252 8.87247 13.3711 9.44985 9.61014C9.73854 7.73488 9.83599 5.83158 9.49164 3.93879C9.35595 3.1992 9.07768 2.52971 8.63944 1.9058C8.38557 1.54826 8.20819 1.10662 8.12471 0.675487C8.04124 0.237332 8.37861 -0.0851382 8.81338 0.020016C9.20296 0.114658 9.60295 0.314451 9.90894 0.577342C11.1019 1.60084 11.8707 2.88373 12.1419 4.47157C12.245 5.0737 12.3749 5.67056 12.5048 6.26703C12.6553 6.95877 12.8058 7.64999 12.9141 8.34828C13.0998 9.53776 12.9122 10.7154 12.7256 11.8871C12.6851 12.1414 12.6446 12.3954 12.608 12.6491C12.0689 16.3716 11.5055 20.0905 10.9315 23.8095C10.6526 25.6089 10.3657 27.4073 10.0789 29.2052C9.83267 30.7485 9.58651 32.2914 9.34553 33.8343C9.2412 34.4933 9.15418 35.1558 9.06382 35.8498ZM37.5897 8.38279C37.5654 8.47839 37.5437 8.56394 37.522 8.63364C37.529 9.3557 37.6924 9.82891 38.1828 10.0813C38.6106 10.2986 38.9828 10.0532 39.2889 9.77637C40.8471 8.37075 42.4053 6.96168 43.9287 5.51754C44.1861 5.27219 44.3773 4.85157 44.4156 4.49404C44.499 3.69837 44.0712 3.09197 43.4035 2.70641C42.7879 2.35239 42.1791 2.4961 41.6401 2.92724C40.0505 4.19611 38.7532 5.71383 37.8629 7.56105C37.7283 7.83709 37.6509 8.14187 37.5897 8.38279ZM41.2259 25.8464C42.21 24.8182 43.1274 23.7368 44.0422 22.6584L44.0423 22.6584L44.0423 22.6584C45.2388 21.2479 46.4308 19.8429 47.7613 18.5696C47.7908 18.5889 47.8204 18.609 47.85 18.6292C47.8796 18.6494 47.9091 18.6695 47.9387 18.6888C47.8874 18.7975 47.8352 18.9055 47.783 19.0135L47.7829 19.0137C47.665 19.2573 47.5473 19.5007 47.4413 19.7509C47.4186 19.8039 47.381 19.8546 47.3429 19.9059C47.2351 20.051 47.1237 20.2011 47.337 20.4239C47.3996 20.4869 47.257 20.7954 47.1596 20.9566L46.8403 21.4951L46.8403 21.4951L46.8402 21.4952L46.8402 21.4953L46.8401 21.4953L46.8401 21.4954L46.8401 21.4955L46.84 21.4955C46.0983 22.7465 45.3561 23.9981 44.5927 25.2364C44.0536 26.1127 43.4867 26.9715 42.8885 27.8093C42.4746 28.3876 42.3494 28.987 42.5824 29.6495C43.0589 31.0235 42.6345 32.1556 41.5911 33.032C40.026 34.3499 38.2661 35.2998 36.1583 35.2962C34.6801 35.2928 33.2993 34.8931 32.1446 33.9047C31.4385 33.3018 30.9759 32.5447 30.809 31.5772C32.6558 31.8787 34.3671 31.4931 36.0158 30.7571C37.174 30.2383 38.1652 29.4847 38.9686 28.4857C39.4347 27.9038 39.5704 27.2729 39.2817 26.5754C39.1495 26.2565 39.0138 25.9339 38.8399 25.636C38.7047 25.4031 38.566 25.172 38.4273 24.9407L38.4272 24.9405L38.4271 24.9404L38.427 24.9402L38.4269 24.94L38.4268 24.9398L38.4267 24.9397L38.4266 24.9395C37.7806 23.8627 37.1322 22.7817 36.8088 21.4894C35.944 22.1819 35.0629 22.8449 34.1844 23.5059L34.184 23.5062L34.1838 23.5064C32.1722 25.02 30.1746 26.5231 28.4195 28.3455C28.7395 28.7241 29.0491 28.6575 29.3064 28.5278C29.3952 28.4831 29.4847 28.4389 29.5744 28.3946C30.0543 28.1577 30.5397 27.918 30.9412 27.5814C32.0619 26.6406 33.1539 25.6667 34.2455 24.6931L34.2455 24.693L34.2456 24.693L34.2456 24.6929L34.2457 24.6929L34.2481 24.6908L34.2481 24.6907L34.2482 24.6906L34.2483 24.6906L34.2483 24.6905L34.2484 24.6905L34.2485 24.6904C34.5753 24.3989 34.9021 24.1074 35.2296 23.8169C35.2908 23.7623 35.3281 23.6789 35.3652 23.596C35.383 23.5563 35.4007 23.5167 35.421 23.4804C35.4715 23.5279 35.5253 23.5754 35.5792 23.623L35.5793 23.6231L35.5844 23.6276C35.5034 23.7383 35.4238 23.8497 35.3443 23.961L35.3443 23.9611C35.1745 24.1987 35.0051 24.436 34.8228 24.6651C31.8594 28.4051 28.3186 31.4441 24.0545 33.5857C22.9554 34.1395 21.7972 34.5041 20.5555 34.5532C18.1625 34.6478 16.5557 33.4771 15.554 31.3634C14.4131 28.9519 14.4758 26.4772 15.2722 24.0062C16.2878 20.855 18.2322 18.4365 21.1399 16.8626C22.9033 15.9056 25.171 16.8767 25.7205 18.7624C26.0092 19.7509 25.8735 20.7359 25.3692 21.5805C24.6075 22.8459 23.7972 24.1043 22.8511 25.2295C21.5746 26.7507 19.766 27.2169 17.86 27.2905C17.453 27.3045 17.2582 27.4342 17.2096 27.8268C17.188 28.0078 17.1589 28.1893 17.1299 28.3708C17.0701 28.7446 17.0101 29.119 17.0148 29.4918C17.0322 30.5117 17.6826 31.1041 18.6912 31.1321C19.9121 31.1671 21.032 30.7711 22.145 30.3364C25.004 29.2253 27.5709 27.6025 30.0438 25.8043C32.058 24.3391 34.0944 22.906 36.1288 21.4743L36.3914 21.2896C36.6244 21.1249 36.6278 20.9882 36.5862 20.7288L36.479 20.0733C36.1867 18.2868 35.8942 16.4992 35.6679 14.7034C35.6036 14.1981 35.7383 13.6538 35.8663 13.137L35.8975 13.0104C36.0192 12.5267 36.3809 12.1797 36.8923 12.1341L36.969 12.1269C37.6121 12.0659 38.2668 12.0039 38.8991 12.078C39.539 12.1552 39.8208 12.6564 39.7442 13.3154C39.7164 13.5537 39.6781 13.8026 39.5842 14.0234C38.4191 16.7679 38.7043 19.5126 39.5738 22.2535C39.9704 23.5084 40.5199 24.6967 41.219 25.8464H41.2259ZM18.4338 24.7176C18.4563 24.7472 18.4796 24.7759 18.5028 24.8046L18.5029 24.8046C18.5265 24.8338 18.5502 24.8629 18.573 24.893C18.6604 24.8678 18.7497 24.8461 18.839 24.8243C19.0484 24.7734 19.2583 24.7224 19.446 24.6265C20.3329 24.1814 21.2164 23.7258 22.072 23.2314C23.4771 22.4218 23.8076 21.0688 23.7798 19.5721C23.7773 19.4334 23.7151 19.2964 23.6526 19.1587L23.6525 19.1587C23.6234 19.0945 23.5942 19.0303 23.571 18.9657C23.5152 18.9928 23.4554 19.0162 23.3954 19.0396C23.2613 19.092 23.1268 19.1446 23.0354 19.2391C22.7566 19.5249 22.4939 19.8284 22.2319 20.131C22.1083 20.2739 21.9848 20.4166 21.8598 20.5571C21.6091 20.8393 21.3576 21.1211 21.1061 21.4028L21.1057 21.4032L21.1054 21.4036L21.105 21.404L21.1047 21.4044L21.1043 21.4048L21.104 21.4052L21.1036 21.4056C20.4001 22.1937 19.6964 22.9821 19.0078 23.7818C18.8432 23.972 18.7208 24.1978 18.5982 24.4239C18.5446 24.5228 18.491 24.6217 18.4338 24.7176ZM82.8935 33.2839C82.8935 33.2839 86.229 29.3125 87.4151 29.0514L87.4115 29.0546C89.8706 28.3253 91.3349 29.7266 88.5628 30.9145C83.7596 33.4082 83.7526 36.7871 84.1178 41.1725C84.2953 43.3265 84.3848 45.446 84.4804 47.713L84.4804 47.7133C84.5179 48.6002 84.5563 49.5098 84.6012 50.4528C85.0223 48.2114 85.0301 47.1991 85.0386 46.0891C85.0425 45.5763 85.0466 45.0426 85.0917 44.3572C85.2551 41.9209 85.7386 52.7808 85.0917 53.6566C83.8256 56.4274 81.0883 56.663 78.8242 54.8095C74.873 51.5706 76.4068 44.6121 76.7651 43.2808C77.1233 41.9495 77.9998 40.233 78.9145 38.7394C79.5127 37.6725 82.8935 33.2839 82.8935 33.2839ZM81.1161 37.5227C80.1597 38.5737 75.8434 44.784 77.638 50.6247V50.628C84.3856 64.3988 84.3091 39.9909 83.4779 35.5674C83.3192 35.7047 83.1212 35.8451 82.8946 36.0059L82.8945 36.006C82.401 36.3561 81.7716 36.8026 81.1161 37.5227ZM29.2114 55.8683V46.0059H31.2115V49.937L35.0047 46.0059H37.4875L33.6253 49.9509L37.7358 55.8683H35.3909L32.2184 51.2612L31.2115 52.282V55.8683H29.2114ZM38.5059 46.0059V55.8683H45.1406V54.1992H40.5059V46.0059H38.5059ZM49.8158 56.0338C47.264 56.0338 45.926 54.8337 45.926 52.6957V46.0059H47.9261V52.6957C47.9261 53.7165 48.4364 54.4338 49.7744 54.4338C51.0434 54.4338 51.6365 53.6889 51.6365 52.6682V46.0059H53.6366V52.6957C53.6366 54.8061 52.34 56.0338 49.8158 56.0338ZM55.0745 55.8683V46.0059H59.4884C60.5505 46.0059 61.3643 46.268 61.8747 46.7231C62.4126 47.2059 62.6609 47.799 62.6609 48.5715C62.6609 49.5784 62.0401 50.2267 61.116 50.5439V50.5853C62.2057 50.9026 62.9506 51.813 62.9506 53.0268C62.9506 53.9509 62.6609 54.5855 62.0815 55.082C61.5161 55.5786 60.647 55.8683 59.5987 55.8683H55.0745ZM57.0744 51.4544V54.2131H59.378C60.3436 54.2131 60.9229 53.6751 60.9229 52.875C60.9229 51.9371 60.2332 51.4544 59.3228 51.4544H57.0744ZM57.0744 49.9784H59.2401C60.109 49.9784 60.7022 49.5646 60.7022 48.7922C60.7022 48.0612 60.1643 47.6335 59.2814 47.6335H57.0744V49.9784ZM84.6825 66.3165V70.9089H85.6834V66.3459L89.5103 60.3847H88.4506L85.2124 65.4775H85.1829L81.9742 60.3847H80.8849L84.6825 66.3165ZM71.0229 70.9089V60.3847H72.0973L76.9399 67.7737C77.4698 68.5685 77.985 69.5105 77.985 69.5105H78.0144V60.3847H78.9565V70.9089H77.9261L73.0982 63.6082C72.6125 62.8723 71.9943 61.8272 71.9943 61.8272H71.9649V70.9089H71.0229ZM62.536 67.9798C62.536 70.1435 63.6546 71.1002 65.5093 71.1002C67.4227 71.1002 68.3353 69.9374 68.3353 68.3919V60.3847H67.3491V68.3183C67.3491 69.6725 66.6721 70.2612 65.5387 70.2612C64.1993 70.2612 63.5075 69.6577 63.5075 67.9356V67.5824H62.536V67.9798ZM57.87 70.9089V66.3165L54.0725 60.3847H55.1617L58.3705 65.4775H58.3999L61.6381 60.3847H62.6979L58.8709 66.3459V70.9089H57.87ZM44.2445 65.6542C44.2445 68.8777 46.055 71.1003 48.9841 71.1003C50.3235 71.1003 51.4274 70.6587 52.1634 69.8344C52.7963 69.1427 53.1937 68.1123 53.2526 67.082H52.2959C52.1339 68.8188 51.03 70.2319 48.9988 70.2319C46.5848 70.2319 45.2748 68.2889 45.2748 65.6542C45.2748 63.0637 46.5407 61.0177 49.0135 61.0177C50.7356 61.0177 51.8248 61.9892 52.1045 63.3581H53.076C52.7227 61.4004 51.2508 60.164 49.0282 60.164C46.055 60.164 44.2445 62.4749 44.2445 65.6542ZM34.2095 70.9089L38.1837 60.3847H39.3024L43.306 70.9089H42.2462L41.0245 67.5971H36.4469L35.2104 70.9089H34.2095ZM36.7412 66.7875H40.7301L39.2876 62.8575C39.0669 62.2688 38.7578 61.3268 38.7578 61.3268H38.7283C38.7283 61.3268 38.4487 62.2246 38.2131 62.8575L36.7412 66.7875ZM26.2596 60.3847V70.9089H32.8537V69.9963H27.2457V60.3847H26.2596ZM18.9836 70.2319C21.5153 70.2319 22.8694 68.1859 22.8694 65.6395C22.8694 63.0931 21.5153 61.0472 18.9836 61.0472C16.4666 61.0472 15.1272 63.0931 15.1272 65.6395C15.1272 68.1859 16.4666 70.2319 18.9836 70.2319ZM18.9836 71.115C16.0103 71.115 14.0968 68.7747 14.0968 65.6395C14.0968 62.5044 16.0103 60.164 18.9836 60.164C21.9716 60.164 23.8998 62.5044 23.8998 65.6395C23.8998 68.7747 21.9716 71.115 18.9836 71.115ZM5.30342 60.3847V70.9089H6.28961V67.1997L8.17365 65.3451L12.3392 70.9089H13.5167L8.85073 64.668L13.2517 60.3847H11.9712L6.28961 65.9927V60.3847H5.30342ZM94.0656 19.2255C94.0621 20.0843 93.4151 20.7958 92.6326 20.7994C91.9162 20.8028 91.0883 19.9616 91.0814 19.2221C91.0744 18.4439 91.8501 17.6868 92.6395 17.6973C93.4083 17.7078 94.0656 18.4158 94.0621 19.2255H94.0656ZM1.353 37.4016C2.0034 37.4086 2.53208 36.8302 2.53556 36.1081C2.54251 35.3862 1.95819 34.7797 1.26257 34.7832C0.646945 34.7868 0.00349377 35.4598 1.27573e-05 36.1047C-0.00346826 36.7145 0.706068 37.3946 1.353 37.4016ZM12.2778 2.92954C12.9699 4.29304 13.6168 5.68109 13.5056 7.36006C12.8864 6.95346 12.1282 4.18438 12.2778 2.92954ZM95.9366 15.1711C95.4533 15.1641 95.1889 15.3884 95.1819 15.809L95.1854 15.8055C95.175 16.3172 95.481 16.6853 95.9366 16.7064C96.3506 16.7274 96.688 16.3523 96.6949 15.8685C96.6984 15.427 96.4305 15.1816 95.9366 15.1711ZM71.8471 30.1822C71.8096 29.876 71.8022 29.5595 71.8743 29.3525C71.7585 29.4488 71.642 29.5446 71.5253 29.6405C71.2237 29.8884 70.9214 30.1369 70.6297 30.396C68.9881 31.8471 67.1204 32.7269 64.8944 32.6778C63.8927 32.6533 63.0684 32.2221 62.4214 31.4511C61.6041 30.4801 61.232 29.3339 61.0859 28.0826C61.0641 27.898 61.0426 27.7133 61.0211 27.5286L61.0206 27.5243C60.8635 26.174 60.7061 24.8212 60.4494 23.4873C60.1746 22.0607 59.712 21.8259 58.3068 22.1763C56.5539 22.6145 55.2601 23.7327 54.3314 25.2118C53.4496 26.6176 52.6557 28.084 51.8629 29.5482L51.8629 29.5483L51.8624 29.5491C51.6828 29.8808 51.5033 30.2124 51.3228 30.5432L51.2546 30.6686C50.4291 32.1864 49.607 33.6981 48.429 34.9807C47.9213 35.531 47.5387 35.5766 46.9299 35.1454C46.283 34.6898 46.0326 34.0203 45.9839 33.2667C45.8866 31.777 46.3421 30.3889 46.836 29.0184C47.1317 28.1913 47.4586 27.3745 47.8238 26.5788C48.836 24.3601 49.8028 22.1343 50.2585 19.7087C50.3906 19.0112 50.7385 18.3382 51.0689 17.7002C51.3646 17.1324 51.8376 16.7293 52.5367 16.7118C52.8845 16.7013 53.1732 16.7679 53.2497 17.185C53.314 17.1797 53.3689 17.1744 53.418 17.1697L53.4182 17.1697C53.499 17.1619 53.5639 17.1556 53.6288 17.1535C54.2166 17.1289 54.4948 17.3393 54.4775 17.9421C54.4594 18.5411 54.3767 19.1374 54.294 19.7334C54.2809 19.828 54.2678 19.9226 54.2549 20.0172C54.2166 20.2826 54.1552 20.5464 54.0843 20.8509C54.0523 20.9887 54.0183 21.1348 53.9836 21.2931C54.1611 21.182 54.3236 21.0787 54.4771 20.981C54.7208 20.8262 54.9421 20.6854 55.1661 20.5499L55.2289 20.5115C56.147 19.9493 57.0658 19.3866 58.1643 19.2461C58.7521 19.1689 59.2877 19.2775 59.8025 19.6036C60.0285 19.7438 60.3381 19.828 60.6059 19.8139C61.6284 19.7578 62.2406 20.2625 62.6476 21.1493C63.2423 22.4462 63.5031 23.8273 63.7188 25.2223C63.7542 25.4555 63.788 25.6893 63.8218 25.9233C63.9441 26.7693 64.0667 27.6179 64.2683 28.4471C64.6787 30.1296 65.5866 30.5432 67.1622 29.8316C68.5078 29.2258 69.6525 28.3191 70.7988 27.4113C70.9325 27.3054 71.0662 27.1995 71.2002 27.0941C71.948 26.5052 72.5288 25.8533 72.8732 24.9174C73.3184 23.7047 74.0453 22.6145 75.0504 21.7803C75.4678 21.4333 75.9721 21.1283 76.4869 20.9741C77.4052 20.7007 78.0278 21.3211 77.8851 22.278C77.7165 23.4104 77.204 24.4135 76.6944 25.4111C76.6472 25.5036 76.6 25.596 76.5531 25.6885C76.2682 26.2468 75.9765 26.8015 75.6848 27.3562L75.6841 27.3576L75.684 27.3579C75.3916 27.9137 75.0993 28.4696 74.8139 29.029C74.6748 29.3058 74.5949 29.6143 74.5705 29.9859C74.6181 29.9579 74.6664 29.9313 74.7148 29.9048C74.8113 29.8519 74.9079 29.7989 74.9983 29.7336C78.6398 27.1222 81.6485 23.9009 83.9996 20.0698C84.9666 18.4959 86.1178 17.0833 87.4499 15.818C88.1595 15.145 89.0011 14.7103 90.0029 14.7139C90.2672 14.7139 90.5455 14.7839 90.7854 14.8927C91.3976 15.1765 91.5923 15.6462 91.2514 16.2281C90.8946 16.8297 90.466 17.385 90.0387 17.9387L90.0385 17.9389L89.909 18.1069C87.6517 21.0442 85.9926 24.2794 85.1614 27.9178C85.0806 28.2692 84.999 28.6198 84.9174 28.9703L84.9169 28.9724C84.8335 29.331 84.75 29.6895 84.6675 30.049C83.9023 31.1882 83.1544 32.3379 82.4206 33.4945C82.5493 31.0585 82.918 28.6399 83.4675 26.2493C83.5219 26.0163 83.5542 25.7772 83.5864 25.538C83.6036 25.4103 83.6208 25.2826 83.6414 25.1557C83.6288 25.1499 83.6164 25.1443 83.6042 25.1388C83.5951 25.1348 83.5861 25.1308 83.5771 25.1268C83.5548 25.1169 83.5324 25.107 83.5092 25.0962C83.4657 25.1507 83.4209 25.2043 83.376 25.2579L83.376 25.258C83.274 25.38 83.1719 25.5021 83.0849 25.636C82.7664 26.1315 82.4538 26.6313 82.1413 27.131C81.4746 28.1973 80.8079 29.2634 80.0833 30.2873C79.4503 31.1812 78.6712 31.9839 77.8747 32.741C76.7304 33.8275 75.3705 33.9046 73.9619 33.3263C72.5741 32.7585 72.0211 31.5913 71.8471 30.1822Z" fill="#231F20"></path>
</svg>
