<?xml version="1.0" encoding="UTF-8"?>
<svg xmlns="http://www.w3.org/2000/svg" width="61" height="79" viewBox="0 0 61 79" fill="none">
  <path fill-rule="evenodd" clip-rule="evenodd" d="M38.8308 53.1289C38.8589 52.9957 38.8815 52.8889 38.9867 52.7845L39.0654 50.6977C38.9154 50.738 38.7425 50.6543 38.5803 50.5757C38.3193 50.4493 38.086 50.3363 38.0212 50.7756C38.2626 51.1108 38.3371 51.5334 38.4103 51.9491C38.4873 52.3866 38.5631 52.8164 38.8308 53.1289ZM36.279 51.6554C36.2985 51.4564 36.319 51.247 36.3528 51.0141C36.3769 50.5933 35.3585 50.1421 35.3063 50.7764C35.6009 51.0509 35.6068 51.5007 35.6124 51.9219C35.6186 52.3953 35.6244 52.8325 36.0387 52.9442C36.199 52.4732 36.2366 52.0889 36.279 51.6554ZM33.0042 51.5889C32.9884 51.2485 32.9722 50.8979 33.1501 50.6985C33.2301 50.0953 32.7347 50.1196 32.2859 50.1415C32.145 50.1484 32.0087 50.1551 31.8963 50.1421C31.6419 50.1754 31.6692 50.2768 31.7053 50.4108C31.7283 50.4965 31.7549 50.5955 31.7139 50.6985C32.0804 50.9206 32.0687 51.3006 32.0571 51.6755C32.048 51.9687 32.0391 52.2589 32.2111 52.4681C33.0549 52.6819 33.0302 52.1492 33.0042 51.5889ZM5.09702 55.9717C5.50476 56.0496 5.97441 56.1392 6.18647 55.6911C6.10176 55.6794 6.03856 55.6166 5.9761 55.5546C5.88397 55.463 5.79344 55.3731 5.63787 55.4511C5.55237 55.5713 5.35112 55.5746 5.16418 55.5776C4.89792 55.5819 4.66067 55.5858 4.82823 55.9264C4.91185 55.9363 5.0027 55.9537 5.09686 55.9717L5.09694 55.9717L5.09702 55.9717ZM4.93058 54.5605C5.30198 54.6369 5.6653 54.7116 6.02828 54.5534C5.94306 54.4322 5.83452 54.3794 5.7258 54.3265C5.66949 54.2991 5.61313 54.2716 5.55995 54.2347C5.49042 54.2296 5.40146 54.2135 5.30345 54.1957C4.92028 54.1264 4.39868 54.0319 4.35835 54.4731C4.55182 54.4826 4.74221 54.5217 4.93051 54.5605L4.93058 54.5605ZM13.8985 54.9873C13.8392 54.8214 13.7783 54.6513 13.7538 54.4739L13.7551 54.4702C13.8861 54.1018 13.9886 53.814 13.5995 53.6027C12.9387 53.5282 12.943 54.22 12.9461 54.7215L12.9463 54.7622L12.9465 54.8183C12.8436 55.5041 13.0758 56.1376 13.834 56.0854C14.1604 55.719 14.0334 55.3643 13.8985 54.9873ZM11.2684 53.3463C11.3435 53.4164 11.4172 53.4851 11.5384 53.4445C11.7955 52.7845 11.695 51.8089 11.6171 51.1722C11.1031 51.3003 11.1941 51.6878 11.2978 52.1299C11.3891 52.5191 11.4904 52.9506 11.1978 53.2848C11.2224 53.3034 11.2455 53.3249 11.2684 53.3463ZM5.01058 52.3879L4.74953 51.2533C4.41809 50.938 3.93841 50.9398 3.4534 50.9417H3.45323C3.32822 50.9422 3.20286 50.9426 3.0796 50.9377C2.83028 51.0269 2.83697 51.3381 2.84316 51.626C2.8441 51.6701 2.84504 51.7137 2.84504 51.7559C2.68919 52.2312 2.11411 52.204 1.7502 52.073C1.20005 52.0466 0.392742 52.0466 0 52.3886L1.01848 52.7853C1.37033 53.0623 1.69043 52.9694 2.02017 52.8736C2.34987 52.7779 2.68922 52.6793 3.0796 52.945C3.28921 52.7331 3.36714 52.4689 3.34064 52.1525C3.43642 51.8773 3.66208 51.8926 3.88949 51.908C3.96921 51.9134 4.04915 51.9188 4.12379 51.9117C4.36014 52.0471 4.39637 52.2908 4.42978 52.5156C4.45564 52.6896 4.4798 52.8521 4.59368 52.9442C4.98642 53.1539 5.50852 53.2318 5.87243 53.2061C6.26283 53.471 6.57687 53.0736 6.60336 52.7035C6.31622 52.1929 5.73486 52.2813 5.26109 52.3533L5.26102 52.3533L5.26097 52.3534C5.17293 52.3667 5.0886 52.3796 5.01058 52.3879ZM13.9904 50.3714C13.9383 50.096 13.8859 49.8196 13.9119 49.5639C13.7538 49.0348 12.8436 49.1937 12.7898 49.7478C12.9592 49.9891 12.9576 50.3421 12.956 50.6894C12.9533 51.2527 12.9508 51.801 13.6782 51.8338C14.1976 51.4649 14.0944 50.9201 13.9904 50.3714ZM9.46002 47.7232C9.66441 47.3713 9.88267 46.9955 9.76166 46.6059C9.74033 46.5842 9.71966 46.561 9.69896 46.5378L9.69892 46.5378C9.59409 46.4203 9.48854 46.3021 9.29333 46.3659C9.08527 46.4999 8.89903 46.8163 8.97852 47.1583C8.27098 48.0348 8.5773 48.9196 8.89097 49.8256C9.14455 50.5581 9.40295 51.3044 9.13437 52.0715C9.04652 52.3898 8.7711 52.3891 8.515 52.3885C8.23952 52.3878 7.98637 52.3872 8.01303 52.7837C8.61383 52.8881 9.00501 53.4975 8.74396 54.0773C8.54441 54.1625 8.3159 54.2006 8.09173 54.238C7.75828 54.2936 7.43445 54.3476 7.22988 54.5526C7.45845 54.6588 7.73119 54.6471 8.0114 54.6351H8.01143H8.01147C8.15061 54.6291 8.2916 54.623 8.42993 54.6313C8.79931 54.7169 8.92051 55.0089 9.04337 55.3049C9.11179 55.4697 9.18073 55.6358 9.29333 55.7682C9.08458 55.9396 8.797 55.933 8.50617 55.9264C8.2151 55.9198 7.92078 55.9131 7.69899 56.0846C7.79401 56.5507 8.18997 56.5272 8.5918 56.5034C8.84905 56.4882 9.10871 56.4728 9.29333 56.5857C9.4445 56.5857 9.5081 56.7041 9.5657 56.8113C9.61678 56.9064 9.66315 56.9928 9.76166 56.98C9.91751 56.1633 9.94479 55.2921 9.94479 54.3952C10.1357 53.6415 10.1188 52.8061 10.1018 51.9666C10.0932 51.5416 10.0846 51.1155 10.103 50.6985C10.0564 50.6049 10.0066 50.5131 9.95691 50.4214C9.72617 49.9958 9.49746 49.5739 9.60581 49.0091C8.92613 48.6424 9.18006 48.2052 9.46002 47.7232ZM21.0262 46.8836C21.0231 46.6995 21.02 46.5157 21.0623 46.3666C20.9851 46.1759 20.8389 46.1485 20.6951 46.1216C20.601 46.104 20.5079 46.0866 20.4358 46.0238C20.4057 46.1165 20.3555 46.2116 20.3026 46.3115C20.1747 46.5531 20.0318 46.8232 20.1233 47.1583C20.1854 47.2204 20.2295 47.3064 20.2734 47.3923C20.3603 47.562 20.4469 47.7313 20.6719 47.7147C21.0387 47.6267 21.0324 47.2548 21.0262 46.8836ZM15.7334 47.979C15.5389 47.264 15.3426 46.5421 15.0341 45.8671C14.934 45.7317 14.8286 45.4815 14.7135 45.2085C14.38 44.4167 13.9654 43.4326 13.3634 44.4941C13.3634 45.4233 13.0609 46.258 12.766 47.0721C12.5413 47.6924 12.3209 48.3007 12.242 48.9296C12.5577 49.0168 12.644 48.8395 12.7365 48.6494C12.8119 48.4946 12.8914 48.3313 13.1023 48.2953C13.1196 48.2066 13.134 48.1134 13.1486 48.019C13.2207 47.552 13.2974 47.055 13.7538 46.9215C14.9542 48.4704 14.8489 50.5259 14.7468 52.5188C14.7113 53.2129 14.6761 53.8994 14.6967 54.5542C15.3951 54.922 15.3726 55.6822 15.3486 56.4923L15.3481 56.5077C15.3481 56.7976 15.5827 57.2465 15.8928 57.0626C16.2847 56.1154 16.1236 55.0711 15.9704 54.0774C15.8972 53.6028 15.8258 53.1397 15.8172 52.7042C15.9132 52.1764 15.9062 51.6108 15.8992 51.0465C15.8908 50.3688 15.8825 49.6929 16.0525 49.087C15.9362 48.7247 15.835 48.3528 15.7334 47.979ZM10.2588 45.5508C10.103 44.6001 10.4388 43.8318 10.8838 43.146C10.8646 43.1034 10.8449 43.0528 10.8239 42.999L10.8238 42.9989L10.8238 42.9989C10.7017 42.6857 10.5365 42.2621 10.1801 42.6457C10.2673 43.2332 9.96583 43.6494 9.66328 44.067C9.42247 44.3995 9.18099 44.7328 9.13437 45.1541C9.34476 45.3131 9.42269 45.5219 9.37126 45.7861C9.63231 46.104 10.1536 45.9201 10.2588 45.5508ZM25.684 42.001C25.6754 41.8149 25.6669 41.63 25.6833 41.4566C25.7543 41.0226 25.3508 41.0289 25.061 41.0334C25.0329 41.0338 25.0058 41.0343 24.9804 41.0343C24.7703 41.2975 24.7941 41.6447 24.8177 41.9875C24.8295 42.1581 24.8411 42.3277 24.8238 42.4852C24.7311 42.8783 25.118 42.9694 25.4079 43.0377L25.4079 43.0377L25.4081 43.0378C25.4497 43.0475 25.4892 43.0569 25.5251 43.0665C25.7192 42.7662 25.7015 42.3812 25.684 42.001ZM13.5995 41.1122C13.8605 40.9813 14.173 40.6914 14.0686 40.3205C13.9681 40.1731 13.9377 39.9553 13.9075 39.7396C13.8511 39.3363 13.7957 38.9403 13.2854 39.0261C13.0493 39.1064 12.8678 39.3456 12.9465 39.609C13.0811 39.787 13.1007 40.0736 13.1195 40.3493C13.148 40.7677 13.1749 41.161 13.5995 41.1122ZM17.3313 38.3139L17.7217 38.6319V38.3139H17.3313ZM11.1978 41.6951C10.9633 40.8223 10.9368 39.6605 11.5384 38.9482C11.5882 38.6038 11.4854 38.0755 11.0396 38.3918C11.0835 38.8603 10.8242 39.2145 10.566 39.5671C10.3569 39.8526 10.1487 40.1371 10.103 40.4802C10.1423 40.6486 10.1552 40.8268 10.168 41.0044C10.1975 41.4114 10.2268 41.8153 10.5729 42.0909C10.9079 42.3278 11.222 42.0644 11.1978 41.6951ZM13.5208 32.6628L13.6782 32.4267C13.582 32.2077 13.5494 31.9283 13.5168 31.6476C13.4508 31.0803 13.3841 30.5078 12.7898 30.4186C12.5575 30.7238 12.49 31.1136 12.4241 31.494C12.4159 31.5409 12.4078 31.5877 12.3994 31.6342C12.2786 31.8684 12.3012 32.177 12.3237 32.4846C12.3595 32.9744 12.3951 33.4615 11.8508 33.64C12.1114 34.4134 11.7351 34.9182 11.3619 35.4187C11.1749 35.6696 10.9886 35.9194 10.8838 36.2014C10.7809 36.81 10.7529 37.5214 11.3537 37.8129C11.9058 37.6054 11.7801 37.2619 11.6415 36.883C11.551 36.6356 11.4549 36.3731 11.5384 36.1235C12.0478 35.4664 12.2646 34.6899 12.4813 33.9137C12.6308 33.3781 12.7803 32.8425 13.0259 32.3465L13.5208 32.6628ZM20.9354 31.3582C21.0945 31.2153 21.253 31.0729 21.1426 30.8152C20.7329 30.4545 20.6633 30.081 20.5851 29.6621C20.5488 29.4675 20.5107 29.2631 20.4358 29.0456C20.3846 29.0544 20.327 29.0514 20.2693 29.0484C20.1533 29.0424 20.0367 29.0363 19.9691 29.1258C19.9308 29.7827 19.8283 30.4534 19.7339 31.0711L19.7338 31.0714C19.6955 31.3219 19.6585 31.5638 19.6277 31.7924C19.8393 31.8772 20.0276 31.7861 20.2215 31.6922C20.3875 31.6119 20.5576 31.5295 20.7499 31.554C20.7972 31.4823 20.8664 31.4202 20.9354 31.3582ZM56.4006 56.9657C56.3958 56.6914 56.3911 56.4284 56.4824 56.2428C56.4824 56.0051 56.1948 55.7425 55.9073 55.8462C55.611 56.1289 55.6411 56.54 55.6709 56.9474C55.6857 57.1497 55.7004 57.3512 55.6751 57.5356C55.6221 57.8527 56.039 58.1964 56.2237 57.9306C56.4134 57.6812 56.4068 57.3143 56.4006 56.9657ZM54.553 58.1964C54.8405 58.2236 55.1241 58.1434 55.2028 57.8535C55.1665 57.7002 55.1332 57.5426 55.0997 57.3839C54.9656 56.7493 54.8273 56.0948 54.4727 55.6093L54.1586 55.9264C54.2591 56.1977 54.2031 56.5464 54.1478 56.8914C54.0579 57.451 53.9696 58.0011 54.553 58.1964ZM52.82 55.7837L52.8033 55.6479C52.7985 55.6082 52.7938 55.569 52.7895 55.5306H52.4755C52.4414 55.7329 52.3806 55.9263 52.3194 56.1206C52.1971 56.5093 52.0736 56.9018 52.1614 57.3766C52.2131 57.421 52.2449 57.4969 52.2767 57.5727C52.3408 57.7257 52.405 57.8787 52.6321 57.774C53.0033 57.2593 52.9035 56.4555 52.82 55.7837ZM50.8362 56.7709C50.8564 56.5824 50.8768 56.392 50.9466 56.2428C50.9154 56.1792 50.8917 56.0956 50.8667 56.0075C50.7883 55.7309 50.6976 55.4106 50.3216 55.5306C50.0582 56.0308 50.0582 56.98 50.3216 57.5356C50.7562 57.5189 50.7958 57.1486 50.8362 56.7709ZM56.5268 53.7412C56.5722 53.6573 56.6208 53.5676 56.7193 53.5232C56.6676 53.3404 56.6927 53.1114 56.7176 52.8838C56.7683 52.4216 56.8184 51.965 56.2237 51.9117C55.8831 52.4416 55.8831 53.3923 56.2237 53.9199C56.4053 53.9658 56.463 53.8592 56.5268 53.7412ZM55.0446 52.6955V52.6955V52.6955C55.0283 52.4734 55.0121 52.2532 55.0462 52.0723C54.9717 51.8844 54.8176 51.8967 54.6598 51.9094C54.5964 51.9144 54.5323 51.9196 54.4727 51.9117C54.1952 52.0881 54.2174 52.4512 54.24 52.8223C54.2514 53.0087 54.2629 53.1972 54.2366 53.365C54.2927 53.5505 54.422 53.8926 54.7072 53.7617C55.1124 53.6189 55.0782 53.1535 55.0446 52.6955ZM52.8701 52.4576V52.4576V52.4576C52.8665 52.3265 52.863 52.1965 52.8698 52.0723C52.9703 51.6491 52.2378 51.3593 52.1614 51.8338C52.205 52.0268 52.1823 52.2729 52.1594 52.5201C52.1136 53.0155 52.0674 53.5156 52.5534 53.6035C52.8935 53.3193 52.8817 52.8831 52.8701 52.4576ZM50.4759 53.1289C50.765 52.9442 51.0783 52.6536 50.9466 52.2305C50.9996 51.8089 50.5811 51.0951 50.1369 51.5969L50.1368 51.6973C50.1353 52.2179 50.134 52.7291 50.4759 53.1289ZM46.6966 53.2856C47.0597 53.5497 47.3223 53.1009 47.3223 52.7845C47.2455 52.5236 47.2943 52.2624 47.3414 52.0103C47.4086 51.651 47.4723 51.3102 47.1641 51.0148C47.0669 51.1011 46.9416 51.1071 46.8198 51.1129C46.6798 51.1197 46.5445 51.1261 46.462 51.2541C46.1721 51.8853 46.25 52.758 46.6966 53.2856ZM46.1234 52.082C46.1096 51.8807 46.0959 51.6823 46.1207 51.5174C46.0519 51.448 45.9988 51.3513 45.9456 51.2546C45.8168 51.0203 45.6878 50.7856 45.336 50.9361C45.1552 51.0943 44.997 51.3842 45.1817 51.5969C45.2517 51.7642 45.2543 51.9905 45.257 52.2178C45.2624 52.6714 45.2678 53.1289 45.8082 53.1289C46.1856 52.9837 46.154 52.5257 46.1234 52.082ZM42.7063 51.6739C42.677 51.3902 42.6474 51.1043 42.6998 50.8566C42.5167 50.5411 41.6579 50.407 41.7616 51.0141C41.5512 51.7543 41.7078 52.571 42.2314 53.0222C42.8221 52.794 42.7647 52.2383 42.7063 51.6739ZM47.2775 45.128C47.3259 44.9292 47.3717 44.7412 47.401 44.5736C47.104 44.2862 46.6608 44.2573 46.2093 44.2278C45.7475 44.1976 45.277 44.1668 44.9456 43.8582C44.8894 43.915 44.7895 43.9275 44.6916 43.9398C44.5167 43.9617 44.3485 43.9828 44.4484 44.2541C44.9009 44.6748 44.8775 45.399 44.8556 46.0761C44.8458 46.3772 44.8363 46.669 44.8692 46.9207C44.7452 47.0208 44.6391 46.9971 44.5397 46.975C44.4286 46.9503 44.326 46.9274 44.2162 47.0812C44.1636 47.2212 44.2501 47.2913 44.3365 47.3615C44.3795 47.3963 44.4225 47.4312 44.4484 47.4747C45.5207 47.7404 46.7456 48.0062 47.6332 47.5558C46.8065 47.0616 47.067 45.9922 47.2775 45.128ZM39.5197 42.8819V42.7221C39.3856 42.6192 38.9415 42.5655 39.0467 42.8819H39.5197ZM41.9174 42.2514C42.5704 41.9312 42.5977 41.0608 42.5431 40.3205C42.3631 40.1101 42.1535 39.9792 41.9174 39.9246C41.4955 40.0832 41.5101 40.5088 41.5238 40.9073C41.5262 40.977 41.5286 41.0458 41.5286 41.1122C41.4386 41.2026 41.3402 41.2672 41.2491 41.3269C41.0216 41.4762 40.8403 41.5951 40.9527 42.0114C41.2371 42.2234 41.6579 42.3005 41.9174 42.2514ZM46.0442 40.473C46.0426 40.4181 46.0412 40.3667 46.0412 40.3205C45.989 40.0306 45.8331 39.7929 45.4942 39.8459C45.0068 39.8111 45.0532 40.1979 45.0996 40.5843V40.5844C45.1229 40.7781 45.1462 40.9717 45.1022 41.1122C45.1382 41.3464 45.3188 41.3968 45.4958 41.4463C45.5791 41.4696 45.6616 41.4926 45.7279 41.5345C46.068 41.3308 46.054 40.8279 46.0442 40.473ZM43.8975 37.5738C44.0866 37.2978 44.2725 37.0264 44.2162 36.7048C44.3705 35.991 43.3286 35.9364 43.119 36.4655C42.5418 36.5489 42.0072 36.7343 41.4718 36.92C40.8211 37.1458 40.1693 37.3718 39.4386 37.4154C39.2728 37.4594 39.0955 37.477 38.9175 37.4948C38.5619 37.5302 38.2031 37.5659 37.9253 37.8121C37.976 39.3449 38.1318 41.0335 38.4201 42.5647C38.6235 42.4762 38.666 42.3062 38.7083 42.1363C38.742 42.001 38.7757 41.8659 38.8908 41.7722C39.054 41.5958 39.2691 41.6086 39.4689 41.6205C39.7166 41.6353 39.9408 41.6487 40.0137 41.2984C39.7505 41.1389 39.4993 41.2167 39.252 41.2934C39.131 41.3309 39.0109 41.3682 38.8908 41.3771C38.71 41.2189 38.6033 41.0343 38.6539 40.7974C38.7623 40.5459 38.8801 40.5824 39.0234 40.6268C39.1221 40.6574 39.2331 40.6918 39.3615 40.6384C39.4835 40.5486 39.6391 40.4953 39.7958 40.4416C40.1027 40.3364 40.4137 40.2299 40.4844 39.8451C40.0983 39.7037 39.7017 39.7751 39.3096 39.8456C39.1161 39.8805 38.9237 39.9151 38.7342 39.9238C38.5783 39.8202 38.5511 39.6869 38.5783 39.5038C39.0732 39.5553 39.6467 39.3176 40.0924 38.9482C40.1077 38.355 40.563 38.2432 41.0461 38.1246C41.4027 38.0371 41.7743 37.9459 41.9953 37.6547C42.2196 37.9232 42.1668 38.2146 42.1135 38.5085C42.0673 38.763 42.0208 39.0194 42.1535 39.2646C42.3062 39.2423 42.4366 39.3181 42.5636 39.392C42.7386 39.4938 42.9072 39.5919 43.119 39.4243C43.3097 39.3722 43.4075 39.2031 43.5056 39.0336C43.5555 38.9475 43.6054 38.8612 43.6676 38.79C43.4019 38.2973 43.6523 37.9317 43.8975 37.5738ZM41.9953 36.1235C41.9174 36.2809 42.0748 36.4414 42.2314 36.3861V36.1235H41.9953ZM29.3364 44.3351C29.3115 44.519 29.3629 44.5728 29.4938 44.6772L29.6489 44.4933L29.3364 44.3351ZM33.5029 43.653L33.5029 43.6529L33.5029 43.6529C33.41 43.4834 33.3182 43.3158 33.2529 43.146C33.1609 43.0292 33.1655 42.8658 33.17 42.7089C33.1756 42.5111 33.1809 42.3235 32.9919 42.2522C32.8008 42.5496 32.8181 42.9315 32.8353 43.3099V43.3099V43.31C32.8438 43.4977 32.8523 43.6846 32.8353 43.8598C32.8233 44.0148 32.7115 44.1322 32.599 44.2504C32.4615 44.3948 32.323 44.5403 32.3646 44.7567C32.3141 44.8989 32.425 44.946 32.5351 44.9928C32.5898 45.0161 32.6442 45.0392 32.6786 45.0739C32.9919 45.2321 33.5911 45.3396 33.8015 45.0739C33.9897 44.5413 33.7429 44.0909 33.5029 43.653ZM31.5043 40.1615V40.0828C31.4472 40.064 31.4007 40.0277 31.356 39.9928C31.2768 39.9311 31.203 39.8736 31.0851 39.9238L31.0087 40.1615H31.5043ZM25.3077 29.5406C25.3298 29.4277 25.3518 29.3155 25.3685 29.2045L25.2126 28.8079C24.3307 28.7657 24.3805 29.225 24.4388 29.7618C24.4891 30.2252 24.5456 30.7463 24.0141 31.0521C24.1546 31.6403 24.7226 31.5909 25.2464 31.5455C25.4985 31.5236 25.7404 31.5026 25.9194 31.554C26.1451 31.2096 25.9177 31.1097 25.6701 31.0009C25.5193 30.9346 25.361 30.865 25.2929 30.735C25.1503 30.3447 25.2298 29.9384 25.3077 29.5406ZM23.7745 3.15767C23.5543 2.64867 23.3295 2.12873 23.3876 1.53122C23.3448 1.39308 23.3437 1.20975 23.3425 1.01634C23.34 0.618409 23.3373 0.177763 22.9707 0C22.7199 0.473391 22.6732 1.03389 22.6266 1.59349C22.5615 2.37602 22.4964 3.15679 21.8735 3.69518C21.5595 4.35676 21.4527 5.30588 21.6374 5.96746C21.3416 6.56411 21.2537 7.22572 21.1652 7.89158C21.0502 8.75715 20.9342 9.62989 20.3595 10.3764C19.8888 10.9312 20.2036 11.7495 20.4358 12.3035C20.2822 12.8221 20.2254 13.3775 20.1688 13.9313C20.0814 14.7872 19.9944 15.6389 19.5506 16.3439C19.3573 16.5077 19.215 16.4107 19.0666 16.3096C18.9524 16.2318 18.8346 16.1515 18.6872 16.1857C18.2158 16.8582 18.1487 17.7265 18.0822 18.5868C18.0678 18.7733 18.0534 18.9593 18.035 19.1429C17.6403 19.6187 17.6416 20.2586 17.6429 20.8861L17.643 20.9921C18.4189 21.3754 18.3523 22.1733 18.2859 22.9679C18.2517 23.3767 18.2176 23.7846 18.2983 24.1348C18.0607 24.6623 17.802 25.2429 18.3747 25.666L18.4526 33.2434C18.4159 33.2733 18.3789 33.3075 18.3413 33.3424L18.3412 33.3424L18.3412 33.3425C18.2464 33.4303 18.147 33.5224 18.035 33.5597C17.5706 33.5988 17.0883 33.4782 16.6134 33.3596C15.8073 33.1582 15.0225 32.9621 14.3826 33.5597C14.1659 33.4913 14.1451 33.325 14.1252 33.1652C14.1065 33.0158 14.0885 32.8722 13.9119 32.8195C13.5714 32.98 13.5714 33.4273 13.5995 33.7982C14.1275 34.1501 14.3076 34.6971 14.4873 35.2431C14.6447 35.7212 14.8019 36.1986 15.1923 36.5435C15.7484 35.9034 15.2966 34.8394 14.9831 34.1012L14.9554 34.0359C15.0341 33.9042 15.1923 33.8512 15.3481 33.8769C15.6215 34.209 16.0232 34.2222 16.4226 34.2353C16.7862 34.2472 17.1478 34.2591 17.4092 34.5112C17.3626 34.5678 17.2894 34.6008 17.2182 34.633C17.0895 34.691 16.9672 34.7462 17.0188 34.9328C17.1976 35.1537 17.4656 35.1571 17.7322 35.1605C18.0072 35.1641 18.2805 35.1675 18.4526 35.4097C18.3157 35.9504 17.9365 35.8301 17.5307 35.7013C17.2435 35.6102 16.9429 35.5148 16.7056 35.6466V35.8048C16.9032 36.0682 17.2181 36.0578 17.5364 36.0473C17.8894 36.0357 18.2465 36.0239 18.4526 36.3853C18.6167 37.1825 18.1517 37.0719 17.6735 36.9582C17.3907 36.8909 17.1033 36.8226 16.9386 36.9401C17.1497 37.1058 17.4188 37.1712 17.6844 37.2356C18.0106 37.3148 18.3314 37.3927 18.5329 37.6539C18.5081 38.0294 18.5159 38.4455 18.5239 38.8716C18.5418 39.8232 18.5606 40.8244 18.2189 41.5338C17.9578 41.4839 17.7474 41.3499 17.5674 41.1114C17.6703 40.1374 17.1731 39.3456 16.443 38.79C16.6775 38.2625 16.443 37.6547 16.2076 37.2588C15.9216 37.0991 15.5305 36.916 15.1923 37.0991C15.2686 37.4965 15.4775 37.8378 15.7408 38.1557C15.8091 38.6541 16.0118 39.0999 16.2151 39.547C16.5502 40.2841 16.887 41.0249 16.6261 42.0114L17.5674 42.8819C17.6927 43.0975 17.7285 43.3747 17.7637 43.6476C17.8235 44.1111 17.8817 44.5622 18.3747 44.678C17.9297 45.3137 18.0036 46.2198 18.0703 47.0394C18.0895 47.2747 18.1081 47.5029 18.1137 47.7155C18.5623 48.4721 18.2095 48.6621 17.8321 48.8654C17.4858 49.052 17.1187 49.2497 17.3313 49.9067C16.9264 50.5431 17.2907 50.7106 17.6732 50.8865C18.0055 51.0392 18.3514 51.1983 18.2189 51.6764C18.6023 52.0463 18.5673 52.5918 18.5325 53.1335C18.5151 53.4043 18.4978 53.6742 18.5329 53.9206C18.482 54.2917 18.2178 54.3351 17.9671 54.3763C17.6992 54.4204 17.4469 54.4619 17.4871 54.8978C17.4921 54.9866 17.4925 55.0919 17.4929 55.2077C17.4947 55.7123 17.4973 56.4162 17.8814 56.8257C17.9817 56.8125 18.0518 56.7379 18.121 56.6644C18.1949 56.5858 18.2676 56.5085 18.3747 56.5085C18.5459 56.6823 18.5375 56.9593 18.5294 57.2217C18.5228 57.4382 18.5165 57.6449 18.6116 57.7756C18.6487 57.4239 18.708 57.0469 18.7695 56.656C18.9664 55.4047 19.1855 54.0126 18.7675 52.8648C19.2073 49.5923 19.0907 46.3549 18.9729 43.0862C18.8883 40.7375 18.8031 38.3726 18.9233 35.9668C18.8287 35.5845 18.9044 35.2242 18.9777 34.8758C19.0667 34.4525 19.152 34.0469 18.9233 33.6408L18.8469 25.825L19.1579 25.2717C19.6126 25.5716 20.0311 25.3751 20.4459 25.1804C20.651 25.0841 20.8551 24.9883 21.0623 24.953C21.6899 26.5636 21.4913 28.7592 21.3357 30.4789L21.3356 30.48L21.3353 30.4837C21.3225 30.6244 21.3101 30.7618 21.2985 30.8955C21.741 32.6226 21.6718 34.6155 21.605 36.5375L21.605 36.5377C21.585 37.1132 21.5653 37.6823 21.5595 38.236C21.6037 39.8147 21.6211 41.4053 21.6385 43.0069C21.673 46.1732 21.708 49.3825 21.9522 52.6271C21.9904 52.7629 21.9932 52.9382 21.9959 53.1068V53.1068C22.0005 53.3965 22.0048 53.6664 22.1876 53.6822C22.5234 51.8135 22.4056 49.7635 22.2901 47.7551C22.218 46.5014 22.1469 45.2638 22.1876 44.0967C22.2177 43.1176 22.1423 42.1505 22.0673 41.1892L22.0673 41.1891C21.9522 39.7144 21.8383 38.2534 22.1081 36.7835C21.8673 34.4219 21.9432 32.1401 22.0234 29.7282V29.7281V29.7281V29.728C22.0651 28.4719 22.1081 27.1805 22.1081 25.8242C22.2889 25.1634 22.1081 24.3444 21.9522 23.8168L23.0487 23.8971V23.9766C23.151 24.0806 23.1898 24.2664 23.2276 24.4471C23.2951 24.77 23.3593 25.0771 23.7765 24.8743C24.3688 25.1723 24.9961 25.1434 25.6258 25.1145C25.9413 25.1 26.2574 25.0854 26.5701 25.112C26.7769 25.2393 26.9786 25.1376 27.1553 25.0484C27.3807 24.9347 27.5654 24.8415 27.668 25.2709C27.6849 28.9559 27.7977 32.4494 27.9091 35.8974C27.9629 37.5621 28.0163 39.2162 28.0585 40.8761C28.3874 42.7283 28.4108 44.5543 28.4337 46.3469C28.4563 48.1049 28.4784 49.8306 28.7878 51.5174C28.7775 51.634 28.7588 51.7558 28.74 51.8788C28.665 52.3685 28.5873 52.8754 29.0239 53.1289C29.1146 52.4349 29.0322 51.8449 28.9482 51.2435C28.8626 50.6301 28.7752 50.0049 28.8681 49.2452C29.0713 48.9442 29.3442 48.9982 29.6252 49.0538C29.8863 49.1055 30.1543 49.1585 30.3798 48.9296C31.7795 48.9722 33.1779 49.0961 34.561 49.2187C35.7852 49.3272 36.9974 49.4346 38.1879 49.4836C38.7381 49.2322 38.8339 48.6669 38.9323 48.0863C39.0297 47.5116 39.1297 46.9218 39.6755 46.6066C39.9342 46.2895 39.9342 45.6817 39.6755 45.3902C39.8049 45.0739 40.1438 44.9165 40.4844 44.9959C40.5808 44.7482 40.7107 44.5451 40.8369 44.3476C41.0475 44.0184 41.2479 43.7049 41.266 43.2271C41.2373 43.159 41.2122 43.0848 41.1868 43.0096C41.0731 42.6738 40.953 42.3193 40.4844 42.4065C40.2467 42.6956 40.0924 43.0143 40.0137 43.3821C39.9751 43.7654 39.6312 43.8252 39.3196 43.8794C39.222 43.8964 39.1275 43.9129 39.0467 43.9385C38.7856 44.0959 38.7591 44.3616 38.8908 44.5728C37.9099 44.9817 38.053 45.7484 38.2064 46.5697C38.31 47.1243 38.4182 47.7039 38.1879 48.215L38.0025 48.374C37.8201 48.5057 37.7414 48.5057 37.5326 48.374C37.6365 48.3386 37.6254 48.2569 37.6143 48.1752C37.6088 48.1343 37.6032 48.0934 37.6121 48.0584C36.6695 47.6892 35.604 47.6064 34.5384 47.5237H34.5384C33.7734 47.4642 33.0084 47.4048 32.289 47.2394C31.8366 47.0118 31.6139 47.1845 31.3756 47.3694C31.2271 47.4846 31.0726 47.6044 30.8528 47.6352C30.6607 47.1294 30.2126 47.0175 29.7551 46.9033C29.4 46.8146 29.0391 46.7245 28.7878 46.4477C28.6458 46.0154 28.715 45.6025 28.7857 45.1802C28.8318 44.9052 28.8785 44.6262 28.8681 44.3351C28.6984 43.8727 28.7048 43.3384 28.7113 42.8077C28.7177 42.2761 28.7241 41.748 28.5533 41.2992C28.607 40.9026 29.0239 40.7693 29.3364 40.7179C29.4159 40.4802 29.0777 40.2153 28.7878 40.3205C28.4938 40.1623 28.5228 39.8757 28.5514 39.5928C28.5658 39.4507 28.5801 39.3094 28.5533 39.1859C28.4692 38.7439 28.7271 38.7635 28.9946 38.7839C29.2228 38.8013 29.458 38.8192 29.4938 38.5516C29.3536 38.3748 29.1671 38.3138 28.9825 38.2535C28.7538 38.1786 28.5281 38.1048 28.3974 37.8129C28.3195 37.3897 28.4777 36.9674 28.7878 36.7835C29.0593 37.0347 29.4291 37.0286 29.8098 37.0223C29.8695 37.0214 29.9295 37.0204 29.9894 37.0204V36.8622C29.6535 36.7621 29.3604 36.5709 29.0669 36.3796L29.0666 36.3794C28.9742 36.3192 28.8817 36.2589 28.7878 36.2014C28.8853 36.193 28.9822 36.1575 29.0789 36.1221C29.2696 36.0522 29.4591 35.9828 29.6489 36.1235C30.1553 35.5814 30.7335 35.7026 31.3464 35.8312C31.7775 35.9216 32.2259 36.0157 32.6786 35.885C33.1477 35.9661 33.4641 36.3339 33.3309 36.8622C33.5049 37.0074 33.7183 37.0723 33.9315 37.1372C34.1038 37.1896 34.2761 37.242 34.4273 37.3367C34.7912 37.2051 35.0016 36.7554 34.9252 36.4663C34.9762 36.1808 34.9125 35.8221 34.8468 35.452C34.7117 34.6906 34.5679 33.8809 35.3959 33.5605C35.8602 33.9203 35.8255 34.472 35.7924 34.9997C35.7548 35.5967 35.7192 36.1631 36.4104 36.3861C37.1284 35.8756 37.8664 36.0651 38.6253 36.2599C39.0805 36.3768 39.5433 36.4955 40.0137 36.4663C40.0922 36.4741 40.1784 36.4849 40.2695 36.4964C40.783 36.5609 41.4518 36.6449 41.7616 36.3074C40.7415 36.0175 39.6755 35.8562 38.5783 35.8055C38.3213 35.7126 38.0198 35.7257 37.7201 35.7387C37.2585 35.7587 36.8012 35.7785 36.5172 35.4105C36.6376 34.9201 36.4719 34.4639 36.3077 34.0121C36.2243 33.7826 36.1413 33.5541 36.0964 33.3229C35.8092 33.1371 35.777 32.8465 35.7448 32.5561C35.7127 32.2665 35.6807 31.9772 35.3959 31.7924C34.6898 31.4842 34.4753 32.058 34.2419 32.6825C34.094 33.078 33.9385 33.4939 33.6457 33.7187C33.5992 33.9407 33.4511 34.0749 33.3069 34.2057C33.1245 34.371 32.9484 34.5307 32.9919 34.8549C32.4173 35.2958 31.6907 35.1951 30.9687 35.095C30.6087 35.0451 30.2498 34.9954 29.9115 35.013C29.7241 34.7763 29.4475 34.736 29.1782 34.6968C28.8474 34.6486 28.5276 34.6021 28.3974 34.1948C28.5332 32.6687 28.4058 31.2554 28.2812 29.8735C28.1427 28.3377 28.0078 26.8407 28.2416 25.2709C28.4888 24.5033 28.3729 23.8023 28.2507 23.0631C28.1415 22.4021 28.0271 21.7105 28.1629 20.9134C28.8648 20.1872 28.6337 19.4324 28.3904 18.6378C28.2269 18.1039 28.058 17.5521 28.1629 16.979C27.8065 16.7012 27.8175 16.2703 27.8284 15.8436C27.8382 15.4586 27.848 15.077 27.5878 14.8142C27.1767 14.9579 27.1501 15.3739 27.1227 15.8026C27.1049 16.0809 27.0868 16.3645 26.9628 16.5823C26.015 15.7459 25.768 14.4516 25.5245 13.1759L25.5245 13.1759L25.5245 13.1758C25.4529 12.8007 25.3816 12.4272 25.2929 12.0674C25.2846 11.866 25.3275 11.6532 25.3705 11.4395C25.4575 11.0074 25.5453 10.5717 25.2126 10.2198C25.2033 10.229 25.1947 10.2383 25.1866 10.2473C25.1498 10.2874 25.1204 10.3195 25.056 10.2985C25.1347 10.7458 24.9804 11.1689 24.5612 11.3536L24.2464 11.1167C24.1511 10.772 23.9919 10.8737 23.7872 11.0044C23.6 11.124 23.3748 11.2678 23.1258 11.1167C22.8113 11.1483 22.7144 10.9295 22.6124 10.6991C22.5455 10.5482 22.4765 10.3923 22.3427 10.2985C22.1513 10.246 22.0286 10.334 21.9063 10.4218C21.8454 10.4655 21.7846 10.5092 21.7154 10.5354C21.4717 10.3946 21.5529 10.2067 21.6341 10.0188C21.6747 9.9249 21.7154 9.83096 21.7154 9.7429C21.7795 9.07794 22.2277 8.8123 22.6779 8.54553C22.9774 8.36807 23.2777 8.1901 23.4663 7.89375C23.5883 8.07152 23.684 8.26107 23.7802 8.45145C23.9701 8.82771 24.1617 9.20719 24.5612 9.50523C24.8034 8.99597 24.6083 8.49845 24.4114 7.99635L24.4114 7.99634C24.3124 7.74398 24.213 7.49047 24.1684 7.23373C24.1406 6.9765 24.1602 6.70224 24.1796 6.43193C24.2139 5.95298 24.2473 5.48648 24.0141 5.14925C24.3183 4.41531 24.0501 3.79507 23.7745 3.15767ZM24.4053 12.3043L23.9347 12.8061C23.6135 12.6983 23.519 12.437 23.4259 12.1796C23.3375 11.935 23.2502 11.6938 22.9707 11.5913L22.7331 11.7502C22.6707 12.0015 22.6239 12.2624 22.5769 12.5243L22.5769 12.5244C22.4859 13.0315 22.3942 13.5425 22.1876 13.9952C21.1933 15.1306 20.5426 16.5293 20.2815 18.0348C20.3485 18.0776 20.4157 18.1589 20.4883 18.2467C20.6404 18.4306 20.816 18.6429 21.0623 18.5897C21.5595 17.4808 22.0559 16.3712 22.1876 15.1306L22.4221 14.8937C22.9014 14.99 22.9437 15.5012 22.9847 15.9962L22.9847 15.9963L22.9847 15.9963C22.9995 16.1742 23.014 16.35 23.0487 16.5036C22.9048 16.8399 23.0274 17.1491 23.149 17.4562C23.2943 17.823 23.4384 18.1867 23.1258 18.5897C22.885 18.6379 22.7438 18.4577 22.61 18.2869C22.5256 18.1792 22.4442 18.0752 22.3427 18.0348C22.1544 18.1101 22.1692 18.2693 22.1833 18.4215V18.4215V18.4215C22.1887 18.4804 22.1941 18.5382 22.1876 18.5897C22.8403 19.1322 23.2145 18.715 23.6066 18.2779L23.6066 18.2779C23.8244 18.035 24.0477 17.786 24.3274 17.692C25.1347 17.4013 25.8391 17.8494 26.3901 18.352C26.4407 17.1629 26.0737 16.16 25.5251 15.2085C25.284 14.7588 25.1295 14.2591 24.9775 13.7672L24.9775 13.7672C24.8171 13.2482 24.6594 12.738 24.4053 12.3043ZM23.7469 22.0556C23.9547 22.0496 24.1635 22.0436 24.3274 21.97C24.2768 21.7363 24.3114 21.4833 24.3464 21.2274C24.4026 20.8171 24.4597 20.3994 24.1684 20.0414C23.9589 19.6657 23.4995 19.7953 23.0439 19.9238C22.7625 20.0032 22.4826 20.0822 22.2639 20.0414C22.0396 20.4359 22.0991 20.8567 22.1609 21.2935C22.2066 21.6168 22.2535 21.9489 22.1876 22.2856C22.3154 22.4454 22.6302 22.7867 22.8912 22.5241C22.9764 22.078 23.36 22.0669 23.7469 22.0556ZM27.1718 20.6465C26.9275 20.403 26.6858 20.1621 26.7275 19.8045C26.2334 19.5131 25.7612 19.9089 25.8391 20.438C25.8295 20.5531 25.8152 20.6691 25.8009 20.7847C25.7397 21.2788 25.6797 21.7643 25.9973 22.1274C26.6071 21.9731 26.7716 22.36 26.9331 22.7397C27.0479 23.0097 27.1612 23.2761 27.4319 23.3415C27.5364 22.5498 27.6143 21.5734 27.3532 20.8339C27.2956 20.77 27.2337 20.7082 27.1719 20.6466L27.1718 20.6466L27.1718 20.6465ZM24.6414 23.8168C25.0038 23.9766 25.268 23.9493 25.5251 23.5792C25.5251 23.262 25.3178 22.9714 25.056 22.8669C24.5917 22.8209 24.6428 23.0363 24.7024 23.288C24.7468 23.4751 24.796 23.6822 24.6414 23.8168ZM21.368 22.3294C21.3046 21.908 21.2392 21.473 21.2985 21.0716C21.2633 20.9124 21.2429 20.7476 21.2226 20.5829C21.1821 20.2549 21.1416 19.9275 20.9844 19.6463C20.7773 19.54 20.6194 19.7379 20.5098 19.8752L20.5097 19.8752L20.5097 19.8753C20.482 19.91 20.4574 19.9409 20.4358 19.9619C20.8672 20.3049 20.7693 20.7343 20.6714 21.1638C20.5735 21.593 20.4757 22.0223 20.9065 22.3651C21.0699 22.5401 21.1216 22.8483 21.1706 23.1401C21.247 23.5956 21.3167 24.0111 21.7941 23.8168L21.4527 23.262C21.465 22.974 21.4171 22.6558 21.368 22.3295V22.3294V22.3294ZM19.6705 21.3086C19.6533 21.1956 19.637 21.0887 19.6277 20.9929C19.6277 20.8515 19.5116 20.8044 19.3958 20.7575C19.3381 20.7341 19.2804 20.7107 19.2373 20.6757C18.9773 21.2751 19.0766 22.1062 19.1549 22.7617L19.1579 22.7867H19.316C19.8561 22.5263 19.7528 21.8486 19.6705 21.3086ZM59.5139 59.303C59.6066 59.4752 59.6985 59.6457 59.5947 59.8367C59.8536 59.7411 59.9409 60.0774 59.9811 60.2322C59.9953 60.287 60.0036 60.319 60.0116 60.3011C60.2186 59.8524 60.2173 59.3337 60.216 58.7998L60.2158 58.6709C60.0046 58.328 59.6656 57.986 59.2503 58.0125C58.9105 57.6166 58.5965 57.2215 58.623 56.6651C58.8147 55.5918 58.7975 54.5651 58.7796 53.4915C58.7706 52.9548 58.7614 52.4064 58.778 51.8346L59.4061 51.0148C59.0725 50.1848 58.4196 49.4701 57.7668 48.7555L57.7668 48.7554C57.651 48.6287 57.5353 48.5021 57.4214 48.3748L57.3434 47.5558C57.3296 46.9718 56.9586 46.8333 56.5704 46.6884C56.2397 46.5649 55.8966 46.4368 55.7514 46.0246C55.6751 45.0209 54.9683 44.3351 54.1586 43.7803C54.482 42.9646 54.0305 42.4706 53.5802 41.9778C53.1558 41.5136 52.7326 41.0504 52.9594 40.3205C52.9594 39.9792 52.6734 39.609 52.4123 39.5038C52.3586 40.2418 52.0734 40.8496 51.7835 41.4566C50.8694 41.6958 50.0107 41.4036 49.3031 40.8761C48.9897 40.466 48.8648 40.0654 48.7365 39.6539L48.7365 39.6538C48.6413 39.3483 48.5441 39.0366 48.3665 38.7106C48.2484 38.4893 48.0707 38.2899 47.8929 38.0903C47.5189 37.6707 47.1443 37.2503 47.3223 36.6245C47.2102 36.3229 46.9772 36.2116 46.7356 36.0962C46.5758 36.0198 46.4122 35.9417 46.2773 35.8055C45.3698 35.8702 45.4233 35.1983 45.4787 34.5023C45.5141 34.0568 45.5504 33.6014 45.336 33.3229C45.2845 33.1654 45.1287 32.9293 44.9456 33.0073C44.7079 33.4189 44.6046 33.9222 44.4994 34.435C44.409 34.8755 44.3172 35.323 44.1375 35.7253C44.3896 36.3927 44.8151 36.328 45.2604 36.2603C45.6439 36.202 46.042 36.1415 46.3568 36.5443C46.2814 37.4252 45.8986 37.3097 45.4429 37.1724C45.0929 37.0668 44.6999 36.9484 44.3705 37.2588C44.3794 37.3116 44.3767 37.3703 44.374 37.4291C44.3687 37.5458 44.3634 37.6626 44.4484 37.7326C44.7233 37.7598 44.9947 37.8718 45.265 37.9833C45.7926 38.201 46.316 38.4169 46.8524 37.9975C47.0138 38.0671 47.0112 38.2434 47.0088 38.4118V38.4121V38.4125C47.0085 38.4325 47.0082 38.4525 47.0082 38.4721C47.2693 39.0807 47.7649 39.6605 48.4428 39.8451L48.2083 40.4015C47.9627 40.8245 48.1252 41.1669 48.2836 41.5006C48.4111 41.7695 48.536 42.0327 48.4428 42.3278C48.5293 42.5913 48.7803 42.6206 49.0308 42.6499C49.1552 42.6644 49.2795 42.6789 49.3834 42.7221C50.1089 42.7605 50.0663 43.3331 50.0247 43.8918C50.0064 44.1373 49.9883 44.38 50.0356 44.5736C50.1665 44.8354 50.271 45.0217 50.5835 45.0739L50.5965 45.0888C51.1932 45.7715 51.8588 46.5329 51.7071 47.636H51.8599C52.5404 47.7779 52.4777 48.3526 52.4146 48.9313C52.383 49.2206 52.3513 49.5109 52.4123 49.7486C53.058 50.621 54.3116 50.6825 55.4069 50.7363L55.4072 50.7363C55.6364 50.7475 55.8587 50.7585 56.067 50.7764C56.2924 50.8382 56.5439 50.8473 56.7948 50.8564C57.2969 50.8746 57.7961 50.8926 58.0767 51.3328C58.0845 51.7079 58.1171 52.1159 58.1505 52.5354C58.2208 53.4159 58.2951 54.3473 58.1531 55.1331C58.2381 55.508 58.2317 55.9707 58.225 56.4467C58.2092 57.5798 58.1924 58.7885 59.4061 59.0683C59.4305 59.1482 59.4723 59.2258 59.5139 59.303ZM55.4785 47.9721C55.0568 47.4824 54.6374 46.9954 54.553 46.3666C54.3101 46.1387 54.1223 45.8268 53.9355 45.5165C53.5186 44.8241 53.1064 44.1395 52.0975 44.4123C51.9275 44.4524 51.9338 44.5584 51.9411 44.6823C51.944 44.7315 51.9471 44.7836 51.9393 44.8354C52.2748 45.2333 52.7146 45.4346 53.1422 45.6302C53.4824 45.7858 53.8148 45.9379 54.0807 46.1827C53.93 46.4589 53.7608 46.4499 53.5739 46.4401C53.439 46.433 53.2949 46.4254 53.1417 46.524C53.1855 46.9697 53.5257 47.0398 53.8853 47.1139C54.1658 47.1717 54.4581 47.232 54.6309 47.4747C54.5609 47.8367 54.2611 47.8262 53.947 47.8153C53.6633 47.8054 53.3679 47.7951 53.2197 48.0584C53.1932 48.4285 53.1932 48.8493 53.5321 49.0091C53.7946 48.9934 54.1089 49.0651 54.4316 49.1387C55.2032 49.3147 56.0231 49.5018 56.3 48.5337C56.1699 48.3475 55.9852 48.2431 55.7514 48.2945C55.6627 48.1859 55.5706 48.079 55.4786 47.9722L55.4785 47.9721ZM52.018 43.9393C52.2027 44.0453 52.5931 44.124 52.7225 43.859C52.5417 43.5154 52.2814 43.04 51.9393 42.8826C51.9554 43.1928 51.7455 43.239 51.5434 43.2835C51.4018 43.3146 51.2641 43.3449 51.2107 43.4647C51.5497 43.4897 51.7835 43.6736 52.018 43.9393ZM15.9096 75.6948C14.4953 76.2964 13.8929 75.9021 13.4246 74.6717L11.2193 68.8748L12.8378 68.2873C17.5679 66.5706 17.8141 63.2697 17.0333 61.218C16.5556 59.9611 15.5153 58.9379 14.4407 58.4228C13.2625 57.8571 11.9456 57.7519 8.3361 59.0626L2.5603 61.158L2.73563 61.6201C3.9762 61.0824 4.5731 61.6824 4.99312 62.7858L9.95928 75.8405C10.4073 77.0211 10.3435 77.745 9.03821 78.1892L9.21432 78.6513L16.0857 76.1569L15.9096 75.6948ZM11.9043 67.5462L10.8578 67.9257L7.95115 60.2821L8.82236 59.9657C10.9131 59.2075 12.2043 59.993 13.2088 62.6354C14.175 65.175 13.9701 66.7958 11.9043 67.5462ZM28.0898 56.1758L28.1218 56.6527C26.8929 56.6784 26.3389 57.1826 26.3389 58.3748V69.6357C26.3389 71.1194 26.7082 72.0482 27.3231 72.5766C27.9987 73.1594 29.0125 73.4251 30.1494 73.4251C31.9315 73.4251 32.9142 72.9218 33.529 72.3911C34.2358 71.7825 34.5436 70.3775 34.5436 68.9468V59.3551C34.5436 57.1826 34.2054 56.6784 32.8526 56.6527V56.1758H37.493V56.6527C36.0795 56.6784 35.6797 57.2613 35.6797 58.4808V69.4245C35.6797 71.9415 34.4509 74.6447 28.9197 74.6447C26.1542 74.6447 22.099 73.8763 22.099 69.6887V58.4551C22.099 57.315 21.76 56.7322 20.3464 56.6527V56.1758H28.0898ZM48.3432 69.8718L48.2824 57.707L42.9804 56.1758L42.8339 56.634C44.0683 57.0181 44.1267 57.7015 43.7768 58.7933L39.5922 71.8402C39.2252 72.9818 38.6984 73.3285 37.5748 73.0316L37.4275 73.489L41.436 74.6454L41.5817 74.188C40.3645 73.8366 40.172 73.228 40.571 71.9828L44.74 58.9865L44.7906 59.0013L44.8857 75.6421L45.266 75.7512L55.2575 61.8853L55.3082 61.9001L51.1064 74.9984C50.6911 76.2928 50.2329 76.6871 48.838 76.2842L48.6908 76.7408L55.3121 78.6531L55.4586 78.1957C54.2827 77.8006 54.2733 77.0486 54.6481 75.8813L58.7034 63.2404C59.1265 61.9196 59.679 61.5806 60.7185 61.798L60.865 61.3406L55.6643 59.8382L48.3947 69.8866L48.3432 69.8718Z" fill="#231F20"></path>
</svg>
