<?xml version="1.0" encoding="UTF-8"?>
<svg xmlns="http://www.w3.org/2000/svg" width="70" height="69" viewBox="0 0 70 69" fill="none">
  <path d="M34.657 0L39.8705 10.2906L48.8305 3.00426L49.396 14.5202L60.5537 11.4979L56.3737 22.2479L67.7989 24.0126L59.5957 32.1372L69.3135 38.3839L58.5061 42.4787L64.836 52.127L53.2921 51.4841L55.1398 62.8658L44.8561 57.596L41.9022 68.7434L34.657 59.7582L27.4117 68.7434L24.4574 57.596L14.174 62.8658L16.0215 51.4841L4.47789 52.127L10.8079 42.4787L0 38.3839L9.71776 32.1372L1.5145 24.0126L12.9402 22.2479L8.75974 11.4979L19.9174 14.5202L20.4829 3.00426L29.4434 10.2906L34.657 0Z" fill="#231F20"></path>
  <path d="M47.5725 31.1683C47.5114 26.2883 44.803 23.8459 39.5158 23.9114L25.2043 24.0878L25.4701 45.6186L29.1956 45.5756L29.1158 38.9329L37.2388 38.8334L41.3433 45.4285L45.3978 45.3763L41.2548 38.7203C45.5023 38.1881 47.6294 35.6466 47.5725 31.1683ZM40.0521 35.1004L29.069 35.2336L28.9736 27.7397L39.9611 27.6104C42.5902 27.5767 43.8817 28.7686 43.9159 31.2424C43.945 33.8068 42.6873 35.0664 40.0521 35.1004Z" fill="white"></path>
</svg>
