<?xml version="1.0" encoding="UTF-8"?>
<svg xmlns="http://www.w3.org/2000/svg" width="176" height="89" viewBox="0 0 176 89" fill="none">
  <path fill-rule="evenodd" clip-rule="evenodd" d="M19.6822 63.3643C15.7892 63.3643 11.9837 62.2099 8.74686 60.0469C5.51005 57.884 2.98734 54.8098 1.49778 51.2131C0.00822303 47.6164 -0.38128 43.6588 0.378533 39.8407C1.13835 36.0226 3.01334 32.5156 5.7664 29.7632C8.51946 27.0107 12.0269 25.1366 15.8452 24.3776C19.6634 23.6187 23.621 24.0091 27.2174 25.4995C30.8137 26.9899 33.8873 29.5134 36.0495 32.7507C38.2116 35.988 39.3652 39.7938 39.3643 43.6868C39.357 48.9041 37.2809 53.9056 33.5912 57.5944C29.9015 61.2832 24.8995 63.3582 19.6822 63.3643ZM19.6822 28.472C16.673 28.472 13.7313 29.3643 11.2293 31.0361C8.72722 32.7079 6.7771 35.0842 5.62552 37.8643C4.47395 40.6445 4.17265 43.7036 4.75972 46.655C5.34678 49.6064 6.79585 52.3174 8.92367 54.4452C11.0515 56.5731 13.7625 58.0221 16.7139 58.6092C19.6653 59.1963 22.7245 58.895 25.5046 57.7434C28.2847 56.5918 30.661 54.6417 32.3328 52.1396C34.0046 49.6376 34.8969 46.696 34.8969 43.6868C34.8933 39.6527 33.2891 35.7849 30.4366 32.9323C27.5841 30.0798 23.7162 28.4756 19.6822 28.472ZM118.369 50.4043C118.417 50.3308 118.441 50.2438 118.438 50.1558L118.419 32.4152C118.42 32.3269 118.391 32.241 118.336 32.1714C118.265 32.0859 118.171 32.0222 118.065 31.9873C117.899 31.9302 117.728 31.8916 117.554 31.8723C117.279 31.8442 117.003 31.8303 116.726 31.8309C116.451 31.8302 116.176 31.844 115.903 31.8723C115.726 31.8923 115.551 31.9309 115.383 31.9873C115.276 32.0198 115.181 32.0839 115.111 32.1714C115.062 32.2429 115.036 32.3282 115.038 32.4152V38.9529C114.557 38.4677 114.005 38.0596 113.4 37.7429C112.826 37.4651 112.196 37.3249 111.559 37.3334C110.776 37.3165 109.999 37.4835 109.291 37.8211C108.636 38.1392 108.069 38.6132 107.64 39.2014C107.17 39.8638 106.828 40.6081 106.632 41.3959C106.391 42.3398 106.275 43.3112 106.287 44.2852C106.284 45.1422 106.375 45.997 106.558 46.8341C106.715 47.5873 107.01 48.3049 107.428 48.9504C107.825 49.5467 108.358 50.0403 108.983 50.3905C109.703 50.7666 110.508 50.9519 111.32 50.9288C112.11 50.9367 112.888 50.7452 113.584 50.3721C114.313 49.9618 114.972 49.4367 115.534 48.817V50.1558C115.531 50.2451 115.559 50.3328 115.613 50.4043C115.675 50.4839 115.76 50.5432 115.857 50.5745C115.997 50.6272 116.144 50.6597 116.294 50.6711C116.473 50.6941 116.726 50.6941 116.998 50.6941C117.146 50.6941 117.281 50.6872 117.403 50.681L117.403 50.6809C117.504 50.6758 117.595 50.6711 117.678 50.6711C117.836 50.6626 117.991 50.63 118.139 50.5745C118.23 50.5408 118.31 50.4818 118.369 50.4043ZM113.676 40.692C114.196 41.0966 114.66 41.5684 115.056 42.0953L115.074 46.1071C114.824 46.4275 114.556 46.7346 114.274 47.0273C114.058 47.2524 113.821 47.4559 113.565 47.6346C113.357 47.7766 113.13 47.8867 112.889 47.9613C112.669 48.0296 112.439 48.0637 112.208 48.0625C111.794 48.0802 111.385 47.9623 111.044 47.7266C110.726 47.4864 110.472 47.17 110.308 46.8065C110.113 46.4034 109.978 45.9741 109.908 45.532C109.826 45.0456 109.786 44.5531 109.788 44.0598C109.787 43.5886 109.833 43.1185 109.926 42.6566C110.013 42.2261 110.158 41.8097 110.359 41.4189C110.542 41.0671 110.807 40.7642 111.132 40.5356C111.468 40.3084 111.867 40.1911 112.273 40.1997C112.781 40.208 113.273 40.3807 113.676 40.692ZM104.608 44.004C104.619 44.9563 104.483 45.9046 104.203 46.8151C103.953 47.6238 103.534 48.3702 102.975 49.005C102.403 49.6324 101.695 50.119 100.904 50.4267C99.9756 50.7768 98.9888 50.947 97.9965 50.9282C97.044 50.9445 96.0963 50.7887 95.1992 50.4681C94.4464 50.2006 93.7682 49.7574 93.2209 49.1753C92.6807 48.5726 92.2843 47.8553 92.0615 47.0773C91.7951 46.1551 91.6664 45.1985 91.6796 44.2386C91.6689 43.2811 91.8087 42.3279 92.0937 41.4138C92.3446 40.6049 92.7667 39.8595 93.3313 39.2284C93.9009 38.6046 94.6061 38.1198 95.3925 37.8113C96.3197 37.4624 97.3051 37.2937 98.2956 37.3145C99.2509 37.2948 100.202 37.4428 101.107 37.7515C101.857 38.0191 102.532 38.4624 103.076 39.0444C103.613 39.6484 104.008 40.3653 104.231 41.1423C104.497 42.0723 104.624 43.0367 104.608 44.004ZM101.107 44.1374C101.111 43.5867 101.063 43.0367 100.964 42.4949C100.891 42.0351 100.735 41.5923 100.504 41.1883C100.28 40.8228 99.9624 40.5241 99.5838 40.3234C99.1473 40.1006 98.6611 39.9929 98.1713 40.0105C97.714 40.0015 97.2607 40.0975 96.8463 40.2912C96.4746 40.4768 96.1575 40.7558 95.9262 41.1009C95.6695 41.4932 95.4841 41.9277 95.3787 42.3845C95.2526 42.9461 95.1924 43.5205 95.1992 44.096C95.1936 44.6486 95.2429 45.2003 95.3465 45.7431C95.4253 46.1999 95.5809 46.6401 95.8065 47.0451C96.0279 47.4102 96.3465 47.7065 96.7267 47.9009C97.161 48.1201 97.6437 48.2262 98.1299 48.2091C98.5918 48.2191 99.0498 48.1231 99.4688 47.9285C99.8399 47.7461 100.157 47.4702 100.389 47.1279C100.648 46.7389 100.832 46.3052 100.932 45.8489C101.056 45.2871 101.115 44.7128 101.107 44.1374ZM90.5798 39.8904C90.6962 39.5854 90.7464 39.2592 90.727 38.9334C90.7422 38.5931 90.6874 38.2533 90.566 37.935C90.474 37.7372 90.3498 37.636 90.1979 37.636H86.3701C86.0522 37.5533 85.7295 37.4903 85.4039 37.4473C85.0497 37.4052 84.6933 37.3837 84.3365 37.3829C83.6482 37.3733 82.9629 37.4759 82.3076 37.6866C81.7263 37.87 81.1879 38.1688 80.7249 38.5653C80.2798 38.951 79.9275 39.4323 79.6944 39.9732C79.4378 40.5668 79.3108 41.2083 79.3217 41.8549C79.3032 42.4191 79.4002 42.9812 79.6069 43.5066C79.7845 43.9296 80.0405 44.3152 80.3615 44.643C79.9829 44.9825 79.6627 45.382 79.4137 45.8254C79.1684 46.2702 79.0431 46.7713 79.0502 47.2792C79.0475 47.6944 79.1595 48.1022 79.3738 48.4578C79.5881 48.8134 79.8965 49.1029 80.2648 49.2944C80.0008 49.4902 79.7531 49.7071 79.5241 49.9431C79.315 50.1574 79.1313 50.3952 78.9766 50.6516C78.8286 50.8942 78.714 51.1558 78.6362 51.4291C78.5603 51.7065 78.5217 51.9927 78.5212 52.2803C78.5093 52.7569 78.6271 53.2279 78.8621 53.6428C79.0971 54.0577 79.4404 54.4009 79.8554 54.6359C80.4082 54.96 81.0117 55.1887 81.6405 55.3122C82.5064 55.4879 83.3887 55.5696 84.2721 55.556C85.2036 55.5708 86.1326 55.4562 87.0326 55.2156C87.739 55.0299 88.4061 54.7182 89.0017 54.2954C89.5005 53.9377 89.9048 53.464 90.1795 52.9152C90.4401 52.3923 90.574 51.8155 90.5706 51.2313C90.5792 50.733 90.4804 50.2387 90.2808 49.782C90.0888 49.3606 89.8022 48.989 89.4434 48.6963C89.0434 48.3746 88.5837 48.1354 88.0908 47.9923C87.4924 47.8168 86.8738 47.7194 86.2505 47.7025L83.3198 47.5921C82.9774 47.5982 82.641 47.5021 82.3536 47.316C82.2458 47.248 82.157 47.1535 82.0959 47.0416C82.0347 46.9297 82.003 46.804 82.0039 46.6765C82.0017 46.4872 82.0476 46.3004 82.1374 46.1336C82.2134 45.9809 82.311 45.8399 82.4272 45.7149C82.678 45.8673 82.9513 45.9791 83.237 46.0462C83.5989 46.1412 83.9716 46.1891 84.3457 46.1888C85.0435 46.1975 85.7386 46.0998 86.4069 45.899C86.9863 45.7244 87.5245 45.435 87.9896 45.0478C88.4271 44.6713 88.7718 44.199 88.9971 43.6676C89.2422 43.0759 89.3628 42.44 89.3514 41.7997C89.3509 41.5081 89.3075 41.2182 89.2226 40.9393C89.135 40.6645 88.989 40.4118 88.7947 40.1986H90.2163C90.359 40.1986 90.4832 40.0974 90.5798 39.8904ZM87.038 50.8868C87.1234 51.048 87.1659 51.2284 87.1614 51.4107C87.1656 51.6495 87.1185 51.8864 87.0234 52.1054C86.9205 52.3326 86.7624 52.5303 86.5633 52.6805C86.3082 52.8709 86.0194 53.0113 85.7122 53.0946C85.2888 53.2049 84.8522 53.256 84.4148 53.2464C83.7538 53.28 83.0941 53.1604 82.487 52.8968C82.2841 52.8119 82.111 52.6686 81.9898 52.4851C81.8685 52.3016 81.8046 52.0861 81.8061 51.8662C81.8045 51.7258 81.8168 51.5855 81.8429 51.4475C81.8763 51.2996 81.9338 51.1581 82.0131 51.0288C82.1116 50.8649 82.2256 50.7108 82.3536 50.5688C82.5234 50.3846 82.7115 50.2181 82.9149 50.0719L85.3349 50.1409C85.8048 50.1322 86.2681 50.2532 86.6737 50.4906C86.8272 50.5892 86.9526 50.7257 87.038 50.8868ZM86.2443 40.9689C86.3376 41.2291 86.3772 41.5054 86.3609 41.7813C86.3611 42.0428 86.3176 42.3025 86.2321 42.5496C86.1516 42.7906 86.0233 43.0128 85.8548 43.2029C85.6822 43.4019 85.4667 43.5592 85.2245 43.663C84.9413 43.7778 84.6374 43.8327 84.3319 43.824C84.0589 43.8408 83.7852 43.8021 83.5275 43.7104C83.2697 43.6187 83.0332 43.4758 82.8321 43.2903C82.6472 43.0979 82.5036 42.8696 82.4102 42.6196C82.3169 42.3695 82.2757 42.103 82.2892 41.8365C82.2885 41.5633 82.3304 41.2916 82.4134 41.0314C82.489 40.7837 82.616 40.5548 82.7861 40.3596C82.9555 40.1591 83.1699 40.0015 83.4118 39.8995C83.6891 39.7805 83.9888 39.7225 84.2905 39.7293C84.5682 39.7118 84.8466 39.7504 85.1091 39.8429C85.3715 39.9354 85.6126 40.0799 85.818 40.2676C86.006 40.4702 86.151 40.7088 86.2443 40.9689ZM74.3073 50.6159L72.8443 54.89C72.7799 55.015 72.6858 55.1223 72.5703 55.2025C72.4548 55.2827 72.3214 55.3334 72.1818 55.3501C71.6644 55.4679 71.1341 55.519 70.6037 55.5019C70.3147 55.5045 70.0258 55.4892 69.7388 55.4559C69.5662 55.4394 69.3996 55.3843 69.2511 55.2949C69.2014 55.2676 69.1591 55.2286 69.1279 55.1813C69.0966 55.134 69.0773 55.0798 69.0716 55.0234C69.0709 54.8901 69.0992 54.7583 69.1545 54.637L70.7647 50.5929C70.6419 50.5345 70.5334 50.4497 70.4473 50.3444C70.3564 50.238 70.2848 50.1166 70.2356 49.9856L66.0949 38.8977C65.9988 38.6661 65.9398 38.4208 65.9201 38.1708C65.9168 38.0978 65.9296 38.025 65.9574 37.9574C65.9852 37.8899 66.0274 37.8292 66.0811 37.7797C66.2416 37.6639 66.4312 37.5953 66.6286 37.5819C66.9676 37.5422 67.3088 37.5253 67.65 37.5312H68.5702C68.7495 37.5349 68.9269 37.5691 69.0946 37.6325C69.2154 37.6801 69.3161 37.7678 69.3799 37.8809C69.4604 38.0345 69.5237 38.1965 69.5685 38.364L72.4072 46.4384H72.4486L75.0481 38.203C75.0753 38.034 75.1468 37.8753 75.2551 37.7429C75.3798 37.6487 75.5276 37.5899 75.683 37.5727C76.0277 37.529 76.3754 37.5121 76.7228 37.5221C77.0456 37.517 77.3684 37.5339 77.6889 37.5727C77.8941 37.5898 78.091 37.6613 78.2594 37.7797C78.3181 37.8271 78.365 37.8875 78.3961 37.9562C78.4273 38.0249 78.4419 38.1 78.4388 38.1754C78.4349 38.376 78.3992 38.5748 78.333 38.7643L74.3073 50.6159ZM65.2392 38.0652C65.2369 38.1889 65.223 38.3121 65.1978 38.4333C65.1702 38.5759 65.1242 38.7829 65.0506 39.0544L61.83 49.9674C61.7927 50.1013 61.732 50.2275 61.6506 50.3401C61.5643 50.4446 61.449 50.5215 61.3193 50.5609C61.1138 50.6269 60.9001 50.664 60.6844 50.6713C60.5648 50.6713 60.4273 50.6758 60.2735 50.6808L60.2734 50.6808C60.0782 50.6872 59.8568 50.6944 59.6124 50.6944C59.1754 50.6944 58.8073 50.6944 58.5267 50.6622C58.3051 50.6502 58.0857 50.6116 57.8733 50.5471C57.7371 50.5109 57.6162 50.4319 57.5283 50.3217C57.4483 50.2168 57.3918 50.096 57.3627 49.9674L55.3383 42.6384L55.3107 42.5142L55.2831 42.6384L53.4152 49.9674C53.3866 50.0995 53.3352 50.2256 53.2634 50.3401C53.1741 50.4478 53.0535 50.525 52.9183 50.5609C52.7028 50.6246 52.4803 50.6616 52.2558 50.6713C52.1313 50.6713 51.9914 50.6759 51.8358 50.6809C51.6405 50.6872 51.4204 50.6944 51.1746 50.6944C50.7329 50.6944 50.3603 50.6944 50.0842 50.6622C49.8641 50.6503 49.6463 50.6117 49.4355 50.5471C49.2988 50.5121 49.1774 50.4329 49.0904 50.3217C49.0107 50.2173 48.9556 50.0962 48.9294 49.9674L45.7365 39.0544C45.6697 38.8529 45.6174 38.6468 45.5801 38.4379C45.5598 38.3147 45.549 38.1901 45.5478 38.0652C45.5462 37.9811 45.572 37.8987 45.6215 37.8306C45.6901 37.7466 45.7863 37.6895 45.8929 37.6695C46.0644 37.622 46.24 37.5912 46.4174 37.5775H47.2501H48.1289C48.3083 37.5896 48.4858 37.622 48.658 37.6741C48.763 37.7055 48.855 37.7701 48.9202 37.8582C48.9734 37.9433 49.0122 38.0365 49.0352 38.1342L51.4322 46.9907L51.4553 47.1518L51.4829 46.9907L53.728 38.1342C53.752 38.0345 53.7958 37.9406 53.8569 37.8582C53.9259 37.7741 54.0166 37.7105 54.1191 37.6741C54.2801 37.6215 54.447 37.5891 54.616 37.5775H55.4303C55.7022 37.574 55.974 37.5848 56.2447 37.6097C56.4117 37.6245 56.5767 37.6568 56.7369 37.7063C56.8369 37.7332 56.9267 37.7892 56.9946 37.8674C57.0465 37.9398 57.0854 38.0208 57.1096 38.1066L59.5158 47.0275L59.5572 47.1748L59.5848 47.0137L61.8852 38.1572C61.901 38.0581 61.9387 37.9638 61.9956 37.8812C62.0637 37.7919 62.159 37.7273 62.2671 37.6971C62.433 37.6452 62.6044 37.6128 62.7778 37.6005H63.6013H64.4203C64.5901 37.6138 64.7582 37.6446 64.9217 37.6925C65.013 37.71 65.0951 37.7594 65.1533 37.8319C65.2115 37.9044 65.2419 37.9953 65.2392 38.0882V38.0652ZM133.074 50.1558C133.075 50.2414 133.045 50.3246 132.991 50.3904C132.92 50.4712 132.827 50.5302 132.724 50.5607C132.554 50.6142 132.378 50.6482 132.199 50.6619C131.929 50.6862 131.657 50.697 131.385 50.6941C131.107 50.6973 130.829 50.6866 130.552 50.6619C130.376 50.6487 130.201 50.6148 130.032 50.5607C129.928 50.5301 129.834 50.4712 129.761 50.3904C129.706 50.3246 129.677 50.2414 129.678 50.1558V43.2546C129.692 42.791 129.648 42.3275 129.549 41.8744C129.477 41.5678 129.351 41.2765 129.177 41.014C129.019 40.7794 128.804 40.5892 128.551 40.4619C128.264 40.3249 127.949 40.2586 127.631 40.2687C127.156 40.2808 126.698 40.4418 126.32 40.7288C125.798 41.1229 125.334 41.5874 124.939 42.109V50.1282C124.942 50.2133 124.915 50.2966 124.861 50.3628C124.786 50.4436 124.691 50.5024 124.585 50.5331C124.415 50.5857 124.239 50.6197 124.061 50.6343C123.512 50.6772 122.962 50.6772 122.414 50.6343C122.237 50.6202 122.063 50.5862 121.894 50.5331C121.787 50.505 121.691 50.4457 121.618 50.3628C121.563 50.297 121.534 50.2138 121.535 50.1282V38.0972C121.534 38.013 121.556 37.9303 121.599 37.8579C121.662 37.7782 121.747 37.719 121.843 37.6877C121.992 37.6358 122.146 37.6018 122.303 37.5865C122.534 37.5619 122.766 37.5511 122.998 37.5543C123.238 37.5511 123.477 37.5618 123.716 37.5865C123.865 37.5991 124.013 37.6332 124.153 37.6877C124.243 37.7214 124.321 37.7806 124.378 37.8579C124.425 37.9286 124.45 38.0122 124.447 38.0972V39.4774C125.028 38.8244 125.715 38.2752 126.481 37.8533C127.145 37.5001 127.886 37.3153 128.638 37.315C129.352 37.2929 130.061 37.4313 130.713 37.7199C131.257 37.9678 131.731 38.3454 132.094 38.8195C132.452 39.307 132.708 39.8629 132.844 40.4527C133.008 41.1879 133.085 41.94 133.074 42.6933V50.1558ZM139.706 34.7619C139.778 34.5185 139.8 34.2631 139.772 34.0109C139.801 33.7647 139.78 33.5151 139.711 33.2771C139.641 33.0392 139.524 32.8177 139.367 32.626C138.916 32.316 138.369 32.1788 137.826 32.2396C137.056 32.2396 136.536 32.373 136.266 32.6398C135.946 33.0423 135.797 33.5547 135.852 34.0661C135.824 34.3112 135.845 34.5594 135.914 34.7963C135.983 35.0331 136.098 35.2541 136.252 35.4463C136.514 35.6948 137.034 35.819 137.798 35.819C138.346 35.8794 138.898 35.7406 139.353 35.4279C139.514 35.2318 139.634 35.0053 139.706 34.7619ZM139.436 50.3897C139.491 50.3238 139.52 50.2406 139.519 50.155V38.1194C139.52 38.0338 139.491 37.9506 139.436 37.8847C139.361 37.8024 139.266 37.7406 139.16 37.7053C138.99 37.6491 138.814 37.612 138.635 37.5949C138.362 37.564 138.087 37.5502 137.812 37.5535C137.537 37.5505 137.262 37.5643 136.988 37.5949C136.811 37.6115 136.637 37.6485 136.468 37.7053C136.361 37.7381 136.266 37.8003 136.192 37.8847C136.138 37.9506 136.108 38.0338 136.109 38.1194V50.155C136.108 50.2406 136.138 50.3238 136.192 50.3897C136.265 50.4726 136.361 50.5318 136.468 50.5599C136.637 50.6131 136.812 50.647 136.988 50.6611C137.262 50.6857 137.537 50.6965 137.812 50.6933C138.087 50.6967 138.362 50.6859 138.635 50.6611C138.813 50.6465 138.989 50.6126 139.16 50.5599C139.266 50.5292 139.361 50.4704 139.436 50.3897ZM153.748 43.7756C153.776 44.107 153.676 44.4364 153.468 44.6958C153.369 44.7962 153.251 44.8744 153.12 44.9252C152.989 44.976 152.849 44.9982 152.709 44.9903H145.347C145.343 45.4564 145.404 45.9209 145.527 46.3705C145.637 46.7665 145.837 47.1317 146.111 47.4379C146.391 47.7441 146.744 47.9751 147.137 48.1096C147.623 48.273 148.134 48.3508 148.646 48.3396C149.172 48.3462 149.697 48.3031 150.215 48.2108C150.61 48.1384 151 48.0431 151.384 47.9256C151.71 47.8243 151.982 47.7277 152.202 47.6449C152.368 47.5701 152.546 47.5264 152.727 47.5161C152.797 47.5122 152.868 47.5281 152.929 47.5621C152.992 47.6028 153.041 47.6624 153.067 47.7323C153.111 47.8425 153.136 47.9591 153.141 48.0774V48.6387V49.1448C153.135 49.265 153.123 49.3848 153.104 49.5036C153.089 49.59 153.061 49.6736 153.021 49.7521C152.983 49.824 152.935 49.8906 152.879 49.9499C152.739 50.0582 152.584 50.145 152.419 50.2075C152.091 50.3346 151.756 50.4407 151.416 50.525C151.011 50.6262 150.546 50.7182 150.035 50.7964C149.481 50.874 148.921 50.9124 148.361 50.9115C147.405 50.9283 146.452 50.79 145.541 50.502C144.779 50.2601 144.086 49.8389 143.521 49.2736C142.956 48.6864 142.54 47.9715 142.311 47.1894C142.027 46.2327 141.892 45.2381 141.911 44.2403C141.896 43.2581 142.038 42.2799 142.329 41.3418C142.579 40.5349 142.994 39.789 143.548 39.1519C144.079 38.5483 144.742 38.0759 145.485 37.7716C147.15 37.1491 148.981 37.1393 150.652 37.744C151.331 38.0107 151.936 38.4349 152.419 38.9816C152.888 39.525 153.233 40.164 153.431 40.8541C153.654 41.6176 153.764 42.4097 153.758 43.2052L153.748 43.7756ZM150.45 42.8003C150.518 42.0069 150.315 41.2139 149.874 40.5505C149.646 40.2732 149.354 40.0554 149.023 39.916C148.692 39.7765 148.332 39.7196 147.974 39.75C147.583 39.7394 147.195 39.823 146.843 39.9938C146.531 40.1486 146.259 40.372 146.047 40.6471C145.826 40.9396 145.66 41.2702 145.559 41.6225C145.446 42.0118 145.381 42.4136 145.366 42.8187L150.45 42.8003ZM159.786 50.3575C160.098 50.0492 160.246 49.5063 160.246 48.669C160.246 47.8638 160.103 47.3209 159.795 47.0403C159.349 46.7067 158.793 46.5539 158.24 46.6124C157.674 46.5508 157.105 46.7052 156.648 47.0449C156.358 47.3347 156.211 47.9513 156.211 48.7472C156.211 49.5431 156.353 50.0814 156.643 50.3667C157.095 50.6983 157.655 50.8492 158.212 50.7899C158.773 50.8515 159.335 50.6968 159.786 50.3575ZM171.614 45.8084C171.623 46.514 171.539 47.2177 171.366 47.9018C171.226 48.4708 170.98 49.008 170.639 49.4845C170.333 49.9125 169.925 50.2573 169.452 50.4874C168.944 50.7304 168.386 50.8517 167.823 50.8417C167.588 50.843 167.353 50.8168 167.124 50.7635C166.911 50.7168 166.705 50.6425 166.512 50.5426C166.304 50.4362 166.107 50.3098 165.923 50.1654C165.711 50.0018 165.508 49.8267 165.316 49.6409V53.7356C165.316 53.7982 165.297 53.8595 165.261 53.9104C165.206 53.9722 165.136 54.0183 165.058 54.0438C164.936 54.0866 164.81 54.1144 164.681 54.1266C164.484 54.1473 164.286 54.1565 164.087 54.1542C163.889 54.1563 163.691 54.1471 163.494 54.1266C163.367 54.1149 163.241 54.0871 163.121 54.0438C163.043 54.0183 162.973 53.9722 162.919 53.9104C162.881 53.8599 162.86 53.7987 162.859 53.7356V41.5895C162.858 41.5289 162.876 41.4696 162.91 41.4193C162.952 41.3607 163.011 41.3171 163.08 41.2951C163.184 41.2584 163.292 41.2337 163.402 41.2215C163.569 41.2052 163.736 41.1975 163.903 41.1984C164.068 41.1978 164.232 41.2054 164.396 41.2215C164.505 41.2337 164.613 41.2584 164.718 41.2951C164.786 41.3185 164.845 41.3618 164.888 41.4193C164.922 41.4696 164.939 41.5289 164.939 41.5895V42.6109C165.173 42.3674 165.422 42.1385 165.684 41.9254C165.916 41.7358 166.166 41.568 166.429 41.4239C166.679 41.2948 166.943 41.1959 167.216 41.1294C167.498 41.0635 167.787 41.0311 168.076 41.0328C168.642 41.0165 169.203 41.1447 169.705 41.4055C170.149 41.6537 170.525 42.0076 170.8 42.4361C171.097 42.9019 171.308 43.4179 171.421 43.9589C171.553 44.5665 171.618 45.1867 171.614 45.8084ZM169.061 45.9833C169.062 45.6273 169.034 45.2719 168.978 44.9205C168.932 44.6012 168.838 44.2908 168.697 44.0003C168.574 43.7483 168.393 43.5291 168.168 43.3608C167.93 43.1956 167.644 43.1131 167.354 43.1262C167.19 43.1265 167.028 43.1498 166.871 43.1952C166.697 43.2504 166.531 43.3294 166.379 43.4298C166.195 43.5571 166.024 43.7019 165.868 43.8623C165.669 44.0664 165.483 44.2831 165.311 44.511V47.3819C165.599 47.7549 165.93 48.093 166.296 48.3895C166.573 48.6119 166.916 48.7365 167.271 48.7437C167.561 48.7501 167.846 48.6648 168.085 48.4999C168.317 48.3324 168.506 48.1135 168.638 47.8604C168.786 47.5816 168.893 47.2824 168.955 46.9724C169.022 46.6468 169.057 46.3156 169.061 45.9833ZM175.75 50.4544C175.79 50.4067 175.811 50.3463 175.81 50.2842V37.448C175.811 37.3846 175.79 37.3228 175.75 37.2732C175.698 37.2106 175.63 37.1643 175.552 37.1397C175.429 37.1009 175.303 37.0732 175.175 37.0569C174.978 37.0364 174.78 37.0272 174.582 37.0293C174.383 37.0273 174.185 37.0365 173.988 37.0569C173.862 37.0731 173.737 37.1008 173.615 37.1397C173.537 37.1653 173.467 37.2114 173.413 37.2732C173.373 37.3228 173.352 37.3846 173.353 37.448V50.2842C173.352 50.3463 173.373 50.4067 173.413 50.4544C173.467 50.5136 173.537 50.5553 173.615 50.574C173.736 50.6156 173.861 50.6404 173.988 50.6476C174.185 50.6681 174.383 50.6773 174.582 50.6752C174.78 50.6774 174.978 50.6682 175.175 50.6476C175.304 50.6408 175.431 50.616 175.552 50.574C175.629 50.5556 175.698 50.5138 175.75 50.4544ZM29.0465 48.8415C29.7103 47.8227 30.0643 46.6332 30.0656 45.4172V39.1694H25.9847V45.4172C25.9837 45.9714 25.773 46.5047 25.395 46.91C25.0171 47.3153 24.4998 47.5625 23.947 47.6022C23.3942 47.6418 22.8469 47.4708 22.415 47.1235C21.9831 46.7763 21.6986 46.2785 21.6186 45.7301V39.1694H17.5101V45.7301C17.43 46.2785 17.1455 46.7763 16.7136 47.1235C16.2817 47.4708 15.7344 47.6418 15.1816 47.6022C14.6289 47.5625 14.1116 47.3153 13.7336 46.91C13.3556 46.5047 13.1449 45.9714 13.1439 45.4172V39.1694H9.06303V45.4172C9.06425 47.082 9.72644 48.6782 10.904 49.8549C12.0817 51.0317 13.6783 51.6927 15.3431 51.6927C16.9009 51.6864 18.4021 51.1085 19.562 50.0686C20.4633 50.8849 21.582 51.4222 22.7825 51.6154C23.983 51.8086 25.2138 51.6493 26.3257 51.157C27.4375 50.6646 28.3826 49.8603 29.0465 48.8415Z" fill="black"></path>
</svg>
